<svg class="cs-custom-icon" version="1.1" xmlns="http://www.w3.org/2000/svg" xmlns:xlink="http://www.w3.org/1999/xlink" x="0px" y="0px" viewBox="-290 382 30 30" enable-background="new -290 382 30 30" xml:space="preserve">
  <g>
    <path d="M-262.5,406.7l-4.9-5.1c-0.4-0.4-1-0.4-1.4,0l-0.5,0.4l-0.5-0.5c1.7-1.9,2.7-4.3,2.7-7.1c0.1-5.7-4.6-10.4-10.4-10.4s-10.5,4.7-10.5,10.5s4.7,10.5,10.5,10.5c2.7,0,5.2-1,7.1-2.7l0.5,0.5l-0.2,0.2c-0.4,0.4-0.4,1,0,1.4l4.9,5.1c0.2,0.2,0.4,0.3,0.7,0.3s0.5-0.1,0.7-0.3l1.4-1.4c0.2-0.2,0.3-0.4,0.3-0.7C-262.2,407.1-262.3,406.8-262.5,406.7z M-277.5,403c-4.7,0-8.5-3.8-8.5-8.5s3.8-8.5,8.5-8.5s8.5,3.8,8.5,8.5S-272.8,403-277.5,403z"/>
    <path d="M-277.5,387.8c-3.7,0-6.7,2.9-6.7,6.7c0,3.6,3,6.7,6.7,6.7s6.7-3,6.7-6.7C-270.8,390.8-273.9,387.8-277.5,387.8z"/>
  </g>
</svg>