<svg class="cs-custom-icon" version="1.1" xmlns="http://www.w3.org/2000/svg" xmlns:xlink="http://www.w3.org/1999/xlink" x="0px" y="0px" viewBox="-290 382 30 30" enable-background="new -290 382 30 30" xml:space="preserve">
  <g>
    <path d="M-264,384h-22c-0.6,0-1,0.4-1,1v3c0,0.6,0.4,1,1,1h22c0.6,0,1-0.4,1-1v-3C-263,384.4-263.4,384-264,384z"/>
    <path d="M-264,391h-12c-0.6,0-1,0.4-1,1v3c0,0.6,0.4,1,1,1h12c0.6,0,1-0.4,1-1v-3C-263,391.4-263.4,391-264,391z"/>
    <path d="M-286,396h6c0.6,0,1-0.4,1-1v-3c0-0.6-0.4-1-1-1h-6c-0.6,0-1,0.4-1,1v3C-287,395.6-286.6,396-286,396z"/>
    <path d="M-286,403h12c0.6,0,1-0.4,1-1v-3c0-0.6-0.4-1-1-1h-12c-0.6,0-1,0.4-1,1v3C-287,402.6-286.6,403-286,403z"/>
    <path d="M-264,398h-6c-0.6,0-1,0.4-1,1v3c0,0.6,0.4,1,1,1h6c0.6,0,1-0.4,1-1v-3C-263,398.4-263.4,398-264,398z"/>
    <path d="M-264,405h-22c-0.6,0-1,0.4-1,1v3c0,0.6,0.4,1,1,1h22c0.6,0,1-0.4,1-1v-3C-263,405.4-263.4,405-264,405z"/>
  </g>
</svg>