<svg class="cs-custom-icon" version="1.1" xmlns="http://www.w3.org/2000/svg" xmlns:xlink="http://www.w3.org/1999/xlink" x="0px" y="0px" viewBox="-290 382 30 30" enable-background="new -290 382 30 30" xml:space="preserve">
  <g>
    <path d="M-264,385h-22c-0.6,0-1,0.4-1,1v5c0,0.6,0.4,1,1,1h22c0.6,0,1-0.4,1-1v-5C-263,385.4-263.4,385-264,385zM-286,391v-5h22v5H-286z M-264,391.5V391l0,0V391.5z"/>
    <polygon points="-283,387 -284,387 -284,388 -285,388 -285,389 -284,389 -284,390 -283,390 -283,389 -282,389 -282,388 -283,388 	"/>
    <path d="M-264,393h-22c-0.6,0-1,0.4-1,1v14c0,0.6,0.4,1,1,1h22c0.6,0,1-0.4,1-1v-14C-263,393.4-263.4,393-264,393zM-286,408v-14h22v14H-286z M-264,408.5V408l0,0V408.5z"/>
    <polygon points="-284.2,397.9 -283.5,397.2 -282.8,397.9 -282.1,397.2 -282.8,396.5 -282.1,395.8 -282.8,395.1 -283.5,395.8 -284.2,395.1 -284.9,395.8 -284.2,396.5 -284.9,397.2 	"/>
    <path d="M-271.5,388h-8c-0.3,0-0.5,0.2-0.5,0.5s0.2,0.5,0.5,0.5h8c0.3,0,0.5-0.2,0.5-0.5S-271.2,388-271.5,388z"/>
    <path d="M-279.5,397h10c0.3,0,0.5-0.2,0.5-0.5s-0.2-0.5-0.5-0.5h-10c-0.3,0-0.5,0.2-0.5,0.5S-279.8,397-279.5,397z"/>
    <path d="M-275.5,399h-9c-0.3,0-0.5,0.2-0.5,0.5s0.2,0.5,0.5,0.5h9c0.3,0,0.5-0.2,0.5-0.5S-275.2,399-275.5,399z"/>
    <path d="M-271,399.5c0,0.3,0.2,0.5,0.5,0.5h5c0.3,0,0.5-0.2,0.5-0.5s-0.2-0.5-0.5-0.5h-5C-270.8,399-271,399.2-271,399.5z"/>
    <path d="M-265.5,401h-8c-0.3,0-0.5,0.2-0.5,0.5s0.2,0.5,0.5,0.5h8c0.3,0,0.5-0.2,0.5-0.5S-265.2,401-265.5,401z"/>
    <path d="M-265.5,403h-8c-0.3,0-0.5,0.2-0.5,0.5s0.2,0.5,0.5,0.5h8c0.3,0,0.5-0.2,0.5-0.5S-265.2,403-265.5,403z"/>
    <path d="M-268.5,405h-5c-0.3,0-0.5,0.2-0.5,0.5s0.2,0.5,0.5,0.5h5c0.3,0,0.5-0.2,0.5-0.5S-268.2,405-268.5,405z"/>
    <path d="M-275,406v-5h-10v5.2v0.5v0.3h10V406L-275,406z M-279.5,402h3.5v2c-0.4-0.3-0.8-0.4-1.2-0.5C-277.6,402.6-278.5,402-279.5,402c-0.8,0-1.5,0.4-2,1c-0.1,0-0.1,0-0.2,0c-0.9,0-1.7,0.4-2.2,0.9V402H-279.5z M-279.6,405.8h-4.3c0.2-1,1.1-1.8,2.2-1.8C-280.6,404-279.8,404.7-279.6,405.8z M-280.4,403.3c0.3-0.2,0.6-0.3,0.9-0.3c0.5,0,1,0.3,1.2,0.6c-0.3,0.1-0.7,0.3-0.9,0.6C-279.6,403.8-280,403.5-280.4,403.3z M-278.5,406c0-0.3-0.1-0.6-0.2-0.9c0.3-0.4,0.7-0.6,1.2-0.6c0.8,0,1.5,0.7,1.5,1.5l0,0H-278.5z"/>
  </g>
</svg>