<svg class="cs-custom-icon" version="1.1" xmlns="http://www.w3.org/2000/svg" xmlns:xlink="http://www.w3.org/1999/xlink" x="0px" y="0px" viewBox="-290 382 30 30" enable-background="new -290 382 30 30" xml:space="preserve">
  <g>
    <polygon points="-265.1,394.1 -265.9,394.9 -263.7,397 -265.9,399.1 -265.1,399.9 -262.3,397 	"/>
    <polygon points="-284.9,394.1 -287.7,397 -284.9,399.9 -284.1,399.1 -286.3,397 -284.1,394.9 	"/>
    <path d="M-275,390c-1.1,0-2,0.9-2,2s0.9,2,2,2s2-0.9,2-2S-273.9,390-275,390z M-275,393c-0.6,0-1-0.4-1-1s0.4-1,1-1s1,0.4,1,1S-274.4,393-275,393z"/>
    <path d="M-281,390c-1.1,0-2,0.9-2,2s0.9,2,2,2s2-0.9,2-2S-279.9,390-281,390z M-281,393c-0.6,0-1-0.4-1-1s0.4-1,1-1s1,0.4,1,1S-280.4,393-281,393z"/>
    <path d="M-269,390c-1.1,0-2,0.9-2,2s0.9,2,2,2s2-0.9,2-2S-267.9,390-269,390z M-269,393c-0.6,0-1-0.4-1-1s0.4-1,1-1s1,0.4,1,1S-268.4,393-269,393z"/>
    <path d="M-280.5,396c0.3,0,0.5-0.2,0.5-0.5s-0.2-0.5-0.5-0.5h-1c-0.3,0-0.5,0.2-0.5,0.5s0.2,0.5,0.5,0.5H-280.5z"/>
    <path d="M-274.5,396c0.3,0,0.5-0.2,0.5-0.5s-0.2-0.5-0.5-0.5h-1c-0.3,0-0.5,0.2-0.5,0.5s0.2,0.5,0.5,0.5H-274.5z"/>
    <path d="M-268.5,396c0.3,0,0.5-0.2,0.5-0.5s-0.2-0.5-0.5-0.5h-1c-0.3,0-0.5,0.2-0.5,0.5s0.2,0.5,0.5,0.5H-268.5z"/>
    <path d="M-279.5,398h-3c-0.3,0-0.5,0.2-0.5,0.5s0.2,0.5,0.5,0.5h3c0.3,0,0.5-0.2,0.5-0.5S-279.2,398-279.5,398z"/>
    <path d="M-273.5,398h-3c-0.3,0-0.5,0.2-0.5,0.5s0.2,0.5,0.5,0.5h3c0.3,0,0.5-0.2,0.5-0.5S-273.2,398-273.5,398z"/>
    <path d="M-267.5,398h-3c-0.3,0-0.5,0.2-0.5,0.5s0.2,0.5,0.5,0.5h3c0.3,0,0.5-0.2,0.5-0.5S-267.2,398-267.5,398z"/>
    <path d="M-279.5,400h-3c-0.3,0-0.5,0.2-0.5,0.5s0.2,0.5,0.5,0.5h3c0.3,0,0.5-0.2,0.5-0.5S-279.2,400-279.5,400z"/>
    <path d="M-273.5,400h-3c-0.3,0-0.5,0.2-0.5,0.5s0.2,0.5,0.5,0.5h3c0.3,0,0.5-0.2,0.5-0.5S-273.2,400-273.5,400z"/>
    <path d="M-267.5,400h-3c-0.3,0-0.5,0.2-0.5,0.5s0.2,0.5,0.5,0.5h3c0.3,0,0.5-0.2,0.5-0.5S-267.2,400-267.5,400z"/>
    <path d="M-279.5,402h-3c-0.3,0-0.5,0.2-0.5,0.5s0.2,0.5,0.5,0.5h3c0.3,0,0.5-0.2,0.5-0.5S-279.2,402-279.5,402z"/>
    <path d="M-273.5,402h-3c-0.3,0-0.5,0.2-0.5,0.5s0.2,0.5,0.5,0.5h3c0.3,0,0.5-0.2,0.5-0.5S-273.2,402-273.5,402z"/>
    <path d="M-267.5,402h-3c-0.3,0-0.5,0.2-0.5,0.5s0.2,0.5,0.5,0.5h3c0.3,0,0.5-0.2,0.5-0.5S-267.2,402-267.5,402z"/>
    <path d="M-273.5,404h-3c-0.3,0-0.5,0.2-0.5,0.5s0.2,0.5,0.5,0.5h3c0.3,0,0.5-0.2,0.5-0.5S-273.2,404-273.5,404z"/>
  </g>
</svg>