<svg class="cs-custom-icon" version="1.1" xmlns="http://www.w3.org/2000/svg" xmlns:xlink="http://www.w3.org/1999/xlink" x="0px" y="0px" viewBox="-290 382 30 30" enable-background="new -290 382 30 30" xml:space="preserve">
  <g>
    <path d="M-265,404.3c-0.5-1-0.3-1-1.3-2.2c-0.9-1.1-1.7-2-1.7-9.1c0-3.9-3.1-7-7-7s-7,3.1-7,7c0,7.1-0.8,8-1.6,9.1c-1,1.2-0.8,1.2-1.3,2.2c-0.2,0.4,0.1,0.7,0.4,0.7h6.1c0.2,1.7,1.7,3,3.4,3s3.2-1.3,3.4-3h6.1C-265.2,405-264.9,404.7-265,404.3zM-281,393c0-3.3,2.7-6,6-6s6,2.7,6,6c0,7.5,0.9,8.5,1.9,9.7c0.3,0.4,0.6,0.7,0.9,1.3h-17.5C-282.6,401.6-281,402.9-281,393zM-275,407c-1.2,0-2.2-0.9-2.4-2h4.9C-272.8,406.1-273.8,407-275,407z"/>
    <circle cx="-277.5" cy="390.5" r="0.5"/>
    <circle cx="-276.5" cy="389.5" r="0.5"/>
    <circle cx="-278.5" cy="391.5" r="0.5"/>
  </g>
</svg>