<svg class="cs-custom-icon" version="1.1" xmlns="http://www.w3.org/2000/svg" xmlns:xlink="http://www.w3.org/1999/xlink" x="0px" y="0px" viewBox="-290 382 30 30" enable-background="new -290 382 30 30" xml:space="preserve">
  <g>
    <path d="M-274,396.5v-8c0-1.4-1.1-2.5-2.5-2.5h-8c-1.4,0-2.5,1.1-2.5,2.5v8c0,1.4,1.1,2.5,2.5,2.5h8C-275.1,399-274,397.9-274,396.5z M-286,396.5v-8c0-0.8,0.7-1.5,1.5-1.5h8c0.8,0,1.5,0.7,1.5,1.5v8c0,0.8-0.7,1.5-1.5,1.5h-8C-285.3,398-286,397.3-286,396.5z"/>
    <path d="M-272,398.5v-7c0-0.3-0.2-0.5-0.5-0.5s-0.5,0.2-0.5,0.5v7c0,0.8-0.7,1.5-1.5,1.5h-7c-0.3,0-0.5,0.2-0.5,0.5s0.2,0.5,0.5,0.5h7C-273.1,401-272,399.9-272,398.5z"/>
    <path d="M-270,400.5v-6c0-0.3-0.2-0.5-0.5-0.5s-0.5,0.2-0.5,0.5v6c0,0.8-0.7,1.5-1.5,1.5h-6c-0.3,0-0.5,0.2-0.5,0.5s0.2,0.5,0.5,0.5h6C-271.1,403-270,401.9-270,400.5z"/>
    <path d="M-268,402.5v-5c0-0.3-0.2-0.5-0.5-0.5s-0.5,0.2-0.5,0.5v5c0,0.8-0.7,1.5-1.5,1.5h-5c-0.3,0-0.5,0.2-0.5,0.5s0.2,0.5,0.5,0.5h5C-269.1,405-268,403.9-268,402.5z"/>
    <path d="M-266.5,400c-0.3,0-0.5,0.2-0.5,0.5v4c0,0.8-0.7,1.5-1.5,1.5h-4c-0.3,0-0.5,0.2-0.5,0.5s0.2,0.5,0.5,0.5h4c1.4,0,2.5-1.1,2.5-2.5v-4C-266,400.2-266.2,400-266.5,400z"/>
    <path d="M-263.1,394.1l-6.2-6.1h1.3v-1h-2h-1v1v2h1v-1.3l6.1,6.1c0.1,0.1,0.2,0.1,0.4,0.1s0.3,0,0.4-0.1C-263,394.7-263,394.3-263.1,394.1z"/>
  </g>
</svg>