<svg class="cs-custom-icon" version="1.1" xmlns="http://www.w3.org/2000/svg" xmlns:xlink="http://www.w3.org/1999/xlink" x="0px" y="0px" viewBox="-290 382 30 30" enable-background="new -290 382 30 30" xml:space="preserve">
  <g>
    <path d="M-266,385h-15.5c-1.9,0-3.5,1.6-3.5,3.5v17c0,1.9,1.6,3.5,3.5,3.5l0,0h15.5c0.6,0,1-0.4,1-1v-22C-265,385.4-265.4,385-266,385z M-268,405.5c0-1.2,0.9-2.2,2-2.4v4.9C-267.1,407.7-268,406.7-268,405.5z M-266,402h-14v-16h14V402zM-284,388.5c0-1.4,1.1-2.5,2.5-2.5h0.5v16h-0.5c-1,0-1.9,0.4-2.5,1.1V388.5z M-284,405.5c0-1.4,1.1-2.5,2.5-2.5h13.6c-0.3,0.3-0.5,0.6-0.7,1h-13.9c-0.3,0-0.5,0.2-0.5,0.5s0.2,0.5,0.5,0.5h13.6c0,0.2-0.1,0.3-0.1,0.5s0,0.3,0,0.5h-13.5c-0.3,0-0.5,0.2-0.5,0.5s0.2,0.5,0.5,0.5h13.9c0.2,0.4,0.4,0.7,0.7,1h-13.6C-282.9,408-284,406.9-284,405.5z"/>
    <path d="M-278.7,397.9c0.2,0.2,0.5,0.1,0.7-0.1c0.6-0.9,1.8-1.9,2.1-1.8c0,0,0.3,0.3,0,1.8c0,0.4,0.1,0.7,0.4,0.9c0.5,0.3,1.1,0.1,1.8-0.1c0.8-0.3,1.8-0.6,2.4-0.1c0.5,0.3,1.4,0.5,2.2,0.5c0.6,0,1.2-0.1,1.6-0.2c0.3-0.1,0.4-0.3,0.4-0.6c0-0.3-0.3-0.4-0.6-0.4c-0.8,0.2-2.4,0.2-2.9-0.1c-1.1-0.8-2.4-0.4-3.3-0.1c-0.3,0.1-0.7,0.2-0.8,0.2l0,0c0.2-1,0.3-2.4-0.6-2.8c-1.3-0.6-3.3,2.1-3.3,2.1C-279,397.4-279,397.7-278.7,397.9z"/>
  </g>
</svg>