<svg class="cs-custom-icon" version="1.1" xmlns="http://www.w3.org/2000/svg" xmlns:xlink="http://www.w3.org/1999/xlink" x="0px" y="0px" viewBox="-290 382 30 30" enable-background="new -290 382 30 30" xml:space="preserve">
  <g>
    <path d="M-280.6,394.1c-0.1-0.4,1.1-2.1,2.4-3.3c0.3-0.3,0.4-0.7,0.2-1.1c-0.1-0.5-0.5-0.7-0.9-0.7h-0.2c-5.1,1-8.9,5.5-8.9,10.8c0,3.3,2.7,6,6,6s6-2.7,6-6C-276,397-277.9,394.6-280.6,394.1z M-282,404.8c-2.8,0-5-2.2-5-5c0-4.8,3.4-8.9,8.1-9.8c-0.1,0.1-3,3-2.7,4.3c0.1,0.3,0.3,0.6,0.7,0.6c2.3,0.5,3.8,2.5,3.8,4.9C-277,402.6-279.2,404.8-282,404.8z"/>
    <path d="M-266.6,394.1c-0.1-0.4,1.1-2.1,2.4-3.3c0.3-0.3,0.4-0.7,0.2-1.1c-0.1-0.5-0.5-0.7-0.9-0.7h-0.2c-5.1,1-8.9,5.5-8.9,10.8c0,3.3,2.7,6,6,6s6-2.7,6-6C-262,397-263.9,394.6-266.6,394.1z M-268,404.8c-2.8,0-5-2.2-5-5c0-4.8,3.4-8.9,8.1-9.8c-0.1,0.1-3,3-2.7,4.3c0.1,0.3,0.3,0.6,0.7,0.6c2.3,0.5,3.8,2.5,3.8,4.9C-263,402.6-265.2,404.8-268,404.8z"/>
  </g>
</svg>