<svg class="cs-custom-icon" version="1.1" xmlns="http://www.w3.org/2000/svg" xmlns:xlink="http://www.w3.org/1999/xlink" x="0px" y="0px" viewBox="-290 382 30 30" enable-background="new -290 382 30 30" xml:space="preserve">
  <g>
    <path d="M-277.8,393h8.3c0.3,0,0.5-0.2,0.5-0.5s-0.2-0.5-0.5-0.5h-8.3c-0.3,0-0.5,0.2-0.5,0.5S-278.1,393-277.8,393z"/>
    <path d="M-269.5,398h-12c-0.3,0-0.5,0.2-0.5,0.5s0.2,0.5,0.5,0.5h12c0.3,0,0.5-0.2,0.5-0.5S-269.2,398-269.5,398z"/>
    <path d="M-275,404h-6.5c-0.3,0-0.5,0.2-0.5,0.5s0.2,0.5,0.5,0.5h6.5c0.3,0,0.5-0.2,0.5-0.5S-274.7,404-275,404z"/>
    <polygon points="-278.6,394.6 -280.8,392.5 -278.6,390.4 -279.4,389.6 -282.2,392.5 -279.4,395.4   "/>
    <polygon points="-271.4,402.4 -269.2,404.5 -271.4,406.6 -270.6,407.4 -267.8,404.5 -270.6,401.6   "/>
    <rect x="-273.7" y="400.9" transform="matrix(0.9745 0.2246 -0.2246 0.9745 83.8131 71.6855)" width="1" height="6.7"/>
    <path d="M-265.3,390l-5.7-5.7c-0.2-0.2-0.5-0.3-0.7-0.3h-11.8c-0.8,0-1.5,0.7-1.5,1.5v23c0,0.8,0.7,1.5,1.5,1.5h17c0.8,0,1.5-0.7,1.5-1.5v-17.8C-265,390.5-265.1,390.2-265.3,390z M-271,385.6l4.4,4.4h-3.9c-0.3,0-0.5-0.2-0.5-0.5V385.6zM-266.5,409h-17c-0.3,0-0.5-0.2-0.5-0.5v-23c0-0.3,0.2-0.5,0.5-0.5h11.5v4.5c0,0.8,0.7,1.5,1.5,1.5h4.5v17.5C-266,408.8-266.2,409-266.5,409z"/>
  </g>
</svg>