<svg class="cs-custom-icon" version="1.1" xmlns="http://www.w3.org/2000/svg" xmlns:xlink="http://www.w3.org/1999/xlink" x="0px" y="0px" viewBox="-290 382 30 30" enable-background="new -290 382 30 30" xml:space="preserve">
  <g>
    <path d="M-276.5,385h-6c-0.3,0-0.5,0.2-0.5,0.5s0.2,0.5,0.5,0.5h6c0.3,0,0.5-0.2,0.5-0.5S-276.2,385-276.5,385z"/>
    <path d="M-273.5,386h9c0.3,0,0.5-0.2,0.5-0.5s-0.2-0.5-0.5-0.5h-9c-0.3,0-0.5,0.2-0.5,0.5S-273.8,386-273.5,386z"/>
    <path d="M-276.5,387h-9c-0.3,0-0.5,0.2-0.5,0.5s0.2,0.5,0.5,0.5h9c0.3,0,0.5-0.2,0.5-0.5S-276.2,387-276.5,387z"/>
    <path d="M-264.5,387h-9c-0.3,0-0.5,0.2-0.5,0.5s0.2,0.5,0.5,0.5h9c0.3,0,0.5-0.2,0.5-0.5S-264.2,387-264.5,387z"/>
    <path d="M-276.5,389h-9c-0.3,0-0.5,0.2-0.5,0.5s0.2,0.5,0.5,0.5h9c0.3,0,0.5-0.2,0.5-0.5S-276.2,389-276.5,389z"/>
    <path d="M-264.5,389h-9c-0.3,0-0.5,0.2-0.5,0.5s0.2,0.5,0.5,0.5h9c0.3,0,0.5-0.2,0.5-0.5S-264.2,389-264.5,389z"/>
    <path d="M-276.5,391h-9c-0.3,0-0.5,0.2-0.5,0.5s0.2,0.5,0.5,0.5h9c0.3,0,0.5-0.2,0.5-0.5S-276.2,391-276.5,391z"/>
    <path d="M-264.5,391h-9c-0.3,0-0.5,0.2-0.5,0.5s0.2,0.5,0.5,0.5h9c0.3,0,0.5-0.2,0.5-0.5S-264.2,391-264.5,391z"/>
    <path d="M-276.5,393h-9c-0.3,0-0.5,0.2-0.5,0.5s0.2,0.5,0.5,0.5h9c0.3,0,0.5-0.2,0.5-0.5S-276.2,393-276.5,393z"/>
    <path d="M-273.5,394h7c0.3,0,0.5-0.2,0.5-0.5s-0.2-0.5-0.5-0.5h-7c-0.3,0-0.5,0.2-0.5,0.5S-273.8,394-273.5,394z"/>
    <path d="M-276.5,395h-9c-0.3,0-0.5,0.2-0.5,0.5s0.2,0.5,0.5,0.5h9c0.3,0,0.5-0.2,0.5-0.5S-276.2,395-276.5,395z"/>
    <path d="M-264.5,395h-6c-0.3,0-0.5,0.2-0.5,0.5s0.2,0.5,0.5,0.5h6c0.3,0,0.5-0.2,0.5-0.5S-264.2,395-264.5,395z"/>
    <path d="M-276.5,397h-9c-0.3,0-0.5,0.2-0.5,0.5s0.2,0.5,0.5,0.5h9c0.3,0,0.5-0.2,0.5-0.5S-276.2,397-276.5,397z"/>
    <path d="M-264.5,397h-9c-0.3,0-0.5,0.2-0.5,0.5s0.2,0.5,0.5,0.5h9c0.3,0,0.5-0.2,0.5-0.5S-264.2,397-264.5,397z"/>
    <path d="M-285.5,400h5c0.3,0,0.5-0.2,0.5-0.5s-0.2-0.5-0.5-0.5h-5c-0.3,0-0.5,0.2-0.5,0.5S-285.8,400-285.5,400z"/>
    <path d="M-264.5,399h-9c-0.3,0-0.5,0.2-0.5,0.5s0.2,0.5,0.5,0.5h9c0.3,0,0.5-0.2,0.5-0.5S-264.2,399-264.5,399z"/>
    <path d="M-276.5,401h-6c-0.3,0-0.5,0.2-0.5,0.5s0.2,0.5,0.5,0.5h6c0.3,0,0.5-0.2,0.5-0.5S-276.2,401-276.5,401z"/>
    <path d="M-264.5,401h-9c-0.3,0-0.5,0.2-0.5,0.5s0.2,0.5,0.5,0.5h9c0.3,0,0.5-0.2,0.5-0.5S-264.2,401-264.5,401z"/>
    <path d="M-276.5,403h-9c-0.3,0-0.5,0.2-0.5,0.5s0.2,0.5,0.5,0.5h9c0.3,0,0.5-0.2,0.5-0.5S-276.2,403-276.5,403z"/>
    <path d="M-267.5,403h-6c-0.3,0-0.5,0.2-0.5,0.5s0.2,0.5,0.5,0.5h6c0.3,0,0.5-0.2,0.5-0.5S-267.2,403-267.5,403z"/>
    <path d="M-276.5,405h-9c-0.3,0-0.5,0.2-0.5,0.5s0.2,0.5,0.5,0.5h9c0.3,0,0.5-0.2,0.5-0.5S-276.2,405-276.5,405z"/>
    <path d="M-276.5,407h-9c-0.3,0-0.5,0.2-0.5,0.5s0.2,0.5,0.5,0.5h9c0.3,0,0.5-0.2,0.5-0.5S-276.2,407-276.5,407z"/>
  </g>
</svg>