<svg class="cs-custom-icon" version="1.1" xmlns="http://www.w3.org/2000/svg" xmlns:xlink="http://www.w3.org/1999/xlink" x="0px" y="0px" viewBox="-290 382 30 30" enable-background="new -290 382 30 30" xml:space="preserve">
  <g>
    <path d="M-265.3,390l-5.7-5.7c-0.2-0.2-0.5-0.3-0.7-0.3h-11.8c-0.8,0-1.5,0.7-1.5,1.5v23c0,0.8,0.7,1.5,1.5,1.5h17c0.8,0,1.5-0.7,1.5-1.5v-17.8C-265,390.5-265.1,390.2-265.3,390z M-271,385.6l4.4,4.4h-3.9c-0.3,0-0.5-0.2-0.5-0.5V385.6zM-266.5,409h-17c-0.3,0-0.5-0.2-0.5-0.5v-23c0-0.3,0.2-0.5,0.5-0.5h11.5v4.5c0,0.8,0.7,1.5,1.5,1.5h4.5v17.5C-266,408.8-266.2,409-266.5,409z"/>
    <path d="M-270,393.6C-270,393.5-270,393.5-270,393.6C-270,393.5-270,393.5-270,393.6c0-0.1,0-0.2,0-0.2v-0.1c0,0,0-0.1-0.1-0.1c0,0,0-0.1-0.1-0.1l0,0c0,0,0,0-0.1,0h-0.1h-0.1c0,0,0,0-0.1,0h-9c-0.3,0-0.5,0.2-0.5,0.5v2c0,0.3,0.2,0.5,0.5,0.5c0.3,0,0.5-0.2,0.5-0.5V394h7.5c-1.6,2.1-5.5,7.9-5.5,12.5c0,0.3,0.2,0.5,0.5,0.5c0.3,0,0.5-0.2,0.5-0.5c0-5.3,5.8-12.6,5.9-12.7c0,0,0,0,0-0.1v-0.1C-270,393.6-270,393.6-270,393.6z"/>
  </g>
</svg>