<svg class="cs-custom-icon" version="1.1" xmlns="http://www.w3.org/2000/svg" xmlns:xlink="http://www.w3.org/1999/xlink" x="0px" y="0px" viewBox="-290 382 30 30" enable-background="new -290 382 30 30" xml:space="preserve">
  <g>
    <path d="M-265,407.3v-2.8c0-0.3-0.2-0.5-0.5-0.5s-0.5,0.2-0.5,0.5v2.8l-1.6-1.6l-0.7,0.7l2.9,2.9l2.9-2.9l-0.7-0.7L-265,407.3z"/>
    <path d="M-284.5,388h-2c-0.8,0-1.5,0.7-1.5,1.5v5c0,0.4,0.2,0.7,0.4,1c-0.2,0.3-0.4,0.6-0.4,1v5c0,0.8,0.7,1.5,1.5,1.5h2c0.8,0,1.5-0.7,1.5-1.5v-5c0-0.4-0.2-0.7-0.4-1c0.2-0.3,0.4-0.6,0.4-1v-5C-283,388.7-283.7,388-284.5,388z M-287,389.5c0-0.3,0.2-0.5,0.5-0.5h2c0.3,0,0.5,0.2,0.5,0.5v5c0,0.3-0.2,0.5-0.5,0.5h-2c-0.3,0-0.5-0.2-0.5-0.5V389.5z M-284,401.5c0,0.3-0.2,0.5-0.5,0.5h-2c-0.3,0-0.5-0.2-0.5-0.5v-5c0-0.3,0.2-0.5,0.5-0.5h2c0.3,0,0.5,0.2,0.5,0.5V401.5z"/>
    <path d="M-278.5,388h-2c-0.8,0-1.5,0.7-1.5,1.5v5c0,0.4,0.2,0.7,0.4,1c-0.2,0.3-0.4,0.6-0.4,1v5c0,0.8,0.7,1.5,1.5,1.5h2c0.8,0,1.5-0.7,1.5-1.5v-5c0-0.4-0.2-0.7-0.4-1c0.2-0.3,0.4-0.6,0.4-1v-5C-277,388.7-277.7,388-278.5,388z M-281,389.5c0-0.3,0.2-0.5,0.5-0.5h2c0.3,0,0.5,0.2,0.5,0.5v5c0,0.3-0.2,0.5-0.5,0.5h-2c-0.3,0-0.5-0.2-0.5-0.5V389.5z M-278,401.5c0,0.3-0.2,0.5-0.5,0.5h-2c-0.3,0-0.5-0.2-0.5-0.5v-5c0-0.3,0.2-0.5,0.5-0.5h2c0.3,0,0.5,0.2,0.5,0.5V401.5z"/>
    <path d="M-268,396.5c0-0.4-0.2-0.7-0.4-1c0.2-0.3,0.4-0.6,0.4-1v-5c0-0.8-0.7-1.5-1.5-1.5h-2c-0.8,0-1.5,0.7-1.5,1.5v5c0,0.4,0.2,0.7,0.4,1c-0.2,0.3-0.4,0.6-0.4,1v5c0,0.8,0.7,1.5,1.5,1.5h2c0.8,0,1.5-0.7,1.5-1.5V396.5z M-272,389.5c0-0.3,0.2-0.5,0.5-0.5h2c0.3,0,0.5,0.2,0.5,0.5v5c0,0.3-0.2,0.5-0.5,0.5h-2c-0.3,0-0.5-0.2-0.5-0.5V389.5z M-269,401.5c0,0.3-0.2,0.5-0.5,0.5h-2c-0.3,0-0.5-0.2-0.5-0.5v-5c0-0.3,0.2-0.5,0.5-0.5h2c0.3,0,0.5,0.2,0.5,0.5V401.5z"/>
    <path d="M-262,389.5c0-0.8-0.7-1.5-1.5-1.5h-2c-0.8,0-1.5,0.7-1.5,1.5v5c0,0.4,0.2,0.7,0.4,1c-0.2,0.3-0.4,0.6-0.4,1v5c0,0.8,0.7,1.5,1.5,1.5h2c0.8,0,1.5-0.7,1.5-1.5v-5c0-0.4-0.2-0.7-0.4-1c0.2-0.3,0.4-0.6,0.4-1V389.5z M-266,389.5c0-0.3,0.2-0.5,0.5-0.5h2c0.3,0,0.5,0.2,0.5,0.5v5c0,0.3-0.2,0.5-0.5,0.5h-2c-0.3,0-0.5-0.2-0.5-0.5V389.5z M-263,401.5c0,0.3-0.2,0.5-0.5,0.5h-2c-0.3,0-0.5-0.2-0.5-0.5v-5c0-0.3,0.2-0.5,0.5-0.5h2c0.3,0,0.5,0.2,0.5,0.5V401.5z"/>
    <circle cx="-275" cy="392" r="1"/>
    <circle cx="-275" cy="398" r="1"/>
  </g>
</svg>