<svg class="cs-custom-icon" version="1.1" xmlns="http://www.w3.org/2000/svg" xmlns:xlink="http://www.w3.org/1999/xlink" x="0px" y="0px" viewBox="-290 382 30 30" enable-background="new -290 382 30 30" xml:space="preserve">
  <g>
    <path d="M-263.6,390.6l-2.9-2.9l-2.9,2.9l0.7,0.7l1.7-1.6v3.8c0,0.3,0.2,0.5,0.5,0.5s0.5-0.2,0.5-0.5v-3.8l1.6,1.6L-263.6,390.6z"/>
    <path d="M-282,392c-2.2,0-4,1.8-4,4v6c0,2.2,1.8,4,4,4s4-1.8,4-4v-6C-278,393.8-279.8,392-282,392z M-285,402v-6c0-0.5,0.2-1,0.4-1.5l4.5,9.8c-0.5,0.4-1.2,0.7-1.9,0.7C-283.7,405-285,403.7-285,402z M-279,402c0,0.5-0.2,1-0.4,1.5l-4.5-9.8c0.5-0.4,1.2-0.7,1.9-0.7c1.7,0,3,1.3,3,3V402z"/>
    <path d="M-273,392c-2.2,0-4,1.8-4,4v6c0,2.2,1.8,4,4,4s4-1.8,4-4v-6C-269,393.8-270.8,392-273,392z M-276,402v-6c0-0.5,0.2-1,0.4-1.5l4.5,9.8c-0.5,0.4-1.2,0.7-1.9,0.7C-274.7,405-276,403.7-276,402z M-270,402c0,0.5-0.2,1-0.4,1.5l-4.5-9.8c0.5-0.4,1.2-0.7,1.9-0.7c1.7,0,3,1.3,3,3V402z"/>
  </g>
</svg>