<svg class="cs-custom-icon" version="1.1" xmlns="http://www.w3.org/2000/svg" xmlns:xlink="http://www.w3.org/1999/xlink" x="0px" y="0px" viewBox="-290 382 30 30" enable-background="new -290 382 30 30" xml:space="preserve">
  <path d="M-268.3,383.7h-13.3c-3.6,0-6.7,3-6.7,6.7v13.3c0,3.6,3,6.7,6.7,6.7h13.3c3.6,0,6.7-3,6.7-6.7v-13.3C-261.7,386.7-264.7,383.7-268.3,383.7z M-262.9,403.7c0,3-2.4,5.5-5.5,5.5h-13.3c-3,0-5.5-2.4-5.5-5.5v-13.3c0-3,2.4-5.5,5.5-5.5h13.3c3,0,5.5,2.4,5.5,5.5V403.7z M-275,406.7c-5.3,0-9.7-4.4-9.7-9.7s4.4-9.7,9.7-9.7s9.7,4.4,9.7,9.7S-269.7,406.7-275,406.7zM-275,388.5c-4.6,0-8.5,3.8-8.5,8.5s3.8,8.5,8.5,8.5s8.5-3.8,8.5-8.5S-270.4,388.5-275,388.5z"/>
</svg>