<svg class="cs-custom-icon" version="1.1" xmlns="http://www.w3.org/2000/svg" xmlns:xlink="http://www.w3.org/1999/xlink" x="0px" y="0px" viewBox="-290 382 30 30" enable-background="new -290 382 30 30" xml:space="preserve">
  <g>
    <path d="M-280.5,398h11c0.8,0,1.5-0.7,1.5-1.5v-10c0-0.8-0.7-1.5-1.5-1.5h-11c-0.8,0-1.5,0.7-1.5,1.5v10C-282,397.3-281.3,398-280.5,398z M-271,386h1.5c0.3,0,0.5,0.2,0.5,0.5v1.5h-2V386z M-271,389h2v2h-2V389z M-271,392h2v2h-2V392zM-271,395h2v1.5c0,0.3-0.2,0.5-0.5,0.5h-1.5V395z M-278,386h6v5h-6V386z M-278,392h6v5h-6V392z M-281,386.5c0-0.3,0.2-0.5,0.5-0.5h1.5v2h-2V386.5z M-281,389h2v2h-2V389z M-281,392h2v2h-2V392z M-281,395h2v2h-1.5c-0.3,0-0.5-0.2-0.5-0.5V395z"/>
    <path d="M-278.5,399c-0.3,0-0.5,0.2-0.5,0.5v5.8l-1.6-1.6l-0.7,0.7l2.9,2.9l2.9-2.9l-0.7-0.7l-1.8,1.6v-5.8C-278,399.2-278.2,399-278.5,399z"/>
    <path d="M-264,400h-12.5c-0.3,0-0.5,0.2-0.5,0.5s0.2,0.5,0.5,0.5h12.5v7h-22v-7h5.5c0.3,0,0.5-0.2,0.5-0.5s-0.2-0.5-0.5-0.5h-5.5c-0.6,0-1,0.4-1,1v7c0,0.6,0.4,1,1,1h22c0.6,0,1-0.4,1-1v-7C-263,400.4-263.4,400-264,400z"/>
  </g>
</svg>