<svg class="cs-custom-icon" version="1.1" xmlns="http://www.w3.org/2000/svg" xmlns:xlink="http://www.w3.org/1999/xlink" x="0px" y="0px" viewBox="-290 382 30 30" enable-background="new -290 382 30 30" xml:space="preserve">
  <g>
    <path d="M-272.5,393c-0.3,0-0.5,0.2-0.5,0.5s0.2,0.5,0.5,0.5c1.4,0,2.5-1.1,2.5-2.5s-1.1-2.5-2.5-2.5c-0.3,0-0.5,0.2-0.5,0.5s0.2,0.5,0.5,0.5c0.8,0,1.5,0.7,1.5,1.5S-271.7,393-272.5,393z"/>
    <path d="M-272.5,396c2.5,0,4.5-2,4.5-4.5s-2-4.5-4.5-4.5c-0.3,0-0.5,0.2-0.5,0.5s0.2,0.5,0.5,0.5c1.9,0,3.5,1.6,3.5,3.5s-1.6,3.5-3.5,3.5c-0.3,0-0.5,0.2-0.5,0.5S-272.8,396-272.5,396z"/>
    <path d="M-272.5,398c3.6,0,6.5-2.9,6.5-6.5s-2.9-6.5-6.5-6.5c-0.3,0-0.5,0.2-0.5,0.5s0.2,0.5,0.5,0.5c3,0,5.5,2.5,5.5,5.5s-2.5,5.5-5.5,5.5c-0.3,0-0.5,0.2-0.5,0.5S-272.8,398-272.5,398z"/>
    <path d="M-283,395h3.3l3,3c0.2,0.2,0.4,0.3,0.7,0.3c0.1,0,0.3,0,0.4-0.1c0.4-0.2,0.6-0.5,0.6-0.9v-11.6c0-0.4-0.2-0.8-0.6-0.9c-0.4-0.2-0.8-0.1-1.1,0.2l-3,3h-3.3c-0.6,0-1,0.4-1,1v5C-284,394.6-283.6,395-283,395z M-276,385.7v11.6l-3-3v-5.6L-276,385.7z M-283,389h3v5h-3V389z"/>
    <path d="M-278.5,399c-0.3,0-0.5,0.2-0.5,0.5v5.8l-1.6-1.6l-0.7,0.7l2.9,2.9l2.9-2.9l-0.7-0.7l-1.8,1.6v-5.8C-278,399.2-278.2,399-278.5,399z"/>
    <path d="M-264,400h-12.5c-0.3,0-0.5,0.2-0.5,0.5s0.2,0.5,0.5,0.5h12.5v7h-22v-7h5.5c0.3,0,0.5-0.2,0.5-0.5s-0.2-0.5-0.5-0.5h-5.5c-0.6,0-1,0.4-1,1v7c0,0.6,0.4,1,1,1h22c0.6,0,1-0.4,1-1v-7C-263,400.4-263.4,400-264,400z"/>
  </g>
</svg>