<svg class="cs-custom-icon" version="1.1" xmlns="http://www.w3.org/2000/svg" xmlns:xlink="http://www.w3.org/1999/xlink" x="0px" y="0px" viewBox="-1388 3226 30 30" style="enable-background:new -1388 3226 30 30;" xml:space="preserve">
  <g>
    <path d="M-1371.2,3240.1c-1.9-4.3-3.7-8.8-10.7-10.1c-0.2,0-0.5,0.1-0.5,0.3c-0.1,0.2,0,0.4,0.1,0.6c3.8,3.3,5.1,6,6.2,8.4c1.5,3.1,2.8,5.8,8.9,8.7c0.1,0,0.1,0,0.2,0c0.2,0,0.3-0.1,0.4-0.2c0.1-0.2,0.1-0.5-0.1-0.7C-1369,3245.4-1370.1,3242.8-1371.2,3240.1z M-1375.2,3238.8c-1-2.1-2.2-4.5-5.1-7.4c5,1.5,6.5,5.2,8.1,9.1c0.7,1.7,1.5,3.5,2.6,5C-1373,3243.4-1374,3241.3-1375.2,3238.8z"/>
    <path d="M-1364.9,3248.6c1.4-5.8,0.8-10.5-1.7-13.9c-3.2-4.2-9.4-6.4-18.9-6.7h-0.8l0.3,0.7c0.5,1.1,0.9,2.7,1.3,4.6c1.6,6.7,3.9,16.7,14.6,16.7c1.4,0,2.9-0.2,4.4-0.5l4.2,4h1.5L-1364.9,3248.6z M-1365.9,3248.6c-1.5,0.3-2.9,0.5-4.2,0.5c-9.9-0.1-12-9.3-13.6-16c-0.3-1.6-0.7-3-1.1-4.1c8.8,0.4,14.5,2.5,17.4,6.3C-1365.1,3238.5-1364.6,3242.9-1365.9,3248.6z"/>
  </g>
</svg>