<svg class="cs-custom-icon" version="1.1" xmlns="http://www.w3.org/2000/svg" xmlns:xlink="http://www.w3.org/1999/xlink" x="0px" y="0px" viewBox="-1388 3226 30 30" style="enable-background:new -1388 3226 30 30;" xml:space="preserve">
  <g>
    <path d="M-1363.5,3228h-19c-1.9,0-3.5,1.6-3.5,3.5v19c0,1.9,1.6,3.5,3.5,3.5h19c1.9,0,3.5-1.6,3.5-3.5v-19C-1360,3229.6-1361.6,3228-1363.5,3228z M-1361,3250.5c0,1.4-1.1,2.5-2.5,2.5h-19c-1.4,0-2.5-1.1-2.5-2.5v-19c0-1.4,1.1-2.5,2.5-2.5h19c1.4,0,2.5,1.1,2.5,2.5V3250.5z"/>
    <path d="M-1374.6,3233.5h-4.8c-0.6,0-1.1,0.5-1.1,1.1v4.8c0,0.6,0.5,1.1,1.1,1.1h4.8c0.6,0,1.1-0.5,1.1-1.1v-4.8C-1373.5,3234-1374,3233.5-1374.6,3233.5z M-1374.5,3239.4c0,0.1,0,0.1-0.1,0.1h-4.8c-0.1,0-0.1,0-0.1-0.1v-4.8c0-0.1,0-0.1,0.1-0.1h4.8c0.1,0,0.1,0,0.1,0.1C-1374.5,3234.6-1374.5,3239.4-1374.5,3239.4z"/>
    <path d="M-1366.6,3233.5h-4.8c-0.6,0-1.1,0.5-1.1,1.1v4.8c0,0.6,0.5,1.1,1.1,1.1h4.8c0.6,0,1.1-0.5,1.1-1.1v-4.8C-1365.5,3234-1366,3233.5-1366.6,3233.5z M-1366.5,3239.4C-1366.5,3239.5-1366.5,3239.5-1366.5,3239.4l-4.9,0.1c-0.1,0-0.1,0-0.1-0.1v-4.8c0-0.1,0-0.1,0.1-0.1h4.8c0.1,0,0.1,0,0.1,0.1C-1366.5,3234.6-1366.5,3239.4-1366.5,3239.4z"/>
    <path d="M-1374.6,3241.5h-4.8c-0.6,0-1.1,0.5-1.1,1.1v4.8c0,0.6,0.5,1.1,1.1,1.1h4.8c0.6,0,1.1-0.5,1.1-1.1v-4.8C-1373.5,3242-1374,3241.5-1374.6,3241.5z M-1374.5,3247.4c0,0.1,0,0.1-0.1,0.1h-4.8c-0.1,0-0.1,0-0.1-0.1v-4.8c0-0.1,0-0.1,0.1-0.1h4.8c0.1,0,0.1,0,0.1,0.1C-1374.5,3242.6-1374.5,3247.4-1374.5,3247.4z"/>
    <path d="M-1366.6,3241.5h-4.8c-0.6,0-1.1,0.5-1.1,1.1v4.8c0,0.6,0.5,1.1,1.1,1.1h4.8c0.6,0,1.1-0.5,1.1-1.1v-4.8C-1365.5,3242-1366,3241.5-1366.6,3241.5z M-1366.5,3247.4C-1366.5,3247.5-1366.5,3247.5-1366.5,3247.4l-4.9,0.1c-0.1,0-0.1,0-0.1-0.1v-4.8c0-0.1,0-0.1,0.1-0.1h4.8c0.1,0,0.1,0,0.1,0.1C-1366.5,3242.6-1366.5,3247.4-1366.5,3247.4z"/>
  </g>
</svg>