<svg class="cs-custom-icon" version="1.1" xmlns="http://www.w3.org/2000/svg" xmlns:xlink="http://www.w3.org/1999/xlink" x="0px" y="0px" viewBox="-290 382 30 30" enable-background="new -290 382 30 30" xml:space="preserve">
  <g>
    <circle cx="-275" cy="395.5" r="1.5"/>
    <path d="M-280.5,392h11c0.3,0,0.5-0.2,0.5-0.5s-0.2-0.5-0.5-0.5h-0.5v-0.5c0-0.3-0.2-0.5-0.5-0.5s-0.5,0.2-0.5,0.5c0-0.3-0.2-0.5-0.5-0.5s-0.5,0.2-0.5,0.5c0-0.3-0.2-0.5-0.5-0.5s-0.5,0.2-0.5,0.5c0-0.3-0.2-0.5-0.5-0.5s-0.5,0.2-0.5,0.5c0-0.3-0.2-0.5-0.5-0.5s-0.5,0.2-0.5,0.5c0-0.3-0.2-0.5-0.5-0.5s-0.5,0.2-0.5,0.5c0-0.3-0.2-0.5-0.5-0.5s-0.5,0.2-0.5,0.5c0-0.3-0.2-0.5-0.5-0.5s-0.5,0.2-0.5,0.5c0-0.3-0.2-0.5-0.5-0.5s-0.5,0.2-0.5,0.5c0-0.3-0.2-0.5-0.5-0.5s-0.5,0.2-0.5,0.5v0.5h-0.5c-0.3,0-0.5,0.2-0.5,0.5S-280.8,392-280.5,392z"/>
    <path d="M-272,395.5c0,0.3,0.2,0.5,0.5,0.5h5c0.3,0,0.5-0.2,0.5-0.5s-0.2-0.5-0.5-0.5h-5C-271.8,395-272,395.2-272,395.5z"/>
    <path d="M-283.5,396h5c0.3,0,0.5-0.2,0.5-0.5s-0.2-0.5-0.5-0.5h-5c-0.3,0-0.5,0.2-0.5,0.5S-283.8,396-283.5,396z"/>
    <path d="M-264.5,400h-21c-0.3,0-0.5,0.2-0.5,0.5s0.2,0.5,0.5,0.5h21c0.3,0,0.5-0.2,0.5-0.5S-264.2,400-264.5,400z"/>
    <path d="M-267.5,403h-15c-0.3,0-0.5,0.2-0.5,0.5s0.2,0.5,0.5,0.5h15c0.3,0,0.5-0.2,0.5-0.5S-267.2,403-267.5,403z"/>
  </g>
</svg>