<svg class="cs-custom-icon" version="1.1" xmlns="http://www.w3.org/2000/svg" xmlns:xlink="http://www.w3.org/1999/xlink" x="0px" y="0px" viewBox="-290 382 30 30" enable-background="new -290 382 30 30" xml:space="preserve">
  <g>
    <path d="M-266,397.4l2.1-11.4H-274v-1h1.5c0.3,0,0.5-0.2,0.5-0.5s-0.2-0.5-0.5-0.5h-5c-0.3,0-0.5,0.2-0.5,0.5s0.2,0.5,0.5,0.5h1.5v1h-10.1l1.1,5.1c0.1,0.3,0.3,0.4,0.6,0.4c0.3-0.1,0.4-0.3,0.4-0.6l-0.9-3.9h19.8l-1.8,10h-1.6c-0.3,0-0.5,0.2-0.5,0.5s0.2,0.5,0.5,0.5h1.7l3.3,5h-2l-12.4-12.4c-0.9-0.9-2.6-0.9-3.5,0l-4.2,4.2c-1,1-1,2.6,0,3.5l4.8,4.7h-5.8l1-1.7c0.1-0.2,0.1-0.5-0.2-0.7c-0.3-0.2-0.5-0.1-0.7,0.2l-1.5,2.6v6.6h26v-6.7L-266,397.4z M-284.9,397.6c-0.6-0.6-0.6-1.5,0-2.1l4.2-4.2c0.6-0.6,1.5-0.6,2.1,0l11.8,11.7h-12.6L-284.9,397.6z M-287,409v-5h24v5H-287z"/>
    <path d="M-272.5,406h-5c-0.3,0-0.5,0.2-0.5,0.5s0.2,0.5,0.5,0.5h5c0.3,0,0.5-0.2,0.5-0.5S-272.2,406-272.5,406z"/>
  </g>
</svg>