<svg class="cs-custom-icon" version="1.1" xmlns="http://www.w3.org/2000/svg" xmlns:xlink="http://www.w3.org/1999/xlink" x="0px" y="0px" viewBox="-290 382 30 30" enable-background="new -290 382 30 30" xml:space="preserve">
  <g>
    <path d="M-275,386c-3.3,0-6,2.7-6,6c0,1.3,0.4,3.1,1.3,4.3c1,1.2,1.7,2.4,1.7,4.2v0.5h5.5h0.5v-0.7c0-1.6,0.5-3.2,1.5-4.5c0.9-1.2,1.5-2.8,1.5-3.8C-269,388.7-271.7,386-275,386z M-271.3,395.2c-1,1.4-1.6,3.1-1.7,4.8h-4c-0.1-1.6-0.7-2.9-1.9-4.4c-0.6-0.7-1.1-2.3-1.1-3.6c0-2.8,2.2-5,5-5s5,2.2,5,5C-270,392.7-270.5,394-271.3,395.2z"/>
    <path d="M-272.5,402h-5c-0.3,0-0.5,0.2-0.5,0.5s0.2,0.5,0.5,0.5h5c0.3,0,0.5-0.2,0.5-0.5S-272.2,402-272.5,402z"/>
    <path d="M-272.5,404h-5c-0.3,0-0.5,0.2-0.5,0.5s0.2,0.5,0.5,0.5h5c0.3,0,0.5-0.2,0.5-0.5S-272.2,404-272.5,404z"/>
    <path d="M-274.5,406h-1c-0.3,0-0.5,0.2-0.5,0.5s0.2,0.5,0.5,0.5h1c0.3,0,0.5-0.2,0.5-0.5S-274.2,406-274.5,406z"/>
    <path d="M-273.5,393h-3c-0.3,0-0.5,0.2-0.5,0.5s0.2,0.5,0.5,0.5h3c0.3,0,0.5-0.2,0.5-0.5S-273.2,393-273.5,393z"/>
    <path d="M-266.5,389c-0.3,0-0.5,0.2-0.5,0.5s0.2,0.5,0.5,0.5h2.5v12h-5.5c-0.3,0-0.5,0.2-0.5,0.5s0.2,0.5,0.5,0.5h5.5c0.3,0,0.5-0.1,0.7-0.3c0.2-0.2,0.3-0.4,0.3-0.7v-13H-266.5z"/>
    <path d="M-280.5,402h-5.5v-12h2.5c0.3,0,0.5-0.2,0.5-0.5s-0.2-0.5-0.5-0.5h-3.5v13c0,0.3,0.1,0.5,0.3,0.7c0.2,0.2,0.4,0.3,0.7,0.3h5.5c0.3,0,0.5-0.2,0.5-0.5S-280.2,402-280.5,402z"/>
  </g>
</svg>