<svg class="cs-custom-icon" version="1.1" xmlns="http://www.w3.org/2000/svg" xmlns:xlink="http://www.w3.org/1999/xlink" x="0px" y="0px" viewBox="-290 382 30 30" enable-background="new -290 382 30 30" xml:space="preserve">
  <g>
    <path d="M-281.5,387h16c0.3,0,0.5-0.2,0.5-0.5s-0.2-0.5-0.5-0.5h-16c-0.3,0-0.5,0.2-0.5,0.5S-281.8,387-281.5,387z"/>
    <path d="M-284.5,389h19c0.3,0,0.5-0.2,0.5-0.5s-0.2-0.5-0.5-0.5h-19c-0.3,0-0.5,0.2-0.5,0.5S-284.8,389-284.5,389z"/>
    <path d="M-284.5,391h19c0.3,0,0.5-0.2,0.5-0.5s-0.2-0.5-0.5-0.5h-19c-0.3,0-0.5,0.2-0.5,0.5S-284.8,391-284.5,391z"/>
    <path d="M-284.5,393h19c0.3,0,0.5-0.2,0.5-0.5s-0.2-0.5-0.5-0.5h-19c-0.3,0-0.5,0.2-0.5,0.5S-284.8,393-284.5,393z"/>
    <path d="M-284.5,395h11c0.3,0,0.5-0.2,0.5-0.5s-0.2-0.5-0.5-0.5h-11c-0.3,0-0.5,0.2-0.5,0.5S-284.8,395-284.5,395z"/>
    <path d="M-265.5,402h-16c-0.3,0-0.5,0.2-0.5,0.5s0.2,0.5,0.5,0.5h16c0.3,0,0.5-0.2,0.5-0.5S-265.2,402-265.5,402z"/>
    <path d="M-265.5,404h-19c-0.3,0-0.5,0.2-0.5,0.5s0.2,0.5,0.5,0.5h19c0.3,0,0.5-0.2,0.5-0.5S-265.2,404-265.5,404z"/>
    <path d="M-269.5,406h-15c-0.3,0-0.5,0.2-0.5,0.5s0.2,0.5,0.5,0.5h15c0.3,0,0.5-0.2,0.5-0.5S-269.2,406-269.5,406z"/>
    <circle cx="-286.5" cy="398.5" r="0.5"/>
    <circle cx="-284.5" cy="398.5" r="0.5"/>
    <circle cx="-282.5" cy="398.5" r="0.5"/>
    <circle cx="-280.5" cy="398.5" r="0.5"/>
    <circle cx="-278.5" cy="398.5" r="0.5"/>
    <circle cx="-276.5" cy="398.5" r="0.5"/>
    <circle cx="-274.5" cy="398.5" r="0.5"/>
    <circle cx="-272.5" cy="398.5" r="0.5"/>
    <circle cx="-270.5" cy="398.5" r="0.5"/>
    <circle cx="-268.5" cy="398.5" r="0.5"/>
    <circle cx="-266.5" cy="398.5" r="0.5"/>
    <circle cx="-264.5" cy="398.5" r="0.5"/>
    <circle cx="-262.5" cy="398.5" r="0.5"/>
  </g>
</svg>