<svg class="cs-custom-icon" version="1.1" xmlns="http://www.w3.org/2000/svg" xmlns:xlink="http://www.w3.org/1999/xlink" x="0px" y="0px" viewBox="-290 382 30 30" enable-background="new -290 382 30 30" xml:space="preserve">
  <g>
	<path d="M-264.3,401.9c-0.1-0.3-0.4-0.4-0.6-0.5c-0.1,0-0.1,0-0.2-0.1c0-0.2,0-0.4,0-0.5c0.5-0.4,0.5-1.3,0.5-1.9c0-0.9-1.8-1.9-2.5-2.3c0-2.2-0.2-3.3-0.5-3.9c0-0.4,0-0.9-0.3-1.3c0.8-1,1.6-2.6,1.5-3.9c-0.1-0.6-0.4-1.2-0.8-1.5c-1.6-1.1-4.1-0.2-5.2,0.3c-0.1-0.1-0.1-0.2-0.2-0.2c-0.3-0.4-0.7-0.8-1.1-1.1h-0.1c-1.7-0.6-3.8,0.4-7.5,3.6c-3.8,3.2-4.2,5.9-4.2,6.9c0,0.8,0.3,1.3,0.5,1.7c-0.3,0.5-0.5,1.2-0.5,1.8c0,1.3,0.7,2.4,1.8,3.1c0.5,0.3,1,0.4,1.6,0.4c0.7,2,2.7,6.7,9.1,6.7c0.7,0,1.4,0,2.1-0.2c1.7-0.2,4.2-1.4,6.4-5.8C-264.3,402.7-264.1,402.3-264.3,401.9z M-266,401.7v0.2l0.1,0.1l0,0c-0.7,0.5-1.7,1.3-2.3,1.5c-1.5,0.4-4.1,0.3-4.6-0.4c-0.1-0.1-0.2-0.3,0.2-0.8c0.3-0.4,0.9-0.5,2-0.6c1.2-0.1,2.8-0.2,4.6-1.1l0,0C-266,401-266,401.4-266,401.7z M-265.5,399c0,0.1,0,0.1,0,0.2c-2.1,1.3-3.8,1.4-5.2,1.5c-1.2,0.1-2.2,0.1-2.7,1c-0.6,0.9-0.4,1.6-0.1,2c0.6,0.8,2,1.1,3.3,1.1c0.9,0,1.8-0.1,2.4-0.3c0.4-0.1,1.4-0.7,2.2-1.3c-0.3,0.6-0.6,1.1-1,1.6c-0.5,0.3-2.7,1.7-4.4,1.7c-2,0-3.4-1.1-4.3-3.2c-0.6-1.4,0.7-2.9,1.5-3.4l0.6-0.3l-0.5-0.5c-0.8-0.8-0.9-1.1-1.2-1.5c-0.1-0.1-0.1-0.3-0.2-0.4c-0.4-0.6-0.5-1.3-0.3-1.8c0.2-0.6,0.8-1,1.5-1.2c0.8-0.2,1.2-0.1,1.7,0.1c0.3,0.1,0.7,0.2,1.2,0.2s0.8-0.3,1.1-0.5c0.3-0.3,0.7-0.5,1.6-0.5c0.1,0.2,0.2,0.6,0.2,1.6c-0.1-0.1-0.3-0.1-0.5-0.1c-0.6,0-1,0.4-1,1s0.4,1,1,1c0.2,0,0.3-0.1,0.5-0.2c0,0.1,0,0.1,0,0.2v0.3l0.3,0.1C-266.6,398-265.6,398.8-265.5,399zM-267.8,386.9c0.2,0.2,0.4,0.4,0.4,0.8c0.1,0.9-0.6,2.3-1.2,3.1c-1.3-1.1-2.8-1.7-5.5-1.3c-2.8,0.5-5.9,4.4-7,6.1c-0.2-0.1-0.5-0.1-0.7-0.1c2.6-4.3,4.3-5.4,9.5-8.1C-270.9,386.7-268.9,386.2-267.8,386.9z M-280.7,389.4c3.2-2.8,5.2-3.8,6.5-3.4c0.3,0.2,0.6,0.5,0.9,0.8c0,0,0,0,0,0.1c-5.2,2.6-6.8,3.9-9.7,8.8c-0.1,0-0.3,0.1-0.4,0.1c-0.4,0.2-0.6,0.3-0.9,0.6c-0.1-0.2-0.2-0.5-0.2-0.9C-284.5,394.8-284.2,392.4-280.7,389.4z M-271.1,408c-7,1-9.2-3.3-10.1-5.6c0.4-0.1,0.8-0.3,1.2-0.5l-0.4-0.9c-0.9,0.6-1.9,0.6-2.8,0.2c-0.8-0.5-1.3-1.3-1.3-2.2c0-1,0.6-1.9,1.5-2.3c0.9-0.4,2-0.2,3,0.5c-0.6-0.3-1.3-0.3-1.9,0c-0.7,0.4-1.1,1.1-1.1,1.8s0.4,1.3,0.9,1.7c0.4,0.2,0.7,0.3,1.1,0.3c0.3,0,0.7-0.1,1-0.2l-0.4-0.9c-0.5,0.2-0.9,0.1-1.1,0c-0.3-0.2-0.5-0.6-0.5-0.9c0-0.4,0.2-0.7,0.5-0.9c0.4-0.2,0.8-0.1,1.2,0.1l0.6-0.8c0,0,0,0-0.1,0l0.6-0.7c-0.3-0.3-0.6-0.5-0.9-0.6c1.1-1.7,3.9-5.1,6.2-5.5c2.9-0.5,4,0.3,5.1,1.4c0.2,0.2,0.3,0.4,0.3,0.7c-1.1,0.1-1.6,0.4-2,0.7c-0.2,0.2-0.3,0.3-0.5,0.3c-0.3,0-0.6-0.1-0.9-0.1c-0.5-0.2-1.2-0.3-2.2-0.1s-1.8,0.9-2.1,1.8c-0.2,0.6-0.4,1.6,0.3,2.7c0.1,0.1,0.2,0.3,0.2,0.4c0.2,0.4,0.4,0.7,0.9,1.3c-1.1,0.9-2.1,2.6-1.4,4.3c1.3,3.2,3.5,3.8,5.2,3.8c0.7,0,1.5-0.2,2.3-0.5C-269.6,407.6-270.4,407.9-271.1,408z"/>
	<circle cx="-272" cy="397" r="1"/>
	<circle cx="-269.5" cy="398.5" r="0.5"/>
	<circle cx="-268.5" cy="398.5" r="0.5"/>
  </g>
</svg>