<svg class="cs-custom-icon" version="1.1" xmlns="http://www.w3.org/2000/svg" xmlns:xlink="http://www.w3.org/1999/xlink" x="0px" y="0px" viewBox="-290 382 30 30" enable-background="new -290 382 30 30" xml:space="preserve">
  <g>
    <path d="M-264,386h-22c-0.6,0-1,0.4-1,1v1v18v1c0,0.6,0.4,1,1,1h22c0.6,0,1-0.4,1-1v-20C-263,386.4-263.4,386-264,386z M-286,387h22v1h-22V387z M-286,389h22v16h-22V389z M-286,407v-1h22v1H-286z M-264,407.5V407l0,0V407.5z"/>
    <polygon points="-265.4,389.6 -267,391.3 -268.6,389.6 -269.4,390.4 -267.7,392 -269.4,393.6 -268.6,394.4 -267,392.7 -265.4,394.4 -264.6,393.6 -266.3,392 -264.6,390.4 	"/>
    <path d="M-272,391h-6c-0.6,0-1,0.4-1,1v10c0,0.6,0.4,1,1,1h6c0.6,0,1-0.4,1-1v-10C-271,391.4-271.5,391-272,391z M-272,394.8c-0.3,0.1-0.7,0.2-1,0.2c-1.8,0-3.2-1.3-3.5-3h4.5V394.8z M-277.5,392c0.3,2.2,2.1,4,4.5,4c0.3,0,0.7,0,1-0.1v2.4l-0.8-0.8c-0.4-0.4-1-0.4-1.4,0l-1.3,1.3l-2.5-2.5V392H-277.5z M-278,397.7l4.3,4.3h-4.3V397.7z M-272.3,402l-2.5-2.5l1.3-1.3l1.5,1.5v2.3H-272.3z M-272,402.5V402l0,0V402.5z"/>
  </g>
</svg>