<svg class="cs-custom-icon" version="1.1" xmlns="http://www.w3.org/2000/svg" xmlns:xlink="http://www.w3.org/1999/xlink" x="0px" y="0px" viewBox="-290 382 30 30" enable-background="new -290 382 30 30" xml:space="preserve">
  <g>
    <path d="M-267.5,385h-15c-0.8,0-1.5,0.7-1.5,1.5v5.3v1.2v14.5c0,0.8,0.7,1.5,1.5,1.5h15c0.8,0,1.5-0.7,1.5-1.5V393v-5v-1.5C-266,385.7-266.7,385-267.5,385z M-267,386.5v2.2c-0.1,0.1-0.2,0.1-0.3,0.1c-0.1,0-0.1,0.1-0.2,0.1s-0.2,0-0.2,0c-0.7,0.1-1.3-0.1-1.7-0.5s-0.6-1.1-0.6-1.7c0-0.1,0-0.2,0-0.2c0-0.1,0-0.2,0.1-0.2c0-0.1,0.1-0.2,0.1-0.3h2.2C-267.2,386-267,386.2-267,386.5z M-283,386.5c0-0.3,0.2-0.5,0.5-0.5h11.7c-0.1,0.3-0.2,0.7-0.2,1c0,1.7,1.3,3,3,3c0.3,0,0.7-0.1,1-0.2v2.2h-2.3l-2.6-2.6c-0.6-0.6-1.5-0.6-2.1,0l-1.2,1.2l-2.7-2.7c-0.6-0.6-1.5-0.6-2.1,0l-3,2.9V386.5zM-279.4,388.6c0.2-0.2,0.5-0.2,0.7,0l3.4,3.4l1.9-1.9c0.2-0.2,0.5-0.2,0.7,0l1.9,1.9h-12L-279.4,388.6z M-267,407.5c0,0.3-0.2,0.5-0.5,0.5h-15c-0.3,0-0.5-0.2-0.5-0.5V393h13.3h1.4h1.3V407.5z"/>
    <path d="M-269.5,394h-8c-0.3,0-0.5,0.2-0.5,0.5s0.2,0.5,0.5,0.5h8c0.3,0,0.5-0.2,0.5-0.5S-269.2,394-269.5,394z"/>
    <path d="M-269.5,396h-11c-0.3,0-0.5,0.2-0.5,0.5s0.2,0.5,0.5,0.5h11c0.3,0,0.5-0.2,0.5-0.5S-269.2,396-269.5,396z"/>
    <path d="M-269.5,398h-11c-0.3,0-0.5,0.2-0.5,0.5s0.2,0.5,0.5,0.5h11c0.3,0,0.5-0.2,0.5-0.5S-269.2,398-269.5,398z"/>
    <path d="M-271.5,401c0.3,0,0.5-0.2,0.5-0.5s-0.2-0.5-0.5-0.5h-9c-0.3,0-0.5,0.2-0.5,0.5s0.2,0.5,0.5,0.5H-271.5z"/>
    <path d="M-270.5,403h-9c-0.8,0-1.5,0.7-1.5,1.5v1c0,0.8,0.7,1.5,1.5,1.5h9c0.8,0,1.5-0.7,1.5-1.5v-1C-269,403.7-269.7,403-270.5,403z M-270,405.5c0,0.3-0.2,0.5-0.5,0.5h-9c-0.3,0-0.5-0.2-0.5-0.5v-1c0-0.3,0.2-0.5,0.5-0.5h9c0.3,0,0.5,0.2,0.5,0.5V405.5z"/>
  </g>
</svg>