<svg class="cs-custom-icon" version="1.1" xmlns="http://www.w3.org/2000/svg" xmlns:xlink="http://www.w3.org/1999/xlink" x="0px" y="0px" viewBox="-290 382 30 30" enable-background="new -290 382 30 30" xml:space="preserve">
  <g>
    <path d="M-269,393.3V390l0,0l0,0c0-3.3-2.7-6-6-6s-6,2.7-6,6v3.3c-1.8,1.6-3,4-3,6.7c0,5,4,9,9,9s9-4,9-9C-266,397.3-267.2,395-269,393.3z M-280,390c0-2.8,2.2-5,5-5s5,2.2,5,5.1v2.4c-1.4-1-3.2-1.5-5-1.5s-3.6,0.6-5,1.5V390z M-275,408c-4.4,0-8-3.6-8-8s3.6-8,8-8s8,3.6,8,8S-270.6,408-275,408z"/>
    <path d="M-275,397c-1.7,0-3,1.3-3,3c0,1.3,0.8,2.4,2,2.8v3.2h2v-3.2c1.2-0.4,2-1.5,2-2.8C-272,398.3-273.3,397-275,397z M-275,402c-1.1,0-2-0.9-2-2s0.9-2,2-2s2,0.9,2,2S-273.9,402-275,402z"/>
  </g>
</svg>