<svg class="cs-custom-icon" version="1.1" xmlns="http://www.w3.org/2000/svg" xmlns:xlink="http://www.w3.org/1999/xlink" x="0px" y="0px" viewBox="-290 382 30 30" enable-background="new -290 382 30 30" xml:space="preserve">
  <g>
    <polygon points="-269.4,400.4 -267.2,402.5 -269.4,404.6 -268.6,405.4 -265.8,402.5 -268.6,399.6 	"/>
    <polygon points="-281.4,399.6 -284.2,402.5 -281.4,405.4 -280.6,404.6 -282.8,402.5 -280.6,400.4 	"/>
    <rect x="-273" y="398.9" transform="matrix(0.9487 0.3162 -0.3162 0.9487 113.1446 106.7969)" width="1" height="6.3"/>
    <path d="M-283.5,397c0.3,0,0.5-0.2,0.5-0.5V393h1v3.5c0,0.3,0.2,0.5,0.5,0.5s0.5-0.2,0.5-0.5v-7c0-0.3-0.2-0.5-0.5-0.5s-0.5,0.2-0.5,0.5v2.5h-1v-2.5c0-0.3-0.2-0.5-0.5-0.5s-0.5,0.2-0.5,0.5v7C-284,396.8-283.8,397-283.5,397z"/>
    <path d="M-277.5,389h-2c-0.3,0-0.5,0.2-0.5,0.5s0.2,0.5,0.5,0.5h0.5v6.5c0,0.3,0.2,0.5,0.5,0.5s0.5-0.2,0.5-0.5V390h0.5c0.3,0,0.5-0.2,0.5-0.5S-277.2,389-277.5,389z"/>
    <path d="M-268.5,397h2c0.3,0,0.5-0.2,0.5-0.5s-0.2-0.5-0.5-0.5h-1.5v-6.5c0-0.3-0.2-0.5-0.5-0.5s-0.5,0.2-0.5,0.5v7C-269,396.8-268.8,397-268.5,397z"/>
    <path d="M-264,386h-22c-0.6,0-1,0.4-1,1v20c0,0.6,0.4,1,1,1h22c0.6,0,1-0.4,1-1v-20C-263,386.4-263.4,386-264,386z M-286,407v-20h22v20H-286z M-264,407.5V407l0,0V407.5z"/>
    <path d="M-272.5,389c-0.4,0-0.7,0.2-1,0.4c-0.3-0.2-0.6-0.4-1-0.4c-0.8,0-1.5,0.7-1.5,1.5v6c0,0.3,0.2,0.5,0.5,0.5s0.5-0.2,0.5-0.5v-6c0-0.3,0.2-0.5,0.5-0.5s0.5,0.2,0.5,0.5v6c0,0.3,0.2,0.5,0.5,0.5s0.5-0.2,0.5-0.5v-6c0-0.3,0.2-0.5,0.5-0.5s0.5,0.2,0.5,0.5v6c0,0.3,0.2,0.5,0.5,0.5s0.5-0.2,0.5-0.5v-6C-271,389.7-271.7,389-272.5,389z"/>
  </g>
</svg>