<svg class="cs-custom-icon" version="1.1" xmlns="http://www.w3.org/2000/svg" xmlns:xlink="http://www.w3.org/1999/xlink" x="0px" y="0px" viewBox="-290 382 30 30" enable-background="new -290 382 30 30" xml:space="preserve">
  <g>
    <path d="M-274,394.5c0-0.3-0.2-0.5-0.5-0.5h-7c-0.3,0-0.5,0.2-0.5,0.5s0.2,0.5,0.5,0.5h7C-274.2,395-274,394.8-274,394.5z"/>
    <path d="M-274.5,389h-7c-0.3,0-0.5,0.2-0.5,0.5s0.2,0.5,0.5,0.5h7c0.3,0,0.5-0.2,0.5-0.5S-274.2,389-274.5,389z"/>
    <path d="M-281.5,400h4c0.3,0,0.5-0.2,0.5-0.5s-0.2-0.5-0.5-0.5h-4c-0.3,0-0.5,0.2-0.5,0.5S-281.8,400-281.5,400z"/>
    <path d="M-281.5,405h5c0.3,0,0.5-0.2,0.5-0.5s-0.2-0.5-0.5-0.5h-5c-0.3,0-0.5,0.2-0.5,0.5S-281.8,405-281.5,405z"/>
    <path d="M-265.5,407c-0.3,0-0.5,0.2-0.5,0.5v1c0,0.3-0.2,0.5-0.5,0.5h-17c-0.3,0-0.5-0.2-0.5-0.5v-23c0-0.3,0.2-0.5,0.5-0.5h11.5v4.5c0,0.8,0.7,1.5,1.5,1.5h4.5v2.5c0,0.3,0.2,0.5,0.5,0.5s0.5-0.2,0.5-0.5v-2.8c0-0.3-0.1-0.5-0.3-0.7l-5.7-5.7c-0.2-0.2-0.5-0.3-0.7-0.3h-11.8c-0.8,0-1.5,0.7-1.5,1.5v23c0,0.8,0.7,1.5,1.5,1.5h17c0.8,0,1.5-0.7,1.5-1.5v-1C-265,407.2-265.2,407-265.5,407z M-266.6,390h-3.9c-0.3,0-0.5-0.2-0.5-0.5v-3.9L-266.6,390z"/>
    <path d="M-269.5,394c-3.6,0-6.5,2.9-6.5,6.5s2.9,6.5,6.5,6.5s6.5-2.9,6.5-6.5S-265.9,394-269.5,394z M-269.5,406c-3,0-5.5-2.5-5.5-5.5s2.5-5.5,5.5-5.5s5.5,2.5,5.5,5.5S-266.5,406-269.5,406z"/>
    <path d="M-266.5,400h-2.5v-3.5c0-0.3-0.2-0.5-0.5-0.5s-0.5,0.2-0.5,0.5v4c0,0.3,0.2,0.5,0.5,0.5h3c0.3,0,0.5-0.2,0.5-0.5S-266.2,400-266.5,400z"/>
  </g>
</svg>