<svg class="cs-custom-icon" version="1.1" xmlns="http://www.w3.org/2000/svg" xmlns:xlink="http://www.w3.org/1999/xlink" x="0px" y="0px" viewBox="-290 382 30 30" enable-background="new -290 382 30 30" xml:space="preserve">
  <g>
    <path d="M-263,385h-24c-0.6,0-1,0.4-1,1v3c0,0.6,0.4,1,1,1h24c0.6,0,1-0.4,1-1v-3C-262,385.4-262.4,385-263,385zM-287,389v-3h24v3H-287z M-263,389.5V389l0,0V389.5z"/>
    <path d="M-263,391h-24c-0.6,0-1,0.4-1,1v3c0,0.6,0.4,1,1,1h24c0.6,0,1-0.4,1-1v-3C-262,391.4-262.4,391-263,391zM-287,395v-3h24v3H-287z M-263,395.5V395l0,0V395.5z"/>
    <path d="M-263,397h-24c-0.6,0-1,0.4-1,1v3c0,0.6,0.4,1,1,1h24c0.6,0,1-0.4,1-1v-3C-262,397.4-262.4,397-263,397zM-287,401v-3h24v3H-287z M-263,401.5V401l0,0V401.5z"/>
    <path d="M-263,403h-24c-0.6,0-1,0.4-1,1v3c0,0.6,0.4,1,1,1h24c0.6,0,1-0.4,1-1v-3C-262,403.4-262.4,403-263,403zM-287,407v-3h24v3H-287z M-263,407.5V407l0,0V407.5z"/>
    <path d="M-267.5,387h-18c-0.3,0-0.5,0.2-0.5,0.5s0.2,0.5,0.5,0.5h18c0.3,0,0.5-0.2,0.5-0.5S-267.2,387-267.5,387z"/>
    <path d="M-278.5,393h-7c-0.3,0-0.5,0.2-0.5,0.5s0.2,0.5,0.5,0.5h7c0.3,0,0.5-0.2,0.5-0.5S-278.2,393-278.5,393z"/>
    <path d="M-272.5,399h-13c-0.3,0-0.5,0.2-0.5,0.5s0.2,0.5,0.5,0.5h13c0.3,0,0.5-0.2,0.5-0.5S-272.2,399-272.5,399z"/>
    <path d="M-265.5,405h-20c-0.3,0-0.5,0.2-0.5,0.5s0.2,0.5,0.5,0.5h20c0.3,0,0.5-0.2,0.5-0.5S-265.2,405-265.5,405z"/>
  </g>
</svg>