<svg class="cs-custom-icon" version="1.1" xmlns="http://www.w3.org/2000/svg" xmlns:xlink="http://www.w3.org/1999/xlink" x="0px" y="0px" viewBox="-290 382 30 30" enable-background="new -290 382 30 30" xml:space="preserve">
  <g>
    <path d="M-276,386.7v15.8c0,0.3,0.2,0.5,0.5,0.5s0.5-0.2,0.5-0.5v-15.8l2.6,2.6l0.7-0.7l-3.9-3.9l-3.9,3.9l0.7,0.7L-276,386.7z"/>
    <path d="M-267,392h-4.5c-0.3,0-0.5,0.2-0.5,0.5s0.2,0.5,0.5,0.5h4.5v15h-17v-15h4.5c0.3,0,0.5-0.2,0.5-0.5s-0.2-0.5-0.5-0.5h-4.5c-0.3,0-0.5,0.1-0.7,0.3c-0.2,0.2-0.3,0.4-0.3,0.7v15c0,0.5,0.4,1,1,1h17c0.5,0,1-0.4,1-1v-15C-266,392.5-266.5,392-267,392z"/>
  </g>
</svg>