<svg class="cs-custom-icon" version="1.1" xmlns="http://www.w3.org/2000/svg" xmlns:xlink="http://www.w3.org/1999/xlink" x="0px" y="0px" viewBox="-290 382 30 30" enable-background="new -290 382 30 30" xml:space="preserve">
  <g>
    <path d="M-280.7,398.3c-0.6-1-0.4-2.2,0.4-3l2.3-2.3v-3h-3.5l-3.1,3.1c-2.1,2.1-2.1,5.6,0,7.8l1.6,1.6V399h2.8L-280.7,398.3z M-284,398v2c-1.6-1.8-1.6-4.5,0.1-6.2l2.8-2.8h2.1v1.5l-2,2c-0.9,0.9-1.2,2.3-0.9,3.5H-284z"/>
    <path d="M-277,391.8l0.7-0.4c1-0.5,2.2-0.4,3,0.4l2.3,2.2h3v-3.5l-3.1-3.1c-1-1-2.4-1.6-3.9-1.6s-2.9,0.6-3.9,1.6l-1.6,1.6h3.5V391.8z M-278,388c0.8-0.8,1.9-1.2,3-1.2c1.2,0,2.3,0.5,3.2,1.3l2.8,2.9v2h-1.5l-2-2c-0.9-0.9-2.3-1.2-3.5-0.9V388H-278z"/>
    <path d="M-265.4,393.1l-1.6-1.6v3.5h-2.8l0.4,0.7c0.6,1,0.4,2.2-0.4,3l-2.2,2.3v3h3.4l3.1-3.1c1-1,1.6-2.4,1.6-3.9C-263.8,395.5-264.4,394.1-265.4,393.1z M-266.1,400.2l-2.9,2.8h-2v-1.5l2-2c0.9-0.9,1.2-2.3,0.9-3.5h2.1v-2c0.8,0.8,1.2,1.9,1.2,3C-264.8,398.2-265.3,399.3-266.1,400.2z"/>
    <path d="M-273,402.2l-0.7,0.4c-1,0.5-2.2,0.4-3-0.4l-2.3-2.2h-3v3.5l3.1,3.1c1,1,2.4,1.6,3.9,1.6s2.8-0.6,3.9-1.6l1.6-1.6h-3.5V402.2z M-272,406c-0.8,0.8-1.9,1.2-3,1.2c-1.2,0-2.3-0.5-3.2-1.3l-2.8-2.9v-2h1.5l2,2c0.9,0.9,2.3,1.2,3.5,0.9v2.1H-272z"/>
  </g>
</svg>