<svg class="cs-custom-icon" version="1.1" xmlns="http://www.w3.org/2000/svg" xmlns:xlink="http://www.w3.org/1999/xlink" x="0px" y="0px" viewBox="-290 382 30 30" enable-background="new -290 382 30 30" xml:space="preserve">
  <g>
    <path d="M-280.5,388c-0.8,0-1.5,0.7-1.5,1.5s0.7,1.5,1.5,1.5s1.5-0.7,1.5-1.5S-279.7,388-280.5,388z M-280.5,390c-0.3,0-0.5-0.2-0.5-0.5s0.2-0.5,0.5-0.5s0.5,0.2,0.5,0.5S-280.2,390-280.5,390z"/>
    <path d="M-280.5,393c-0.8,0-1.5,0.7-1.5,1.5s0.7,1.5,1.5,1.5s1.5-0.7,1.5-1.5S-279.7,393-280.5,393z M-280.5,395c-0.3,0-0.5-0.2-0.5-0.5s0.2-0.5,0.5-0.5s0.5,0.2,0.5,0.5S-280.2,395-280.5,395z"/>
    <path d="M-268.5,394h-9c-0.3,0-0.5,0.2-0.5,0.5s0.2,0.5,0.5,0.5h9c0.3,0,0.5-0.2,0.5-0.5S-268.2,394-268.5,394z"/>
    <path d="M-277.5,390h3c0.3,0,0.5-0.2,0.5-0.5s-0.2-0.5-0.5-0.5h-3c-0.3,0-0.5,0.2-0.5,0.5S-277.8,390-277.5,390z"/>
    <path d="M-280.5,398c-0.8,0-1.5,0.7-1.5,1.5s0.7,1.5,1.5,1.5s1.5-0.7,1.5-1.5S-279.7,398-280.5,398z M-280.5,400c-0.3,0-0.5-0.2-0.5-0.5s0.2-0.5,0.5-0.5s0.5,0.2,0.5,0.5S-280.2,400-280.5,400z"/>
    <path d="M-268.5,399h-9c-0.3,0-0.5,0.2-0.5,0.5s0.2,0.5,0.5,0.5h9c0.3,0,0.5-0.2,0.5-0.5S-268.2,399-268.5,399z"/>
    <path d="M-280.5,403c-0.8,0-1.5,0.7-1.5,1.5s0.7,1.5,1.5,1.5s1.5-0.7,1.5-1.5S-279.7,403-280.5,403z M-280.5,405c-0.3,0-0.5-0.2-0.5-0.5s0.2-0.5,0.5-0.5s0.5,0.2,0.5,0.5S-280.2,405-280.5,405z"/>
    <path d="M-268.5,404h-9c-0.3,0-0.5,0.2-0.5,0.5s0.2,0.5,0.5,0.5h9c0.3,0,0.5-0.2,0.5-0.5S-268.2,404-268.5,404z"/>
    <path d="M-265.3,390l-5.7-5.7c-0.2-0.2-0.5-0.3-0.7-0.3h-11.8c-0.8,0-1.5,0.7-1.5,1.5v23c0,0.8,0.7,1.5,1.5,1.5h17c0.8,0,1.5-0.7,1.5-1.5v-17.8C-265,390.5-265.1,390.2-265.3,390z M-271,385.6l4.4,4.4h-3.9c-0.3,0-0.5-0.2-0.5-0.5V385.6zM-266.5,409h-17c-0.3,0-0.5-0.2-0.5-0.5v-23c0-0.3,0.2-0.5,0.5-0.5h11.5v4.5c0,0.8,0.7,1.5,1.5,1.5h4.5v17.5C-266,408.8-266.2,409-266.5,409z"/>
  </g>
</svg>