<svg class="cs-custom-icon" version="1.1" xmlns="http://www.w3.org/2000/svg" xmlns:xlink="http://www.w3.org/1999/xlink" x="0px" y="0px" viewBox="-290 382 30 30" enable-background="new -290 382 30 30" xml:space="preserve">
  <g><path d="M-268.8,411h-12.5c-2.6,0-4.7-2.1-4.7-4.7v-18.7c0-2.6,2.1-4.7,4.7-4.7h12.5c2.6,0,4.7,2.1,4.7,4.7v18.7C-264.2,408.9-266.2,411-268.8,411z M-281.3,384c-2,0-3.6,1.7-3.6,3.6v18.7c0,2,1.7,3.6,3.6,3.6h12.5c2,0,3.6-1.7,3.6-3.6v-18.7c0-2-1.7-3.6-3.6-3.6H-281.3z"/></g>
  <g><path d="M-277.2,393.3c-0.2,0-0.4-0.1-0.5-0.3l-2.1-5.2c-0.1-0.3,0-0.5,0.3-0.6c0.3-0.1,0.5,0,0.6,0.3l2.1,5.2c0.1,0.3,0,0.5-0.3,0.6C-277.1,393.3-277.1,393.3-277.2,393.3z"/></g>
  <g><path d="M-277.2,393.3c-0.1,0-0.2,0-0.2-0.1c-0.2-0.1-0.3-0.4-0.2-0.7l2.1-4.2c0.1-0.2,0.4-0.3,0.7-0.2s0.3,0.4,0.2,0.7l-2.1,4.2C-276.7,393.2-277,393.3-277.2,393.3z"/></g>
  <g><path d="M-273,393.3c-0.2,0-0.4-0.1-0.4-0.3l-2.1-4.2c-0.1-0.2,0-0.5,0.2-0.7c0.2-0.2,0.5,0,0.7,0.2l2.1,4.2c0.1,0.2,0,0.5-0.2,0.7C-272.8,393.3-272.9,393.3-273,393.3z"/></g>
  <g><path d="M-273,393.3c-0.1,0-0.1,0-0.2,0c-0.3-0.1-0.4-0.4-0.3-0.6l2.1-5.2c0.1-0.3,0.4-0.4,0.6-0.3c0.2,0.1,0.4,0.4,0.3,0.6l-2.1,5.2C-272.6,393.2-272.8,393.3-273,393.3z"/></g>
  <g><path d="M-277.2,406.8c-0.2,0-0.4-0.1-0.5-0.3l-2.1-5.2c-0.1-0.3,0-0.5,0.3-0.6c0.3-0.1,0.5,0,0.6,0.3l2.1,5.2c0.1,0.3,0,0.5-0.3,0.6C-277.1,406.8-277.1,406.8-277.2,406.8z"/></g>
  <g><path d="M-277.2,406.8c-0.1,0-0.2,0-0.2-0.1c-0.2-0.1-0.3-0.4-0.2-0.7l2.1-4.2c0.1-0.2,0.4-0.3,0.7-0.2s0.3,0.4,0.2,0.7l-2.1,4.2C-276.7,406.7-277,406.8-277.2,406.8z"/></g>
  <g><path d="M-273,406.8c-0.2,0-0.4-0.1-0.4-0.3l-2.1-4.2c-0.1-0.2,0-0.5,0.2-0.7c0.2-0.2,0.5,0,0.7,0.2l2.1,4.2c0.1,0.2,0,0.5-0.2,0.7C-272.8,406.8-272.9,406.8-273,406.8z"/></g>
  <g><path d="M-273,406.8c-0.1,0-0.1,0-0.2,0c-0.3-0.1-0.4-0.4-0.3-0.6l2.1-5.2c0.1-0.3,0.4-0.4,0.6-0.3c0.2,0.1,0.4,0.4,0.3,0.6l-2.1,5.2C-272.6,406.7-272.8,406.8-273,406.8z"/></g>
  <g><path d="M-264.7,397.5h-20.8c-0.3,0-0.5-0.2-0.5-0.5s0.2-0.5,0.5-0.5h20.8c0.3,0,0.5,0.2,0.5,0.5S-264.4,397.5-264.7,397.5z"/></g>
</svg>