<svg class="cs-custom-icon" version="1.1" xmlns="http://www.w3.org/2000/svg" xmlns:xlink="http://www.w3.org/1999/xlink" x="0px" y="0px" viewBox="-290 382 30 30" enable-background="new -290 382 30 30" xml:space="preserve">
  <g>
    <path d="M-287,397h10c0.6,0,1-0.4,1-1v-8c0-0.6-0.4-1-1-1h-10c-0.6,0-1,0.4-1,1v8C-288,396.6-287.6,397-287,397zM-277,396v0.5V396L-277,396z M-287,388h10v8h-10V388z"/>
    <path d="M-281,399h-6c-0.6,0-1,0.4-1,1v5c0,0.6,0.4,1,1,1h6c0.6,0,1-0.4,1-1v-5C-280,399.4-280.4,399-281,399zM-287,405v-5h6v5H-287z M-281,405.5V405l0,0V405.5z"/>
    <path d="M-272,399h-6c-0.6,0-1,0.4-1,1v5c0,0.6,0.4,1,1,1h6c0.6,0,1-0.4,1-1v-5C-271,399.4-271.4,399-272,399zM-278,405v-5h6v5H-278z M-272,405.5V405l0,0V405.5z"/>
    <path d="M-263,399h-6c-0.6,0-1,0.4-1,1v5c0,0.6,0.4,1,1,1h6c0.6,0,1-0.4,1-1v-5C-262,399.4-262.4,399-263,399zM-269,405v-5h6v5H-269z M-263,405.5V405l0,0V405.5z"/>
    <path d="M-263,387h-10c-0.6,0-1,0.4-1,1v8c0,0.6,0.4,1,1,1h10c0.6,0,1-0.4,1-1v-8C-262,387.4-262.4,387-263,387zM-273,396v-8h10v8H-273z M-263,396.5V396l0,0V396.5z"/>
  </g>
</svg>