<svg class="cs-custom-icon" version="1.1" xmlns="http://www.w3.org/2000/svg" xmlns:xlink="http://www.w3.org/1999/xlink" x="0px" y="0px" viewBox="-290 382 30 30" enable-background="new -290 382 30 30" xml:space="preserve">
  <g>
    <path d="M-265.5,401c1.4,0,2.5-1.1,2.5-2.5v-6c0-1.4-1.1-2.5-2.5-2.5h-19c-1.4,0-2.5,1.1-2.5,2.5v6c0,1.4,1.1,2.5,2.5,2.5H-265.5z M-286,398.5v-6c0-0.8,0.7-1.5,1.5-1.5h19c0.8,0,1.5,0.7,1.5,1.5v6c0,0.8-0.7,1.5-1.5,1.5h-19C-285.3,400-286,399.3-286,398.5z"/>
    <path d="M-262.2,400.9c-0.2-0.2-0.5-0.2-0.7,0c-0.7,0.7-1.6,1.1-2.6,1.1h-19c-0.3,0-0.5,0.2-0.5,0.5s0.2,0.5,0.5,0.5h19c1.2,0,2.4-0.5,3.3-1.4C-262,401.4-262,401.1-262.2,400.9z"/>
  </g>
</svg>