<svg class="cs-custom-icon" version="1.1" xmlns="http://www.w3.org/2000/svg" xmlns:xlink="http://www.w3.org/1999/xlink" x="0px" y="0px" viewBox="-290 382 30 30" enable-background="new -290 382 30 30" xml:space="preserve">
  <g>
    <path d="M-265.4,389h-19c-1.4,0-2.5,1.1-2.5,2.5v11c0,1.4,1.1,2.5,2.5,2.5h19c1.4,0,2.5-1.1,2.5-2.5v-11C-262.9,390.1-264,389-265.4,389z M-263.9,402.5c0,0.8-0.7,1.5-1.5,1.5h-19c-0.8,0-1.5-0.7-1.5-1.5v-11c0-0.8,0.7-1.5,1.5-1.5h19c0.8,0,1.5,0.7,1.5,1.5V402.5z"/>
    <path d="M-274,391.5c0-0.3-0.2-0.5-0.5-0.5h-9c-0.3,0-0.5,0.2-0.5,0.5s0.2,0.5,0.5,0.5h9C-274.2,392-274,391.8-274,391.5z"/>
    <path d="M-266.5,394h-14c-0.3,0-0.5,0.2-0.5,0.5s0.2,0.5,0.5,0.5h14c0.3,0,0.5-0.2,0.5-0.5S-266.2,394-266.5,394z"/>
  </g>
  <g>
    <path d="M-266.5,397h-17c-0.3,0-0.5-0.2-0.5-0.5s0.2-0.5,0.5-0.5h17c0.3,0,0.5,0.2,0.5,0.5S-266.2,397-266.5,397z"/>
  </g>
  <g>
    <path d="M-270.5,399h-13c-0.3,0-0.5-0.2-0.5-0.5s0.2-0.5,0.5-0.5h13c0.3,0,0.5,0.2,0.5,0.5S-270.2,399-270.5,399z"/>
  </g>
  <g>
    <path d="M-277,403h-6c-0.6,0-1-0.4-1-1v-1c0-0.6,0.4-1,1-1h6c0.6,0,1,0.4,1,1v1C-276,402.6-276.4,403-277,403zM-277,402v0.5V402L-277,402z M-283,401v1h6v-1H-283z"/>
  </g>
</svg>