<svg class="cs-custom-icon" version="1.1" xmlns="http://www.w3.org/2000/svg" xmlns:xlink="http://www.w3.org/1999/xlink" x="0px" y="0px" viewBox="-290 382 30 30" enable-background="new -290 382 30 30" xml:space="preserve">
  <g>
    <path d="M-276.4,404.4l1.6,1.6h-8.7l0,0c-1.4,0-2.5-1.1-2.5-2.5c0-0.7,0.3-1.5,0.9-1.9c0.2-0.2,0.2-0.5,0.1-0.7c-0.1-0.2-0.5-0.2-0.7-0.1c-0.8,0.7-1.3,1.7-1.3,2.7c0,1.9,1.6,3.5,3.5,3.5l0,0h8.8l-1.6,1.6l0.7,0.7l2.9-2.9l-2.9-2.9L-276.4,404.4z"/>
    <path d="M-277.5,392.5c0,1.4,1.1,2.5,2.5,2.5s2.5-1.1,2.5-2.5s-1.1-2.5-2.5-2.5S-277.5,391.1-277.5,392.5z M-273.5,392.5c0,0.8-0.7,1.5-1.5,1.5s-1.5-0.7-1.5-1.5s0.7-1.5,1.5-1.5S-273.5,391.7-273.5,392.5z"/>
    <path d="M-272,388.5c0-0.3-0.2-0.5-0.5-0.5h-5c-0.3,0-0.5,0.2-0.5,0.5s0.2,0.5,0.5,0.5h5C-272.2,389-272,388.8-272,388.5z"/>
    <path d="M-279,396.5c0,0.3,0.2,0.5,0.5,0.5h9c0.3,0,0.5-0.2,0.5-0.5s-0.2-0.5-0.5-0.5h-9C-278.8,396-279,396.2-279,396.5z"/>
    <path d="M-281,398.5c0,0.3,0.2,0.5,0.5,0.5h11c0.3,0,0.5-0.2,0.5-0.5s-0.2-0.5-0.5-0.5h-11C-280.8,398-281,398.2-281,398.5z"/>
    <path d="M-280.5,401h8c0.3,0,0.5-0.2,0.5-0.5s-0.2-0.5-0.5-0.5h-8c-0.3,0-0.5,0.2-0.5,0.5S-280.8,401-280.5,401z"/>
    <path d="M-264.3,400.8c-0.2-0.2-0.5-0.1-0.7,0.1c-0.2,0.2-0.1,0.5,0.1,0.7c0.6,0.5,0.9,1.2,0.9,1.9c0,1.4-1.1,2.5-2.5,2.5l0,0h-4c-0.3,0-0.5,0.2-0.5,0.5s0.2,0.5,0.5,0.5h4l0,0c1.9,0,3.5-1.6,3.5-3.5C-263,402.5-263.5,401.5-264.3,400.8z"/>
    <path d="M-283,404h4.5c0.3,0,0.5-0.2,0.5-0.5s-0.2-0.5-0.5-0.5h-4.5v-16h16v16h-6.5c-0.3,0-0.5,0.2-0.5,0.5s0.2,0.5,0.5,0.5h6.5c0.6,0,1-0.4,1-1v-16c0-0.6-0.4-1-1-1h-16c-0.6,0-1,0.4-1,1v16C-284,403.6-283.6,404-283,404z"/>
  </g>
</svg>