<svg class="cs-custom-icon" version="1.1" xmlns="http://www.w3.org/2000/svg" xmlns:xlink="http://www.w3.org/1999/xlink" x="0px" y="0px" viewBox="-290 382 30 30" enable-background="new -290 382 30 30" xml:space="preserve">
  <g>
    <path d="M-265,387h-2v-1c0-0.6-0.4-1-1-1h-17c-0.6,0-1,0.4-1,1v3c0,0.6,0.4,1,1,1h2v1c0,0.6,0.4,1,1,1h17c0.6,0,1-0.4,1-1v-3C-264,387.4-264.4,387-265,387z M-285,389v-3h17v1h-14c-0.6,0-1,0.4-1,1v1H-285z M-268,389h-14v-1h14V389zM-268,389v0.5V389L-268,389z M-282,391v-1h14c0.6,0,1-0.4,1-1v-1h2v3H-282z M-265,391.5V391l0,0V391.5z"/>
    <path d="M-265,398h-20c-0.6,0-1,0.4-1,1v3c0,0.6,0.4,1,1,1h20c0.6,0,1-0.4,1-1v-3C-264,398.4-264.4,398-265,398zM-285,402v-3h20v3H-285z M-265,402.5V402l0,0V402.5z"/>
    <path d="M-265,404h-20c-0.6,0-1,0.4-1,1v3c0,0.6,0.4,1,1,1h20c0.6,0,1-0.4,1-1v-3C-264,404.4-264.4,404-265,404zM-285,408v-3h20v3H-285z M-265,408.5V408l0,0V408.5z"/>
    <polygon points="-277.4,393.6 -279.5,395.8 -281.6,393.6 -282.4,394.4 -279.5,397.2 -276.6,394.4   "/>
  </g>
</svg>