<svg class="cs-custom-icon" version="1.1" xmlns="http://www.w3.org/2000/svg" xmlns:xlink="http://www.w3.org/1999/xlink" x="0px" y="0px" viewBox="-290 382 30 30" enable-background="new -290 382 30 30" xml:space="preserve">
  <g>
    <path d="M-279.5,394h5c0.3,0,0.5-0.2,0.5-0.5s-0.2-0.5-0.5-0.5h-5c-0.3,0-0.5,0.2-0.5,0.5S-279.8,394-279.5,394z"/>
    <path d="M-270.5,396h-8c-0.3,0-0.5,0.2-0.5,0.5s0.2,0.5,0.5,0.5h8c0.3,0,0.5-0.2,0.5-0.5S-270.2,396-270.5,396z"/>
    <path d="M-270.5,398h-9.5c-0.3,0-0.5,0.2-0.5,0.5s0.2,0.5,0.5,0.5h9.5c0.3,0,0.5-0.2,0.5-0.5S-270.2,398-270.5,398z"/>
    <path d="M-270.5,400h-9.5c-0.3,0-0.5,0.2-0.5,0.5s0.2,0.5,0.5,0.5h9.5c0.3,0,0.5-0.2,0.5-0.5S-270.2,400-270.5,400z"/>
    <path d="M-265.3,405h1.3v-1h-3v3h1v-1.3l2.1,2.1c0.1,0.1,0.2,0.1,0.4,0.1s0.3,0,0.4-0.1c0.2-0.2,0.2-0.5,0-0.7L-265.3,405z"/>
    <path d="M-264,390v-1h-1.3l2.1-2.1c0.2-0.2,0.2-0.5,0-0.7c-0.2-0.2-0.5-0.2-0.7,0l-2.1,2.1V387h-1v3H-264z"/>
    <path d="M-286,404v1h1.3l-2.1,2.1c-0.2,0.2-0.2,0.5,0,0.7c0,0.2,0.2,0.2,0.3,0.2s0.3,0,0.4-0.1l2.1-2.2v1.3h1v-3H-286z"/>
    <path d="M-284,388.3l-2.1-2.2c-0.2-0.1-0.6-0.1-0.8,0c-0.2,0.1-0.1,0.6,0,0.8l2.2,2.1h-1.3v1h3v-3h-1V388.3z"/>
    <path d="M-269,391h-12c-0.6,0-1,0.4-1,1v10c0,0.6,0.4,1,1,1h12c0.6,0,1-0.4,1-1v-10C-268,391.4-268.4,391-269,391z M-281,402v-10h12v10H-281z M-269,402.5V402l0,0V402.5z"/>
  </g>
</svg>