<svg class="cs-custom-icon" version="1.1" xmlns="http://www.w3.org/2000/svg" xmlns:xlink="http://www.w3.org/1999/xlink" x="0px" y="0px" viewBox="-290 382 30 30" enable-background="new -290 382 30 30" xml:space="preserve">
  <g>
    <path d="M-285.5,389h9c0.3,0,0.5-0.2,0.5-0.5s-0.2-0.5-0.5-0.5h-9c-0.3,0-0.5,0.2-0.5,0.5S-285.8,389-285.5,389z"/>
    <path d="M-264.5,404h-9c-0.3,0-0.5,0.2-0.5,0.5s0.2,0.5,0.5,0.5h9c0.3,0,0.5-0.2,0.5-0.5S-264.2,404-264.5,404z"/>
    <path d="M-270.5,396h-9c-0.3,0-0.5,0.2-0.5,0.5s0.2,0.5,0.5,0.5h9c0.3,0,0.5-0.2,0.5-0.5S-270.2,396-270.5,396z"/>
    <circle cx="-274.5" cy="388.5" r="0.5"/>
    <circle cx="-272.5" cy="388.5" r="0.5"/>
    <circle cx="-270.5" cy="388.5" r="0.5"/>
    <circle cx="-268.5" cy="388.5" r="0.5"/>
    <circle cx="-266.5" cy="388.5" r="0.5"/>
    <circle cx="-264.5" cy="388.5" r="0.5"/>
    <circle cx="-285.5" cy="404.5" r="0.5"/>
    <circle cx="-283.5" cy="404.5" r="0.5"/>
    <circle cx="-281.5" cy="404.5" r="0.5"/>
    <circle cx="-279.5" cy="404.5" r="0.5"/>
    <circle cx="-277.5" cy="404.5" r="0.5"/>
    <circle cx="-275.5" cy="404.5" r="0.5"/>
    <circle cx="-268.5" cy="396.5" r="0.5"/>
    <circle cx="-266.5" cy="396.5" r="0.5"/>
    <circle cx="-264.5" cy="396.5" r="0.5"/>
    <circle cx="-285.5" cy="396.5" r="0.5"/>
    <circle cx="-283.5" cy="396.5" r="0.5"/>
    <circle cx="-281.5" cy="396.5" r="0.5"/>
  </g>
</svg>