<svg class="cs-custom-icon" version="1.1" xmlns="http://www.w3.org/2000/svg" xmlns:xlink="http://www.w3.org/1999/xlink" x="0px" y="0px" viewBox="-290 382 30 30" enable-background="new -290 382 30 30" xml:space="preserve">
  <g>
    <path d="M-282.5,386c-2.5,0-4.5,2-4.5,4.5s2,4.5,4.5,4.5s4.5-2,4.5-4.5S-280,386-282.5,386z M-282.5,394c-1.9,0-3.5-1.6-3.5-3.5s1.6-3.5,3.5-3.5s3.5,1.6,3.5,3.5S-280.6,394-282.5,394z"/>
    <path d="M-275.5,391h12c0.3,0,0.5-0.2,0.5-0.5s-0.2-0.5-0.5-0.5h-0.5v-0.5c0-0.3-0.2-0.5-0.5-0.5s-0.5,0.2-0.5,0.5v0.5h-1v-0.5c0-0.3-0.2-0.5-0.5-0.5s-0.5,0.2-0.5,0.5v0.5h-1v-0.5c0-0.3-0.2-0.5-0.5-0.5s-0.5,0.2-0.5,0.5v0.5h-1v-0.5c0-0.3-0.2-0.5-0.5-0.5s-0.5,0.2-0.5,0.5v0.5h-1v-0.5c0-0.3-0.2-0.5-0.5-0.5s-0.5,0.2-0.5,0.5v0.5h-1v-0.5c0-0.3-0.2-0.5-0.5-0.5s-0.5,0.2-0.5,0.5v0.5h-0.5c-0.3,0-0.5,0.2-0.5,0.5S-275.8,391-275.5,391z"/>
    <path d="M-284,392h3v-3h-3V392z M-283,390h1v1h-1V390z"/>
    <path d="M-282.5,399c-2.5,0-4.5,2-4.5,4.5s2,4.5,4.5,4.5s4.5-2,4.5-4.5S-280,399-282.5,399z M-282.5,407c-1.9,0-3.5-1.6-3.5-3.5s1.6-3.5,3.5-3.5s3.5,1.6,3.5,3.5S-280.6,407-282.5,407z"/>
    <path d="M-263.5,403h-0.5v-0.5c0-0.3-0.2-0.5-0.5-0.5s-0.5,0.2-0.5,0.5v0.5h-1v-0.5c0-0.3-0.2-0.5-0.5-0.5s-0.5,0.2-0.5,0.5v0.5h-1v-0.5c0-0.3-0.2-0.5-0.5-0.5s-0.5,0.2-0.5,0.5v0.5h-1v-0.5c0-0.3-0.2-0.5-0.5-0.5s-0.5,0.2-0.5,0.5v0.5h-1v-0.5c0-0.3-0.2-0.5-0.5-0.5s-0.5,0.2-0.5,0.5v0.5h-1v-0.5c0-0.3-0.2-0.5-0.5-0.5s-0.5,0.2-0.5,0.5v0.5h-0.5c-0.3,0-0.5,0.2-0.5,0.5s0.2,0.5,0.5,0.5h12c0.3,0,0.5-0.2,0.5-0.5S-263.2,403-263.5,403z"/>
    <path d="M-280.5,404.4L-280.5,404.4c0-0.1,0-0.2-0.1-0.2c0,0,0,0,0-0.1l-1.5-2c0,0,0,0-0.1,0c-0.1,0,0,0,0-0.1l0,0h-0.1h-0.1h-0.1h-0.1h-0.1h-0.1l0,0c0,0,0,0,0,0.1s0,0-0.1,0l-1.5,2c0,0,0,0,0,0.1v0.1v0.1c0,0,0,0,0,0.1l0,0v0.1v0.1c0,0,0,0.1,0.1,0.1c0,0,0,0.1,0.1,0.1l0,0l0,0c0,0.1,0.1,0.1,0.2,0.1l0,0l0,0h3l0,0c0.1,0,0.2,0,0.3-0.1l0,0l0,0c0,0,0,0,0.1-0.1c0,0,0,0,0.1-0.1v-0.1C-280.5,404.6-280.5,404.6-280.5,404.4C-280.5,404.5-280.5,404.5-280.5,404.4C-280.5,404.5-280.5,404.5-280.5,404.4z M-282.5,403.3l0.5,0.7h-1L-282.5,403.3z"/>
  </g>
</svg>