<svg class="cs-custom-icon" version="1.1" xmlns="http://www.w3.org/2000/svg" xmlns:xlink="http://www.w3.org/1999/xlink" x="0px" y="0px" viewBox="-290 382 30 30" enable-background="new -290 382 30 30" xml:space="preserve">
  <g>
    <path d="M-275,393.1c2.3,0,4.1-1.8,4.1-4.1s-1.8-4.1-4.1-4.1s-4.1,1.8-4.1,4.1S-277.3,393.1-275,393.1z M-276.5,390.5c0-0.8,0.7-1.5,1.5-1.5s1.5,0.7,1.5,1.5c0,0.6-0.3,1.1-0.8,1.3c-0.2,0.1-0.4,0.1-0.7,0.1s-0.5,0-0.7-0.1C-276.2,391.6-276.5,391.1-276.5,390.5z M-275,386.1c1.6,0,2.9,1.3,2.9,2.9c0,0.5-0.2,1-0.4,1.5c0-1.4-1.1-2.5-2.5-2.5s-2.5,1.1-2.5,2.5c-0.3-0.5-0.4-1-0.4-1.5C-277.9,387.4-276.6,386.1-275,386.1z"/>
    <path d="M-280.5,396h11c0.3,0,0.5-0.2,0.5-0.5s-0.2-0.5-0.5-0.5h-11c-0.3,0-0.5,0.2-0.5,0.5S-280.8,396-280.5,396z"/>
    <path d="M-281.5,400h15c0.3,0,0.5-0.2,0.5-0.5s-0.2-0.5-0.5-0.5h-15c-0.3,0-0.5,0.2-0.5,0.5S-281.8,400-281.5,400z"/>
    <path d="M-266.5,401h-17c-0.3,0-0.5,0.2-0.5,0.5s0.2,0.5,0.5,0.5h17c0.3,0,0.5-0.2,0.5-0.5S-266.2,401-266.5,401z"/>
    <path d="M-266.5,403h-17c-0.3,0-0.5,0.2-0.5,0.5s0.2,0.5,0.5,0.5h17c0.3,0,0.5-0.2,0.5-0.5S-266.2,403-266.5,403z"/>
    <path d="M-266.5,405h-17c-0.3,0-0.5,0.2-0.5,0.5s0.2,0.5,0.5,0.5h17c0.3,0,0.5-0.2,0.5-0.5S-266.2,405-266.5,405z"/>
    <path d="M-270.5,407h-13c-0.3,0-0.5,0.2-0.5,0.5s0.2,0.5,0.5,0.5h13c0.3,0,0.5-0.2,0.5-0.5S-270.2,407-270.5,407z"/>
  </g>
</svg>