<svg class="cs-custom-icon" version="1.1" xmlns="http://www.w3.org/2000/svg" xmlns:xlink="http://www.w3.org/1999/xlink" x="0px" y="0px" viewBox="-290 382 30 30" enable-background="new -290 382 30 30" xml:space="preserve">
  <g>
    <path d="M-262.5,384c-0.3,0-0.5,0.2-0.5,0.5v4.5h-24v-4.5c0-0.3-0.2-0.5-0.5-0.5s-0.5,0.2-0.5,0.5v5.5h26v-5.5C-262,384.2-262.2,384-262.5,384z"/>
    <path d="M-288,409.5c0,0.3,0.2,0.5,0.5,0.5s0.5-0.2,0.5-0.5V408h24v1.5c0,0.3,0.2,0.5,0.5,0.5s0.5-0.2,0.5-0.5V407h-26V409.5z"/>
    <polygon points="-284.6,401.6 -285.4,402.4 -282.5,405.2 -279.6,402.4 -280.4,401.6 -282,403.3 -282,393.7 -280.4,395.4 -279.6,394.6 -282.5,391.8 -285.4,394.6 -284.6,395.4 -283,393.7 -283,403.3  "/>
    <polygon points="-269.6,401.6 -270.4,402.4 -267.5,405.2 -264.6,402.4 -265.4,401.6 -267,403.3 -267,393.7 -265.4,395.4 -264.6,394.6 -267.5,391.8 -270.4,394.6 -269.6,395.4 -268,393.7 -268,403.3  "/>
  </g>
</svg>