<svg class="cs-custom-icon" version="1.1" xmlns="http://www.w3.org/2000/svg" xmlns:xlink="http://www.w3.org/1999/xlink" x="0px" y="0px" viewBox="-290 382 30 30" enable-background="new -290 382 30 30" xml:space="preserve">
  <g>
    <path d="M-270.5,390h1c0.3,0,0.5-0.2,0.5-0.5s-0.2-0.5-0.5-0.5h-1c-0.3,0-0.5,0.2-0.5,0.5S-270.8,390-270.5,390z"/>
    <path d="M-265,389h-0.5c-0.3,0-0.5,0.2-0.5,0.5s0.2,0.5,0.5,0.5h0.5v14.3l-4.1-4.1l0,0l-0.1-0.1c-0.1,0-0.1,0-0.2,0l0,0h-4c-0.3,0-0.5,0.2-0.5,0.5c0,0.3,0.2,0.5,0.5,0.5h3.4v7l-15-0.1v-7h0.5c0.3,0,0.5-0.2,0.5-0.5s-0.2-0.5-0.5-0.5h-0.5c-0.6,0-1,0.4-1,1v7c0,0.3,0.1,0.5,0.3,0.7c0.2,0.2,0.4,0.3,0.7,0.3h15c0.6,0,1-0.4,1-1v-2h4.5c0.1,0,0.1,0,0.2,0c0.1-0.1,0.2-0.1,0.3-0.3c0-0.1,0-0.1,0-0.2V390C-264,389.4-264.4,389-265,389z M-269,405v-3.3l3.3,3.3H-269z"/>
    <path d="M-279,405.3l0.4-0.4c0.2-0.4,6.6-7.9,6.6-12.9c0-3.9-3.1-7-7-7s-7,3.1-7,7c0,5,6.3,12.5,6.6,12.8L-279,405.3z M-279,386c3.3,0,6,2.7,6,6c0,4-4.6,10-6,11.7c-1.4-1.7-6-7.7-6-11.7C-285,388.7-282.3,386-279,386z"/>
    <path d="M-275,392c0-2.2-1.8-4-4-4s-4,1.8-4,4s1.8,4,4,4S-275,394.2-275,392z M-282,392c0-1.7,1.3-3,3-3s3,1.3,3,3s-1.3,3-3,3S-282,393.7-282,392z"/>
    <path d="M-268,387.9v6.6c0,0.3,0.2,0.5,0.5,0.5s0.5-0.2,0.5-0.5v-6.6c0.6-0.2,1-0.8,1-1.4c0-0.8-0.7-1.5-1.5-1.5s-1.5,0.7-1.5,1.5C-269,387.2-268.6,387.7-268,387.9z M-267.5,386c0.3,0,0.5,0.2,0.5,0.5s-0.2,0.5-0.5,0.5s-0.5-0.2-0.5-0.5S-267.8,386-267.5,386z"/>
  </g>
</svg>