<svg class="cs-custom-icon" version="1.1" xmlns="http://www.w3.org/2000/svg" xmlns:xlink="http://www.w3.org/1999/xlink" x="0px" y="0px" viewBox="-290 382 30 30" enable-background="new -290 382 30 30" xml:space="preserve">
  <g>
    <path d="M-266.7,390.2l-6.5-3.8c-1.1-0.6-2.4-0.6-3.5,0l-6.6,3.8c-1.1,0.6-1.7,1.8-1.7,3v7.5c0,1.2,0.7,2.4,1.8,3l6.5,3.8c0.5,0.3,1.1,0.5,1.8,0.5c0.7,0,1.2-0.2,1.8-0.5l6.5-3.8c1.1-0.6,1.8-1.8,1.8-3v-7.5C-265,392-265.6,390.8-266.7,390.2zM-266,400.8c0,0.9-0.5,1.7-1.2,2.2l-6.5,3.8c-0.8,0.4-1.7,0.4-2.5,0l-6.5-3.8c-0.8-0.5-1.3-1.3-1.3-2.2v-7.5c0-0.9,0.5-1.7,1.2-2.2l6.5-3.8c0.4-0.2,0.9-0.3,1.3-0.3s0.9,0.1,1.2,0.3l6.5,3.8c0.8,0.4,1.2,1.3,1.2,2.2v7.5H-266z"/>
    <path d="M-282,398.5v2.5h14v-4h-3v1h-7.9c0.2-1.1,1.2-2,2.4-2h8.5v-3h-8.5C-279.5,393-282,395.5-282,398.5zM-269,395h-7.5c-1.9,0-3.5,1.6-3.5,3.5v0.5h10v-1h1v2h-12v-1.5c0-2.5,2-4.5,4.5-4.5h7.5V395z"/>
  </g>
</svg>