<svg class="cs-custom-icon" version="1.1" xmlns="http://www.w3.org/2000/svg" xmlns:xlink="http://www.w3.org/1999/xlink" x="0px" y="0px" viewBox="-290 382 30 30" enable-background="new -290 382 30 30" xml:space="preserve">
  <g>
    <path d="M-266.5,388h-17c-0.8,0-1.5,0.7-1.5,1.5v15c0,0.8,0.7,1.5,1.5,1.5h17c0.8,0,1.5-0.7,1.5-1.5v-15C-265,388.7-265.7,388-266.5,388z M-266,389.5v2.4c-0.7,0.7-1.6,1.1-2.5,1.1l0,0c-1.9,0-3.5-1.6-3.5-3.5c0-0.2,0-0.3,0.1-0.5h5.4C-266.2,389-266,389.2-266,389.5z M-283.5,389h10.5c0,0.2,0,0.3,0,0.5c0,2.5,2,4.5,4.5,4.5l0,0c0.9,0,1.8-0.3,2.5-0.8v6.1l-2.8-2.8c-0.4-0.4-1-0.4-1.4,0l-2.8,2.8l-4.8-4.8c-0.4-0.4-1-0.4-1.4,0l-4.8,4.8v-9.8C-284,389.2-283.8,389-283.5,389z M-284,404.5v-3.8l5.5-5.5l9.8,9.8h-14.8C-283.8,405-284,404.8-284,404.5z M-266.5,405h-0.8l-5-5l2.8-2.8l3.5,3.5v3.8C-266,404.8-266.2,405-266.5,405z"/>
    <path d="M-265.5,386h-19c-1.4,0-2.5,1.1-2.5,2.5v17c0,1.4,1.1,2.5,2.5,2.5h19c1.4,0,2.5-1.1,2.5-2.5v-17C-263,387.1-264.1,386-265.5,386z M-264,405.5c0,0.8-0.7,1.5-1.5,1.5h-19c-0.8,0-1.5-0.7-1.5-1.5v-17c0-0.8,0.7-1.5,1.5-1.5h19c0.8,0,1.5,0.7,1.5,1.5V405.5z"/>
  </g>
</svg>