<svg class="cs-custom-icon" version="1.1" xmlns="http://www.w3.org/2000/svg" xmlns:xlink="http://www.w3.org/1999/xlink" x="0px" y="0px" viewBox="-290 382 30 30" enable-background="new -290 382 30 30" xml:space="preserve">
  <g>
    <path d="M-265,385h-21v9h21V385z M-266,393h-19v-7h19V393z"/>
    <path d="M-282.5,391h10c0.3,0,0.5-0.2,0.5-0.5s-0.2-0.5-0.5-0.5h-10c-0.3,0-0.5,0.2-0.5,0.5S-282.8,391-282.5,391z"/>
    <path d="M-282.5,403h10c0.3,0,0.5-0.2,0.5-0.5s-0.2-0.5-0.5-0.5h-10c-0.3,0-0.5,0.2-0.5,0.5S-282.8,403-282.5,403z"/>
    <path d="M-269,404.5c0-0.3-0.2-0.5-0.5-0.5h-11c-0.3,0-0.5,0.2-0.5,0.5s0.2,0.5,0.5,0.5h11C-269.2,405-269,404.8-269,404.5z"/>
    <path d="M-282.5,407h11c0.3,0,0.5-0.2,0.5-0.5s-0.2-0.5-0.5-0.5h-11c-0.3,0-0.5,0.2-0.5,0.5S-282.8,407-282.5,407z"/>
    <polygon points="-281.6,395.6 -282.4,396.4 -279.5,399.2 -276.6,396.4 -277.4,395.6 -279.5,397.8 	"/>
    <path d="M-263.1,406.1l-2.2-2.1h1.3v-1h-3v3h1v-1.3l2.1,2.1c0.1,0.1,0.2,0.1,0.4,0.1s0.3,0,0.4-0.1C-263,406.7-263,406.3-263.1,406.1z"/>
    <path d="M-265.5,407c-0.3,0-0.5,0.2-0.5,0.5v0.5h-19v-7h19v0.5c0,0.3,0.2,0.5,0.5,0.5s0.5-0.2,0.5-0.5V400h-21v9h21v-1.5C-265,407.2-265.2,407-265.5,407z"/>
  </g>
</svg>