<svg class="cs-custom-icon" version="1.1" xmlns="http://www.w3.org/2000/svg" xmlns:xlink="http://www.w3.org/1999/xlink" x="0px" y="0px" viewBox="-1388 3226 30 30" style="enable-background:new -1388 3226 30 30;" xml:space="preserve">
  <g>
    <path d="M-1373,3243.2l6.9-6.9c0.3-0.3,0.4-0.7,0.4-1.1c0-0.4-0.2-0.8-0.4-1.1l-5.8-5.8c-0.6-0.6-1.6-0.6-2.2,0l-5.8,5.9c-0.3,0.3-0.4,0.7-0.4,1.1c0,0.4,0.2,0.8,0.4,1.1L-1373,3243.2z M-1379.2,3234.9l5.8-5.8c0.1-0.1,0.3-0.1,0.4-0.1s0.3,0.1,0.4,0.2l5.8,5.8c0.1,0.1,0.2,0.2,0.2,0.4c0,0.1-0.1,0.3-0.2,0.4l-6.2,6l-6.2-6.2c-0.1-0.1-0.1-0.2-0.1-0.3C-1379.3,3235.2-1379.3,3235-1379.2,3234.9z"/>
    <path d="M-1360.4,3239.9l-2.6-2.6c-0.6-0.6-1.5-0.6-2.1,0l-7.9,7.5l-7.6-7.6c-0.4-0.4-0.8-0.5-1.1-0.5c-0.6,0-1.1,0.4-1.3,0.9s-0.1,0.9,0.2,1.3l9.5,9.5c0.2,0.2,0.5,0.2,0.7,0l8.6-8.2l0.8,0.8l-9.8,9.8l-10.7-10.7c-0.7-0.7-1.8-0.5-2.3,0.3c-0.2,0.4-0.2,0.9,0,1.3c0,0,0,0.1,0.1,0.1l11.8,11.8c0.3,0.3,0.7,0.4,1.1,0.4s0.8-0.2,1.1-0.4l11.6-11.6C-1359.8,3241.5-1359.8,3240.5-1360.4,3239.9z M-1361.1,3241.4l-11.5,11.5c-0.2,0.2-0.5,0.2-0.7,0l-11.8-11.7c0-0.1,0-0.2,0-0.3c0.1-0.2,0.5-0.3,0.7-0.1l11,11c0.2,0.2,0.5,0.2,0.7,0l10.5-10.5c0.2-0.2,0.2-0.5,0-0.7l-1.5-1.5c-0.2-0.2-0.5-0.2-0.7,0l-8.6,8.2l-9.1-9.1c0-0.1,0-0.2,0-0.2c0.1-0.2,0.4-0.5,0.8-0.1l8,8c0.2,0.2,0.5,0.2,0.7,0l8.3-7.8c0.2-0.2,0.5-0.2,0.7,0l2.6,2.6C-1360.9,3240.8-1360.9,3241.2-1361.1,3241.4z"/>
  </g>
</svg>