<svg class="cs-custom-icon" version="1.1" xmlns="http://www.w3.org/2000/svg" xmlns:xlink="http://www.w3.org/1999/xlink" x="0px" y="0px" viewBox="-290 382 30 30" enable-background="new -290 382 30 30" xml:space="preserve">
  <g>
    <path d="M-275,385c-3.9,0-7,3.1-7,7c0,5,6.3,12.5,6.6,12.8l0.4,0.4l0.4-0.4c0.2-0.3,6.6-7.8,6.6-12.8C-268,388.1-271.1,385-275,385z M-275,403.7c-1.4-1.7-6-7.7-6-11.7c0-3.3,2.7-6,6-6s6,2.7,6,6C-269,396-273.6,402-275,403.7z"/>
    <path d="M-275,388c-2.2,0-4,1.8-4,4s1.8,4,4,4s4-1.8,4-4S-272.8,388-275,388z M-275,395c-1.7,0-3-1.3-3-3s1.3-3,3-3s3,1.3,3,3S-273.3,395-275,395z"/>
  </g>
</svg>