<svg class="cs-custom-icon" version="1.1" xmlns="http://www.w3.org/2000/svg" xmlns:xlink="http://www.w3.org/1999/xlink" x="0px" y="0px" viewBox="-290 382 30 30" enable-background="new -290 382 30 30" xml:space="preserve">
  <g>
    <path d="M-264,388h-4.5c-0.3,0-0.5,0.2-0.5,0.5s0.2,0.5,0.5,0.5h4.5v2h-4.5c-0.3,0-0.5,0.2-0.5,0.5s0.2,0.5,0.5,0.5h4.5v15h-4.5c-0.3,0-0.5,0.2-0.5,0.5s0.2,0.5,0.5,0.5h4.5c0.6,0,1-0.4,1-1v-18C-263,388.4-263.4,388-264,388z"/>
    <path d="M-281.5,407h-4.5v-15h4.5c0.3,0,0.5-0.2,0.5-0.5s-0.2-0.5-0.5-0.5h-4.5v-2h4.5c0.3,0,0.5-0.2,0.5-0.5s-0.2-0.5-0.5-0.5h-4.5c-0.6,0-1,0.4-1,1v18c0,0.6,0.4,1,1,1h4.5c0.3,0,0.5-0.2,0.5-0.5S-281.2,407-281.5,407z"/>
    <path d="M-270,389.5L-270,389.5V385c0-0.6-0.4-1-1-1h-8c-0.6,0-1,0.4-1,1v4.5l0,0l0,0v5l0,0l0,0V409c0,0.6,0.4,1,1,1h8c0.6,0,1-0.4,1-1v-14.5l0,0l0,0V389.5L-270,389.5z M-279,390h8v4h-8V390z M-271,385v4h-8v-4H-271z M-271,409.5V409h-8v-14h8v14V409.5z"/>
    <path d="M-272.5,398h-3c-0.3,0-0.5,0.2-0.5,0.5s0.2,0.5,0.5,0.5h3c0.3,0,0.5-0.2,0.5-0.5S-272.2,398-272.5,398z"/>
    <path d="M-277.5,387h5c0.3,0,0.5-0.2,0.5-0.5s-0.2-0.5-0.5-0.5h-5c-0.3,0-0.5,0.2-0.5,0.5S-277.8,387-277.5,387z"/>
    <path d="M-272.5,400h-3c-0.3,0-0.5,0.2-0.5,0.5s0.2,0.5,0.5,0.5h3c0.3,0,0.5-0.2,0.5-0.5S-272.2,400-272.5,400z"/>
    <path d="M-272.5,402h-3c-0.3,0-0.5,0.2-0.5,0.5s0.2,0.5,0.5,0.5h3c0.3,0,0.5-0.2,0.5-0.5S-272.2,402-272.5,402z"/>
    <path d="M-269,397.5c0,0.3,0.2,0.5,0.5,0.5h3c0.3,0,0.5-0.2,0.5-0.5s-0.2-0.5-0.5-0.5h-3C-268.8,397-269,397.2-269,397.5z"/>
    <path d="M-268.5,400h3c0.3,0,0.5-0.2,0.5-0.5s-0.2-0.5-0.5-0.5h-3c-0.3,0-0.5,0.2-0.5,0.5S-268.8,400-268.5,400z"/>
    <path d="M-268.5,402h3c0.3,0,0.5-0.2,0.5-0.5s-0.2-0.5-0.5-0.5h-3c-0.3,0-0.5,0.2-0.5,0.5S-268.8,402-268.5,402z"/>
    <path d="M-273,405h-4c-0.6,0-1,0.4-1,1v1c0,0.6,0.4,1,1,1h4c0.6,0,1-0.4,1-1v-1C-272,405.4-272.4,405-273,405zM-277,407v-1h4v1H-277z M-273,407.5V407l0,0V407.5z"/>
    <path d="M-268.5,405c-0.3,0-0.5,0.2-0.5,0.5s0.2,0.5,0.5,0.5h2.5c0.6,0,1-0.4,1-1v-1c0-0.6-0.4-1-1-1h-2.5c-0.3,0-0.5,0.2-0.5,0.5s0.2,0.5,0.5,0.5h2.5v1H-268.5z"/>
    <path d="M-281.5,404c0.3,0,0.5-0.2,0.5-0.5s-0.2-0.5-0.5-0.5h-2.5c-0.6,0-1,0.4-1,1v1c0,0.6,0.4,1,1,1h2.5c0.3,0,0.5-0.2,0.5-0.5s-0.2-0.5-0.5-0.5h-2.5v-1H-281.5z"/>
    <circle cx="-275" cy="392" r="1"/>
    <circle cx="-283" cy="394" r="1"/>
    <circle cx="-267" cy="394" r="1"/>
    <circle cx="-277.5" cy="398.5" r="0.5"/>
    <circle cx="-277.5" cy="400.5" r="0.5"/>
    <circle cx="-277.5" cy="402.5" r="0.5"/>
    <path d="M-281.5,397h-1c-0.3,0-0.5,0.2-0.5,0.5s0.2,0.5,0.5,0.5h1c0.3,0,0.5-0.2,0.5-0.5S-281.2,397-281.5,397z"/>
    <path d="M-281.5,399h-1c-0.3,0-0.5,0.2-0.5,0.5s0.2,0.5,0.5,0.5h1c0.3,0,0.5-0.2,0.5-0.5S-281.2,399-281.5,399z"/>
    <path d="M-281.5,401h-1c-0.3,0-0.5,0.2-0.5,0.5s0.2,0.5,0.5,0.5h1c0.3,0,0.5-0.2,0.5-0.5S-281.2,401-281.5,401z"/>
    <circle cx="-284.5" cy="397.5" r="0.5"/>
    <circle cx="-284.5" cy="399.5" r="0.5"/>
    <circle cx="-284.5" cy="401.5" r="0.5"/>
  </g>
</svg>