<svg class="cs-custom-icon" version="1.1" xmlns="http://www.w3.org/2000/svg" xmlns:xlink="http://www.w3.org/1999/xlink" x="0px" y="0px" viewBox="-290 382 30 30" enable-background="new -290 382 30 30" xml:space="preserve">
  <g>
    <path d="M-265.5,390h-19c-1.4,0-2.5,1.1-2.5,2.5v9c0,1.4,1.1,2.5,2.5,2.5h19c1.4,0,2.5-1.1,2.5-2.5v-9C-263,391.1-264.1,390-265.5,390z M-264,401.5c0,0.8-0.7,1.5-1.5,1.5h-19c-0.8,0-1.5-0.7-1.5-1.5v-9c0-0.8,0.7-1.5,1.5-1.5h19c0.8,0,1.5,0.7,1.5,1.5V401.5z"/>
    <path d="M-283.6,394h3.1c0.3,0,0.5-0.2,0.5-0.5s-0.2-0.5-0.5-0.5h-3.1c-0.3,0-0.5,0.2-0.5,0.5S-283.9,394-283.6,394z"/>
    <path d="M-275.5,396h-7c-0.3,0-0.5,0.2-0.5,0.5s0.2,0.5,0.5,0.5h7c0.3,0,0.5-0.2,0.5-0.5S-275.2,396-275.5,396z"/>
    <path d="M-275.5,398h-8.1c-0.3,0-0.5,0.2-0.5,0.5s0.2,0.5,0.5,0.5h8.1c0.3,0,0.5-0.2,0.5-0.5S-275.2,398-275.5,398z"/>
    <path d="M-279.5,400h-4.1c-0.3,0-0.5,0.2-0.5,0.5s0.2,0.5,0.5,0.5h4.1c0.3,0,0.5-0.2,0.5-0.5S-279.2,400-279.5,400z"/>
    <path d="M-267,396h-5c-0.6,0-1,0.4-1,1v1c0,0.6,0.4,1,1,1h5c0.6,0,1-0.4,1-1v-1C-266,396.4-266.4,396-267,396zM-272,398v-1h5v1H-272z M-267,398.5V398l0,0V398.5z"/>
  </g>
</svg>