<svg class="cs-custom-icon" version="1.1" xmlns="http://www.w3.org/2000/svg" xmlns:xlink="http://www.w3.org/1999/xlink" x="0px" y="0px" viewBox="-290 382 30 30" enable-background="new -290 382 30 30" xml:space="preserve">
  <g>
    <path d="M-262.5,403h-25c-0.3,0-0.5,0.2-0.5,0.5s0.2,0.5,0.5,0.5h25c0.3,0,0.5-0.2,0.5-0.5S-262.2,403-262.5,403z"/>
    <path d="M-262.5,400h-25c-0.3,0-0.5,0.2-0.5,0.5s0.2,0.5,0.5,0.5h25c0.3,0,0.5-0.2,0.5-0.5S-262.2,400-262.5,400z"/>
    <path d="M-262.5,397h-7c-0.3,0-0.5,0.2-0.5,0.5s0.2,0.5,0.5,0.5h7c0.3,0,0.5-0.2,0.5-0.5S-262.2,397-262.5,397z"/>
    <path d="M-262.5,394h-7c-0.3,0-0.5,0.2-0.5,0.5s0.2,0.5,0.5,0.5h7c0.3,0,0.5-0.2,0.5-0.5S-262.2,394-262.5,394z"/>
    <path d="M-262.5,391h-7c-0.3,0-0.5,0.2-0.5,0.5s0.2,0.5,0.5,0.5h7c0.3,0,0.5-0.2,0.5-0.5S-262.2,391-262.5,391z"/>
    <path d="M-269.5,389h7c0.3,0,0.5-0.2,0.5-0.5s-0.2-0.5-0.5-0.5h-7c-0.3,0-0.5,0.2-0.5,0.5S-269.8,389-269.5,389z"/>
    <path d="M-274.5,406h-13c-0.3,0-0.5,0.2-0.5,0.5s0.2,0.5,0.5,0.5h13c0.3,0,0.5-0.2,0.5-0.5S-274.2,406-274.5,406z"/>
    <path d="M-284,398.6c2.2,0,4-1.8,4-4c0-1.8-1.2-3.4-2.9-3.9c0.2-0.3,0.9-1.2,1.5-1.8c0.2-0.2,0.3-0.6,0.2-0.9c-0.1-0.3-0.4-0.5-0.8-0.5h-0.2c-3.3,0.7-5.8,3.6-5.8,7.1C-288,396.8-286.2,398.6-284,398.6z M-282.5,388.6c-0.6,0.7-1.5,1.8-1.4,2.5c0.1,0.3,0.3,0.5,0.6,0.5c1.4,0.4,2.3,1.6,2.3,3c0,1.7-1.4,3-3,3s-3-1.4-3-3C-287,391.8-285.1,389.4-282.5,388.6z"/>
    <path d="M-275,398.6c2.2,0,4-1.8,4-4c0-1.8-1.2-3.4-2.9-3.9c0.2-0.4,0.8-1.2,1.4-1.8c0.2-0.2,0.3-0.6,0.2-0.9c-0.1-0.3-0.4-0.5-0.8-0.5h-0.2c-3.3,0.7-5.7,3.6-5.7,7.1C-279,396.8-277.2,398.6-275,398.6z M-273.6,388.6c-0.6,0.7-1.5,1.8-1.3,2.5c0.1,0.3,0.3,0.5,0.6,0.5c1.4,0.3,2.3,1.5,2.3,2.9c0,1.7-1.4,3-3,3s-3-1.4-3-3C-278,391.8-276.2,389.4-273.6,388.6z"/>
  </g>
</svg>