<svg class="cs-custom-icon" version="1.1" xmlns="http://www.w3.org/2000/svg" xmlns:xlink="http://www.w3.org/1999/xlink" x="0px" y="0px" viewBox="-290 382 30 30" enable-background="new -290 382 30 30" xml:space="preserve">
  <g>
    <path d="M-264,397h-3c-0.5,0-0.9,0.4-1,0.9c-0.5,3.5-3.5,6.1-7,6.1c-1.9,0-3.8-0.8-5.1-2.2l2.1-2.1c0.3-0.3,0.4-0.7,0.2-1.1c-0.2-0.4-0.5-0.6-0.9-0.6h-7.3c-0.6,0-1,0.4-1,1v7.3c0,0.4,0.2,0.8,0.6,0.9c0.4,0.2,0.8,0.1,1.2-0.3l1.6-1.6c2.3,2.4,5.3,3.7,8.6,3.7c6.3,0,11.4-4.7,12-10.9c0-0.3-0.1-0.6-0.3-0.8C-263.5,397.1-263.8,397-264,397z M-275,408c-3,0-5.8-1.2-7.9-3.4c-0.2-0.2-0.4-0.3-0.7-0.3c-0.3,0-0.5,0.1-0.7,0.3l-1.7,1.7V399h7.3l-2.1,2.1c-0.4,0.4-0.4,1,0,1.4c1.5,1.6,3.6,2.5,5.8,2.5c4,0,7.4-3,7.9-7h3C-264.6,403.7-269.3,408-275,408z"/>
    <path d="M-263.6,387.8c-0.4-0.2-0.8-0.1-1.1,0.2l-1.2,1.2c-2.3-2.7-5.6-4.2-9.1-4.2c-6.3,0-11.4,4.7-12,10.9c0,0.3,0.1,0.6,0.3,0.8c0.2,0.2,0.5,0.3,0.7,0.3h3c0.5,0,0.9-0.4,1-0.9c0.5-3.5,3.5-6.1,7-6.1c2.2,0,4.2,1,5.6,2.7l-1.6,1.6c-0.3,0.3-0.4,0.7-0.2,1.1c0.2,0.4,0.5,0.6,0.9,0.6h6.3c0.6,0,1-0.4,1-1v-6.3C-263,388.3-263.2,387.9-263.6,387.8z M-282.9,396.5V396l0,0V396.5z M-264,395h-6.3l1.6-1.6c0.4-0.4,0.4-0.9,0.1-1.3c-1.6-2-3.9-3.1-6.4-3.1c-4,0-7.4,3-7.9,7h-3c0.5-5.7,5.2-10,10.9-10c3.2,0,6.3,1.4,8.3,3.8c0.2,0.2,0.4,0.3,0.8,0.4c0.3,0,0.5-0.1,0.7-0.3l1.2-1.2V395z"/>
  </g>
</svg>