<svg class="cs-custom-icon" version="1.1" xmlns="http://www.w3.org/2000/svg" xmlns:xlink="http://www.w3.org/1999/xlink" x="0px" y="0px" viewBox="-290 382 30 30" enable-background="new -290 382 30 30" xml:space="preserve">
  <g>
    <path d="M-279,387c-3.3,0-6,2.7-6,6s2.7,6,6,6s6-2.7,6-6S-275.7,387-279,387z M-279,398c-2.8,0-5-2.2-5-5s2.2-5,5-5s5,2.2,5,5S-276.2,398-279,398z"/>
    <path d="M-264.1,404.1l-5.8-5.8c-0.4-0.4-1-0.4-1.4,0l-0.4,0.4l-0.9-0.9c1-1.3,1.6-3,1.6-4.7c0-4.4-3.6-8-8-8s-8,3.6-8,8s3.6,8,8,8c2.3,0,4.3-1,5.8-2.5l0.9,0.9l-0.4,0.4c-0.4,0.4-0.4,1,0,1.4l5.8,5.8c0.2,0.2,0.4,0.3,0.7,0.3c0.3,0,0.5-0.1,0.7-0.3l1.4-1.4C-263.7,405.1-263.7,404.5-264.1,404.1z M-279,400c-3.9,0-7-3.1-7-7s3.1-7,7-7s7,3.1,7,7S-275.1,400-279,400z M-266.2,406.2l-5.8-5.8l1.4-1.4l5.8,5.8L-266.2,406.2z"/>
  </g>
</svg>