<svg class="cs-custom-icon" version="1.1" xmlns="http://www.w3.org/2000/svg" xmlns:xlink="http://www.w3.org/1999/xlink" x="0px" y="0px" viewBox="-290 382 30 30" enable-background="new -290 382 30 30" xml:space="preserve">
  <g>
    <path d="M-280.5,403h11c0.8,0,1.5-0.7,1.5-1.5v-10c0-0.8-0.7-1.5-1.5-1.5h-2l0,0l0,0h-7l0,0l0,0h-2c-0.8,0-1.5,0.7-1.5,1.5v10C-282,402.3-281.3,403-280.5,403z M-279,399h-2v-2h2V399z M-278,397h6v5h-6V397z M-271,397h2v2h-2V397zM-269,396h-2v-2h2V396z M-272,396h-6v-5h6V396z M-279,396h-2v-2h2V396z M-281,401.5V400h2v2h-1.5C-280.8,402-281,401.8-281,401.5zM-269.5,402h-1.5v-2h2v1.5C-269,401.8-269.2,402-269.5,402z M-269,391.5v1.5h-2v-2h1.5C-269.2,391-269,391.2-269,391.5zM-280.5,391h1.5v2h-2v-1.5C-281,391.2-280.8,391-280.5,391z"/>
    <path d="M-264.5,398c-0.3,0-0.5,0.2-0.5,0.5v6.5h-20v-6.5c0-0.3-0.2-0.5-0.5-0.5s-0.5,0.2-0.5,0.5v6.5c0,0.6,0.4,1,1,1h20c0.6,0,1-0.4,1-1v-6.5C-264,398.2-264.2,398-264.5,398z"/>
  </g>
</svg>