<svg class="cs-custom-icon" version="1.1" xmlns="http://www.w3.org/2000/svg" xmlns:xlink="http://www.w3.org/1999/xlink" x="0px" y="0px" viewBox="-290 382 30 30" enable-background="new -290 382 30 30" xml:space="preserve">
  <g>
    <path d="M-266,387h-18c-0.6,0-1,0.4-1,1v10c0,0.6,0.4,1,1,1h18c0.6,0,1-0.4,1-1v-10C-265,387.4-265.4,387-266,387zM-266,388.9c-0.7,0.7-1.6,1.1-2.5,1.1l0,0c-1.4,0-2.6-0.8-3.2-2h5.7V388.9z M-272.7,388c0.6,1.8,2.3,3,4.2,3c0.9,0,1.8-0.3,2.5-0.8v5.1l-2.8-2.8c-0.4-0.4-1-0.4-1.4,0l-2.8,2.8l-4.8-4.8c-0.4-0.4-1-0.4-1.4,0l-4.8,4.8V388H-272.7zM-284,396.7l5.5-5.5l6.8,6.8H-284V396.7z M-270.3,398l-2-2l2.8-2.8l3.5,3.5v1.3H-270.3z M-266,398.5V398l0,0V398.5z"/>
    <path d="M-265.5,385h-19c-1.4,0-2.5,1.1-2.5,2.5v11c0,1.4,1.1,2.5,2.5,2.5h19c1.4,0,2.5-1.1,2.5-2.5v-11C-263,386.1-264.1,385-265.5,385z M-264,398.5c0,0.8-0.7,1.5-1.5,1.5h-19c-0.8,0-1.5-0.7-1.5-1.5v-11c0-0.8,0.7-1.5,1.5-1.5h19c0.8,0,1.5,0.7,1.5,1.5V398.5z"/>
    <polygon points="-268.4,403.4 -266.2,405.5 -268.4,407.6 -267.6,408.4 -264.8,405.5 -267.6,402.6     "/>
    <polygon points="-281.6,403.4 -282.4,402.6 -285.2,405.5 -282.4,408.4 -281.6,407.6 -283.8,405.5     "/>
    <path d="M-278.5,405h-3c-0.3,0-0.5,0.2-0.5,0.5s0.2,0.5,0.5,0.5h3c0.3,0,0.5-0.2,0.5-0.5S-278.2,405-278.5,405z"/>
    <path d="M-273.5,405h-3c-0.3,0-0.5,0.2-0.5,0.5s0.2,0.5,0.5,0.5h3c0.3,0,0.5-0.2,0.5-0.5S-273.2,405-273.5,405z"/>
    <path d="M-268,405.5c0-0.3-0.2-0.5-0.5-0.5h-3c-0.3,0-0.5,0.2-0.5,0.5s0.2,0.5,0.5,0.5h3C-268.2,406-268,405.8-268,405.5z"/>
  </g>
</svg>