<svg class="cs-custom-icon" version="1.1" xmlns="http://www.w3.org/2000/svg" xmlns:xlink="http://www.w3.org/1999/xlink" x="0px" y="0px" viewBox="-290 382 30 30" enable-background="new -290 382 30 30" xml:space="preserve">
  <g>
    <path d="M-279.5,387h-5c-0.3,0-0.5,0.2-0.5,0.5s0.2,0.5,0.5,0.5h5c0.3,0,0.5-0.2,0.5-0.5S-279.2,387-279.5,387z"/>
    <path d="M-284.5,392h4c0.3,0,0.5-0.2,0.5-0.5s-0.2-0.5-0.5-0.5h-4c-0.3,0-0.5,0.2-0.5,0.5S-284.8,392-284.5,392z"/>
    <path d="M-266.5,389h-5c-0.3,0-0.5,0.2-0.5,0.5s0.2,0.5,0.5,0.5h5c0.3,0,0.5-0.2,0.5-0.5S-266.2,389-266.5,389z"/>
    <path d="M-266.5,391h-8c-0.3,0-0.5,0.2-0.5,0.5s0.2,0.5,0.5,0.5h8c0.3,0,0.5-0.2,0.5-0.5S-266.2,391-266.5,391z"/>
    <path d="M-266.5,393h-8c-0.3,0-0.5,0.2-0.5,0.5s0.2,0.5,0.5,0.5h8c0.3,0,0.5-0.2,0.5-0.5S-266.2,393-266.5,393z"/>
    <path d="M-266.5,395h-8c-0.3,0-0.5,0.2-0.5,0.5s0.2,0.5,0.5,0.5h8c0.3,0,0.5-0.2,0.5-0.5S-266.2,395-266.5,395z"/>
    <path d="M-266.5,397h-8c-0.3,0-0.5,0.2-0.5,0.5s0.2,0.5,0.5,0.5h8c0.3,0,0.5-0.2,0.5-0.5S-266.2,397-266.5,397z"/>
    <path d="M-266.5,399h-8c-0.3,0-0.5,0.2-0.5,0.5s0.2,0.5,0.5,0.5h8c0.3,0,0.5-0.2,0.5-0.5S-266.2,399-266.5,399z"/>
    <path d="M-266.5,401h-8c-0.3,0-0.5,0.2-0.5,0.5s0.2,0.5,0.5,0.5h8c0.3,0,0.5-0.2,0.5-0.5S-266.2,401-266.5,401z"/>
    <path d="M-266.5,403h-8c-0.3,0-0.5,0.2-0.5,0.5s0.2,0.5,0.5,0.5h8c0.3,0,0.5-0.2,0.5-0.5S-266.2,403-266.5,403z"/>
    <path d="M-268.5,405h-6c-0.3,0-0.5,0.2-0.5,0.5s0.2,0.5,0.5,0.5h6c0.3,0,0.5-0.2,0.5-0.5S-268.2,405-268.5,405z"/>
    <path d="M-264,385h-22c-0.6,0-1,0.4-1,1v3.5v0.5v3.5v0.5v3.5v0.5v3c0,0.6,0.4,1,1,1h8v6c0,0.6,0.4,1,1,1h13c0.6,0,1-0.4,1-1v-22C-263,385.4-263.4,385-264,385z M-279.8,390h1.8v3h-8v-3H-279.8z M-278,394v3h-8v-3H-278z M-286,401v-3h8v3H-286z M-277,408v-18.5c0-0.5,0-0.5-2.8-0.5h-6.2v-3h22v22H-277z M-264,408.5V408l0,0V408.5z"/>
    <path d="M-284.5,396h5c0.3,0,0.5-0.2,0.5-0.5s-0.2-0.5-0.5-0.5h-5c-0.3,0-0.5,0.2-0.5,0.5S-284.8,396-284.5,396z"/>
    <path d="M-281.5,399h-3c-0.3,0-0.5,0.2-0.5,0.5s0.2,0.5,0.5,0.5h3c0.3,0,0.5-0.2,0.5-0.5S-281.2,399-281.5,399z"/>
  </g>
</svg>