<svg class="cs-custom-icon" version="1.1" xmlns="http://www.w3.org/2000/svg" xmlns:xlink="http://www.w3.org/1999/xlink" x="0px" y="0px" viewBox="-290 382 30 30" enable-background="new -290 382 30 30" xml:space="preserve">
  <g>
    <path d="M-270,391.7v1.8c0,0.3,0.2,0.5,0.5,0.5s0.5-0.2,0.5-0.5v-1.8l1.6,1.6l0.7-0.7l-2.9-2.9l-2.9,2.9l0.7,0.7L-270,391.7z"/>
    <path d="M-280,390c-2.2,0-4,1.8-4,4l0,0v10.5c0,0.3,0.2,0.5,0.5,0.5s0.5-0.2,0.5-0.5V398h6v6.5c0,0.3,0.2,0.5,0.5,0.5s0.5-0.2,0.5-0.5V394l0,0C-276,391.8-277.8,390-280,390z M-283,397v-3l0,0c0-1.7,1.3-3,3-3s3,1.3,3,3l0,0v3H-283z"/>
    <path d="M-271,395c-2.2,0-4,1.8-4,4l0,0v2c0,2.2,1.8,4,4,4c1.2,0,2.3-0.5,3-1.4v0.9c0,0.3,0.2,0.5,0.5,0.5s0.5-0.2,0.5-0.5V399l0,0C-267,396.8-268.8,395-271,395z M-271,404c-1.7,0-3-1.3-3-3v-2l0,0c0-1.7,1.3-3,3-3s3,1.3,3,3l0,0v2C-268,402.7-269.3,404-271,404z"/>
  </g>
</svg>