<svg class="cs-custom-icon" version="1.1" xmlns="http://www.w3.org/2000/svg" xmlns:xlink="http://www.w3.org/1999/xlink" x="0px" y="0px" viewBox="-290 382 30 30" enable-background="new -290 382 30 30" xml:space="preserve">
  <g>
    <path d="M-275.5,393h9.8l-1.6,1.6l0.7,0.7l2.9-2.9l-2.9-2.9l-0.7,0.7l1.6,1.6h-9.8c-0.3,0-0.5,0.2-0.5,0.5C-276,392.6-275.8,393-275.5,393z"/>
    <path d="M-271.5,404h-4c-0.3,0-0.5,0.2-0.5,0.5s0.2,0.5,0.5,0.5h4c0.3,0,0.5-0.2,0.5-0.5S-271.2,404-271.5,404z"/>
    <path d="M-264.5,404h-4c-0.3,0-0.5,0.2-0.5,0.5s0.2,0.5,0.5,0.5h4c0.3,0,0.5-0.2,0.5-0.5S-264.2,404-264.5,404z"/>
    <path d="M-282,390c-2.2,0-4,1.8-4,4l0,0v10.5c0,0.3,0.2,0.5,0.5,0.5s0.5-0.2,0.5-0.5V398h6v6.5c0,0.3,0.2,0.5,0.5,0.5s0.5-0.2,0.5-0.5V394l0,0C-278,391.8-279.8,390-282,390z M-285,397v-3l0,0c0-1.7,1.3-3,3-3s3,1.3,3,3l0,0v3H-285z"/>
  </g>
</svg>