<svg class="cs-custom-icon" version="1.1" xmlns="http://www.w3.org/2000/svg" xmlns:xlink="http://www.w3.org/1999/xlink" x="0px" y="0px" viewBox="-290 382 30 30" enable-background="new -290 382 30 30" xml:space="preserve">
  <g>
    <path d="M-264.2,396.7c-0.2-0.2-4.2-5.3-10.2-5.7c-0.2,0-0.4,0-0.6,0s-0.4,0-0.6,0c-5.9,0.3-10,5.4-10.2,5.7l-0.2,0.3l0.2,0.3c0.2,0.2,4.2,5.3,10.2,5.7c0.2,0,0.4,0,0.6,0s0.4,0,0.6,0c5.9-0.3,10-5.4,10.2-5.7l0.2-0.3L-264.2,396.7zM-270,397c0,2.8-2.2,5-5,5s-5-2.2-5-5s2.2-5,5-5S-270,394.2-270,397z M-284.7,397c0.7-0.8,2.6-2.7,5.2-4c-0.9,1.1-1.5,2.5-1.5,4s0.6,2.9,1.5,4C-282.2,399.7-284.1,397.8-284.7,397z M-270.5,401c0.9-1.1,1.5-2.4,1.5-4c0-1.5-0.6-2.9-1.5-4c2.7,1.2,4.6,3.2,5.2,4C-265.9,397.8-267.8,399.7-270.5,401z"/>
    <path d="M-275,399c1.1,0,2-0.9,2-2s-0.9-2-2-2s-2,0.9-2,2S-276.1,399-275,399z M-275,396c0.6,0,1,0.4,1,1s-0.4,1-1,1s-1-0.4-1-1S-275.6,396-275,396z"/>
    <circle cx="-277.5" cy="394.5" r="0.5"/>
  </g>
</svg>