<svg class="cs-custom-icon" version="1.1" xmlns="http://www.w3.org/2000/svg" xmlns:xlink="http://www.w3.org/1999/xlink" x="0px" y="0px" viewBox="-290 382 30 30" enable-background="new -290 382 30 30" xml:space="preserve">
  <path d="M-262,398.6v-3.1l-2.7-0.5l-0.4-1.4l2.1-1.7l-1.6-2.7l-2.6,1l-1-1l1-2.6l-2.7-1.6l-1.7,2.1l-1.4-0.4l-0.4-2.7h-3.1l-0.5,2.7l-1.4,0.4l-1.7-2.1l-2.7,1.6l1,2.6l-1,1l-2.6-1l-1.6,2.7l2.1,1.7l-0.4,1.4l-2.7,0.4v3.1l2.7,0.5l0.4,1.4l-2.1,1.7l1.6,2.7l2.6-1l1,1l-1,2.6l2.7,1.6l1.7-2.1l1.4,0.4l0.4,2.7h3.1l0.4-2.7l1.4-0.4l1.7,2.1l2.7-1.6l-1-2.6l1-1l2.6,1l1.6-2.7l-2.1-1.7l0.4-1.4L-262,398.6z M-275,403c-3.3,0-6-2.7-6-6s2.7-6,6-6s6,2.7,6,6S-271.7,403-275,403z"/>
</svg>