<?xml version="1.0" encoding="UTF-8"?><!DOCTYPE svg PUBLIC "-//W3C//DTD SVG 1.1//EN" "http://www.w3.org/Graphics/SVG/1.1/DTD/svg11.dtd"><svg xmlns="http://www.w3.org/2000/svg"><symbol id="accordion" viewBox="-290 382 30 30"><path d="M-264 385h-22c-.6 0-1 .4-1 1v5c0 .6.4 1 1 1h22c.6 0 1-.4 1-1v-5c0-.6-.4-1-1-1zm-22 6v-5h22v5h-22zm22 .5v-.5.5z"/><path d="M-283 387h-1v1h-1v1h1v1h1v-1h1v-1h-1M-264 393h-22c-.6 0-1 .4-1 1v14c0 .6.4 1 1 1h22c.6 0 1-.4 1-1v-14c0-.6-.4-1-1-1zm-22 15v-14h22v14h-22zm22 .5v-.5.5z"/><path d="M-284.2 397.9l.7-.7.7.7.7-.7-.7-.7.7-.7-.7-.7-.7.7-.7-.7-.7.7.7.7-.7.7M-271.5 388h-8c-.3 0-.5.2-.5.5s.2.5.5.5h8c.3 0 .5-.2.5-.5s-.2-.5-.5-.5zM-279.5 397h10c.3 0 .5-.2.5-.5s-.2-.5-.5-.5h-10c-.3 0-.5.2-.5.5s.2.5.5.5zM-275.5 399h-9c-.3 0-.5.2-.5.5s.2.5.5.5h9c.3 0 .5-.2.5-.5s-.2-.5-.5-.5zM-271 399.5c0 .3.2.5.5.5h5c.3 0 .5-.2.5-.5s-.2-.5-.5-.5h-5c-.3 0-.5.2-.5.5zM-265.5 401h-8c-.3 0-.5.2-.5.5s.2.5.5.5h8c.3 0 .5-.2.5-.5s-.2-.5-.5-.5zM-265.5 403h-8c-.3 0-.5.2-.5.5s.2.5.5.5h8c.3 0 .5-.2.5-.5s-.2-.5-.5-.5zM-268.5 405h-5c-.3 0-.5.2-.5.5s.2.5.5.5h5c.3 0 .5-.2.5-.5s-.2-.5-.5-.5zM-275 406v-5h-10v6h10v-1zm-4.5-4h3.5v2c-.4-.3-.8-.4-1.2-.5-.4-.9-1.3-1.5-2.3-1.5-.8 0-1.5.4-2 1h-.2c-.9 0-1.7.4-2.2.9V402h4.4zm-.1 3.8h-4.3c.2-1 1.1-1.8 2.2-1.8s1.9.7 2.1 1.8zm-.8-2.5c.3-.2.6-.3.9-.3.5 0 1 .3 1.2.6-.3.1-.7.3-.9.6-.4-.4-.8-.7-1.2-.9zm1.9 2.7c0-.3-.1-.6-.2-.9.3-.4.7-.6 1.2-.6.8 0 1.5.7 1.5 1.5h-2.5z"/></symbol><symbol id="advanced-carousel" viewBox="-290 382 30 30"><path d="M-265.1 394.1l-.8.8 2.2 2.1-2.2 2.1.8.8 2.8-2.9M-284.9 394.1l-2.8 2.9 2.8 2.9.8-.8-2.2-2.1 2.2-2.1M-275 390c-1.1 0-2 .9-2 2s.9 2 2 2 2-.9 2-2-.9-2-2-2zm0 3c-.6 0-1-.4-1-1s.4-1 1-1 1 .4 1 1-.4 1-1 1zM-281 390c-1.1 0-2 .9-2 2s.9 2 2 2 2-.9 2-2-.9-2-2-2zm0 3c-.6 0-1-.4-1-1s.4-1 1-1 1 .4 1 1-.4 1-1 1zM-269 390c-1.1 0-2 .9-2 2s.9 2 2 2 2-.9 2-2-.9-2-2-2zm0 3c-.6 0-1-.4-1-1s.4-1 1-1 1 .4 1 1-.4 1-1 1zM-280.5 396c.3 0 .5-.2.5-.5s-.2-.5-.5-.5h-1c-.3 0-.5.2-.5.5s.2.5.5.5h1zM-274.5 396c.3 0 .5-.2.5-.5s-.2-.5-.5-.5h-1c-.3 0-.5.2-.5.5s.2.5.5.5h1zM-268.5 396c.3 0 .5-.2.5-.5s-.2-.5-.5-.5h-1c-.3 0-.5.2-.5.5s.2.5.5.5h1zM-279.5 398h-3c-.3 0-.5.2-.5.5s.2.5.5.5h3c.3 0 .5-.2.5-.5s-.2-.5-.5-.5zM-273.5 398h-3c-.3 0-.5.2-.5.5s.2.5.5.5h3c.3 0 .5-.2.5-.5s-.2-.5-.5-.5zM-267.5 398h-3c-.3 0-.5.2-.5.5s.2.5.5.5h3c.3 0 .5-.2.5-.5s-.2-.5-.5-.5zM-279.5 400h-3c-.3 0-.5.2-.5.5s.2.5.5.5h3c.3 0 .5-.2.5-.5s-.2-.5-.5-.5zM-273.5 400h-3c-.3 0-.5.2-.5.5s.2.5.5.5h3c.3 0 .5-.2.5-.5s-.2-.5-.5-.5zM-267.5 400h-3c-.3 0-.5.2-.5.5s.2.5.5.5h3c.3 0 .5-.2.5-.5s-.2-.5-.5-.5zM-279.5 402h-3c-.3 0-.5.2-.5.5s.2.5.5.5h3c.3 0 .5-.2.5-.5s-.2-.5-.5-.5zM-273.5 402h-3c-.3 0-.5.2-.5.5s.2.5.5.5h3c.3 0 .5-.2.5-.5s-.2-.5-.5-.5zM-267.5 402h-3c-.3 0-.5.2-.5.5s.2.5.5.5h3c.3 0 .5-.2.5-.5s-.2-.5-.5-.5zM-273.5 404h-3c-.3 0-.5.2-.5.5s.2.5.5.5h3c.3 0 .5-.2.5-.5s-.2-.5-.5-.5z"/></symbol><symbol id="alert" viewBox="-290 382 30 30"><path d="M-265 404.3c-.5-1-.3-1-1.3-2.2-.9-1.1-1.7-2-1.7-9.1 0-3.9-3.1-7-7-7s-7 3.1-7 7c0 7.1-.8 8-1.6 9.1-1 1.2-.8 1.2-1.3 2.2-.2.4.1.7.4.7h6.1c.2 1.7 1.7 3 3.4 3s3.2-1.3 3.4-3h6.1c.3 0 .6-.3.5-.7zm-16-11.3c0-3.3 2.7-6 6-6s6 2.7 6 6c0 7.5.9 8.5 1.9 9.7.3.4.6.7.9 1.3h-17.5c1.1-2.4 2.7-1.1 2.7-11zm6 14c-1.2 0-2.2-.9-2.4-2h4.9c-.3 1.1-1.3 2-2.5 2z"/><circle cx="-277.5" cy="390.5" r=".5"/><circle cx="-276.5" cy="389.5" r=".5"/><circle cx="-278.5" cy="391.5" r=".5"/></symbol><symbol id="animations" viewBox="-290 382 30 30"><path d="M-274 396.5v-8c0-1.4-1.1-2.5-2.5-2.5h-8c-1.4 0-2.5 1.1-2.5 2.5v8c0 1.4 1.1 2.5 2.5 2.5h8c1.4 0 2.5-1.1 2.5-2.5zm-12 0v-8c0-.8.7-1.5 1.5-1.5h8c.8 0 1.5.7 1.5 1.5v8c0 .8-.7 1.5-1.5 1.5h-8c-.8 0-1.5-.7-1.5-1.5z"/><path d="M-272 398.5v-7c0-.3-.2-.5-.5-.5s-.5.2-.5.5v7c0 .8-.7 1.5-1.5 1.5h-7c-.3 0-.5.2-.5.5s.2.5.5.5h7c1.4 0 2.5-1.1 2.5-2.5z"/><path d="M-270 400.5v-6c0-.3-.2-.5-.5-.5s-.5.2-.5.5v6c0 .8-.7 1.5-1.5 1.5h-6c-.3 0-.5.2-.5.5s.2.5.5.5h6c1.4 0 2.5-1.1 2.5-2.5z"/><path d="M-268 402.5v-5c0-.3-.2-.5-.5-.5s-.5.2-.5.5v5c0 .8-.7 1.5-1.5 1.5h-5c-.3 0-.5.2-.5.5s.2.5.5.5h5c1.4 0 2.5-1.1 2.5-2.5z"/><path d="M-266.5 400c-.3 0-.5.2-.5.5v4c0 .8-.7 1.5-1.5 1.5h-4c-.3 0-.5.2-.5.5s.2.5.5.5h4c1.4 0 2.5-1.1 2.5-2.5v-4c0-.3-.2-.5-.5-.5zM-263.1 394.1l-6.2-6.1h1.3v-1h-3v3h1v-1.3l6.1 6.1c.1.1.2.1.4.1s.3 0 .4-.1c.1-.1.1-.5 0-.7z"/></symbol><symbol id="author" viewBox="-290 382 30 30"><path d="M-266 385h-15.5c-1.9 0-3.5 1.6-3.5 3.5v17c0 1.9 1.6 3.5 3.5 3.5h15.5c.6 0 1-.4 1-1v-22c0-.6-.4-1-1-1zm-2 20.5c0-1.2.9-2.2 2-2.4v4.9c-1.1-.3-2-1.3-2-2.5zm2-3.5h-14v-16h14v16zm-18-13.5c0-1.4 1.1-2.5 2.5-2.5h.5v16h-.5c-1 0-1.9.4-2.5 1.1v-14.6zm0 17c0-1.4 1.1-2.5 2.5-2.5h13.6c-.3.3-.5.6-.7 1h-13.9c-.3 0-.5.2-.5.5s.2.5.5.5h13.6c0 .2-.1.3-.1.5v.5h-13.5c-.3 0-.5.2-.5.5s.2.5.5.5h13.9c.2.4.4.7.7 1h-13.6c-1.4 0-2.5-1.1-2.5-2.5z"/><path d="M-278.7 397.9c.2.2.5.1.7-.1.6-.9 1.8-1.9 2.1-1.8 0 0 .3.3 0 1.8 0 .4.1.7.4.9.5.3 1.1.1 1.8-.1.8-.3 1.8-.6 2.4-.1.5.3 1.4.5 2.2.5.6 0 1.2-.1 1.6-.2.3-.1.4-.3.4-.6s-.3-.4-.6-.4c-.8.2-2.4.2-2.9-.1-1.1-.8-2.4-.4-3.3-.1-.3.1-.7.2-.8.2.2-1 .3-2.4-.6-2.8-1.3-.6-3.3 2.1-3.3 2.1-.4.3-.4.6-.1.8z"/></symbol><symbol id="block-grid" viewBox="-290 382 30 30"><path d="M-287 397h10c.6 0 1-.4 1-1v-8c0-.6-.4-1-1-1h-10c-.6 0-1 .4-1 1v8c0 .6.4 1 1 1zm10-1v.5-.5zm-10-8h10v8h-10v-8zM-281 399h-6c-.6 0-1 .4-1 1v5c0 .6.4 1 1 1h6c.6 0 1-.4 1-1v-5c0-.6-.4-1-1-1zm-6 6v-5h6v5h-6zm6 .5v-.5.5zM-272 399h-6c-.6 0-1 .4-1 1v5c0 .6.4 1 1 1h6c.6 0 1-.4 1-1v-5c0-.6-.4-1-1-1zm-6 6v-5h6v5h-6zm6 .5v-.5.5zM-263 399h-6c-.6 0-1 .4-1 1v5c0 .6.4 1 1 1h6c.6 0 1-.4 1-1v-5c0-.6-.4-1-1-1zm-6 6v-5h6v5h-6zm6 .5v-.5.5zM-263 387h-10c-.6 0-1 .4-1 1v8c0 .6.4 1 1 1h10c.6 0 1-.4 1-1v-8c0-.6-.4-1-1-1zm-10 9v-8h10v8h-10zm10 .5v-.5.5z"/></symbol><symbol id="blockquote" viewBox="-290 382 30 30"><path d="M-280.6 394.1c-.1-.4 1.1-2.1 2.4-3.3.3-.3.4-.7.2-1.1-.1-.5-.5-.7-.9-.7h-.2c-5.1 1-8.9 5.5-8.9 10.8 0 3.3 2.7 6 6 6s6-2.7 6-6c0-2.8-1.9-5.2-4.6-5.7zm-1.4 10.7c-2.8 0-5-2.2-5-5 0-4.8 3.4-8.9 8.1-9.8-.1.1-3 3-2.7 4.3.1.3.3.6.7.6 2.3.5 3.8 2.5 3.8 4.9.1 2.8-2.1 5-4.9 5zM-266.6 394.1c-.1-.4 1.1-2.1 2.4-3.3.3-.3.4-.7.2-1.1-.1-.5-.5-.7-.9-.7h-.2c-5.1 1-8.9 5.5-8.9 10.8 0 3.3 2.7 6 6 6s6-2.7 6-6c0-2.8-1.9-5.2-4.6-5.7zm-1.4 10.7c-2.8 0-5-2.2-5-5 0-4.8 3.4-8.9 8.1-9.8-.1.1-3 3-2.7 4.3.1.3.3.6.7.6 2.3.5 3.8 2.5 3.8 4.9.1 2.8-2.1 5-4.9 5z"/></symbol><symbol id="button" viewBox="-290 382 30 30"><path d="M-265.5 401c1.4 0 2.5-1.1 2.5-2.5v-6c0-1.4-1.1-2.5-2.5-2.5h-19c-1.4 0-2.5 1.1-2.5 2.5v6c0 1.4 1.1 2.5 2.5 2.5h19zm-20.5-2.5v-6c0-.8.7-1.5 1.5-1.5h19c.8 0 1.5.7 1.5 1.5v6c0 .8-.7 1.5-1.5 1.5h-19c-.8 0-1.5-.7-1.5-1.5z"/><path d="M-262.2 400.9c-.2-.2-.5-.2-.7 0-.7.7-1.6 1.1-2.6 1.1h-19c-.3 0-.5.2-.5.5s.2.5.5.5h19c1.2 0 2.4-.5 3.3-1.4.2-.2.2-.5 0-.7z"/></symbol><symbol id="callout" viewBox="-290 382 30 30"><path d="M-265.4 389h-19c-1.4 0-2.5 1.1-2.5 2.5v11c0 1.4 1.1 2.5 2.5 2.5h19c1.4 0 2.5-1.1 2.5-2.5v-11c0-1.4-1.1-2.5-2.5-2.5zm1.5 13.5c0 .8-.7 1.5-1.5 1.5h-19c-.8 0-1.5-.7-1.5-1.5v-11c0-.8.7-1.5 1.5-1.5h19c.8 0 1.5.7 1.5 1.5v11z"/><path d="M-274 391.5c0-.3-.2-.5-.5-.5h-9c-.3 0-.5.2-.5.5s.2.5.5.5h9c.3 0 .5-.2.5-.5zM-266.5 394h-14c-.3 0-.5.2-.5.5s.2.5.5.5h14c.3 0 .5-.2.5-.5s-.2-.5-.5-.5zM-266.5 397h-17c-.3 0-.5-.2-.5-.5s.2-.5.5-.5h17c.3 0 .5.2.5.5s-.2.5-.5.5z"/><g><path d="M-270.5 399h-13c-.3 0-.5-.2-.5-.5s.2-.5.5-.5h13c.3 0 .5.2.5.5s-.2.5-.5.5z"/></g><g><path d="M-277 403h-6c-.6 0-1-.4-1-1v-1c0-.6.4-1 1-1h6c.6 0 1 .4 1 1v1c0 .6-.4 1-1 1zm0-1v.5-.5zm-6-1v1h6v-1h-6z"/></g></symbol><symbol id="card" viewBox="-290 382 30 30"><path d="M-276.4 404.4l1.6 1.6h-8.7c-1.4 0-2.5-1.1-2.5-2.5 0-.7.3-1.5.9-1.9.2-.2.2-.5.1-.7-.1-.2-.5-.2-.7-.1-.8.7-1.3 1.7-1.3 2.7 0 1.9 1.6 3.5 3.5 3.5h8.8l-1.6 1.6.7.7 2.9-2.9-2.9-2.9-.8.9zM-277.5 392.5c0 1.4 1.1 2.5 2.5 2.5s2.5-1.1 2.5-2.5-1.1-2.5-2.5-2.5-2.5 1.1-2.5 2.5zm4 0c0 .8-.7 1.5-1.5 1.5s-1.5-.7-1.5-1.5.7-1.5 1.5-1.5 1.5.7 1.5 1.5zM-272 388.5c0-.3-.2-.5-.5-.5h-5c-.3 0-.5.2-.5.5s.2.5.5.5h5c.3 0 .5-.2.5-.5zM-279 396.5c0 .3.2.5.5.5h9c.3 0 .5-.2.5-.5s-.2-.5-.5-.5h-9c-.3 0-.5.2-.5.5zM-281 398.5c0 .3.2.5.5.5h11c.3 0 .5-.2.5-.5s-.2-.5-.5-.5h-11c-.3 0-.5.2-.5.5zM-280.5 401h8c.3 0 .5-.2.5-.5s-.2-.5-.5-.5h-8c-.3 0-.5.2-.5.5s.2.5.5.5zM-264.3 400.8c-.2-.2-.5-.1-.7.1-.2.2-.1.5.1.7.6.5.9 1.2.9 1.9 0 1.4-1.1 2.5-2.5 2.5h-4c-.3 0-.5.2-.5.5s.2.5.5.5h4c1.9 0 3.5-1.6 3.5-3.5 0-1-.5-2-1.3-2.7z"/><path d="M-283 404h4.5c.3 0 .5-.2.5-.5s-.2-.5-.5-.5h-4.5v-16h16v16h-6.5c-.3 0-.5.2-.5.5s.2.5.5.5h6.5c.6 0 1-.4 1-1v-16c0-.6-.4-1-1-1h-16c-.6 0-1 .4-1 1v16c0 .6.4 1 1 1z"/></symbol><symbol id="clear" viewBox="-290 382 30 30"><path d="M-265 387h-2v-1c0-.6-.4-1-1-1h-17c-.6 0-1 .4-1 1v3c0 .6.4 1 1 1h2v1c0 .6.4 1 1 1h17c.6 0 1-.4 1-1v-3c0-.6-.4-1-1-1zm-20 2v-3h17v1h-14c-.6 0-1 .4-1 1v1h-2zm17 0h-14v-1h14v1zm0 0v.5-.5zm-14 2v-1h14c.6 0 1-.4 1-1v-1h2v3h-17zm17 .5v-.5.5zM-265 398h-20c-.6 0-1 .4-1 1v3c0 .6.4 1 1 1h20c.6 0 1-.4 1-1v-3c0-.6-.4-1-1-1zm-20 4v-3h20v3h-20zm20 .5v-.5.5zM-265 404h-20c-.6 0-1 .4-1 1v3c0 .6.4 1 1 1h20c.6 0 1-.4 1-1v-3c0-.6-.4-1-1-1zm-20 4v-3h20v3h-20zm20 .5v-.5.5zM-277.4 393.6l-2.1 2.2-2.1-2.2-.8.8 2.9 2.8 2.9-2.8"/></symbol><symbol id="code" viewBox="-290 382 30 30"><path d="M-277.8 393h8.3c.3 0 .5-.2.5-.5s-.2-.5-.5-.5h-8.3c-.3 0-.5.2-.5.5s.2.5.5.5zM-269.5 398h-12c-.3 0-.5.2-.5.5s.2.5.5.5h12c.3 0 .5-.2.5-.5s-.2-.5-.5-.5zM-275 404h-6.5c-.3 0-.5.2-.5.5s.2.5.5.5h6.5c.3 0 .5-.2.5-.5s-.2-.5-.5-.5zM-278.6 394.6l-2.2-2.1 2.2-2.1-.8-.8-2.8 2.9 2.8 2.9M-271.4 402.4l2.2 2.1-2.2 2.1.8.8 2.8-2.9-2.8-2.9M-272.95 400.89l.975.224-1.505 6.53-.975-.225z"/><path d="M-265.3 390l-5.7-5.7c-.2-.2-.5-.3-.7-.3h-11.8c-.8 0-1.5.7-1.5 1.5v23c0 .8.7 1.5 1.5 1.5h17c.8 0 1.5-.7 1.5-1.5v-17.8c0-.2-.1-.5-.3-.7zm-5.7-4.4l4.4 4.4h-3.9c-.3 0-.5-.2-.5-.5v-3.9zm4.5 23.4h-17c-.3 0-.5-.2-.5-.5v-23c0-.3.2-.5.5-.5h11.5v4.5c0 .8.7 1.5 1.5 1.5h4.5v17.5c0 .3-.2.5-.5.5z"/></symbol><symbol id="columnize" viewBox="-290 382 30 30"><path d="M-276.5 385h-6c-.3 0-.5.2-.5.5s.2.5.5.5h6c.3 0 .5-.2.5-.5s-.2-.5-.5-.5zM-273.5 386h9c.3 0 .5-.2.5-.5s-.2-.5-.5-.5h-9c-.3 0-.5.2-.5.5s.2.5.5.5zM-276.5 387h-9c-.3 0-.5.2-.5.5s.2.5.5.5h9c.3 0 .5-.2.5-.5s-.2-.5-.5-.5zM-264.5 387h-9c-.3 0-.5.2-.5.5s.2.5.5.5h9c.3 0 .5-.2.5-.5s-.2-.5-.5-.5zM-276.5 389h-9c-.3 0-.5.2-.5.5s.2.5.5.5h9c.3 0 .5-.2.5-.5s-.2-.5-.5-.5zM-264.5 389h-9c-.3 0-.5.2-.5.5s.2.5.5.5h9c.3 0 .5-.2.5-.5s-.2-.5-.5-.5zM-276.5 391h-9c-.3 0-.5.2-.5.5s.2.5.5.5h9c.3 0 .5-.2.5-.5s-.2-.5-.5-.5zM-264.5 391h-9c-.3 0-.5.2-.5.5s.2.5.5.5h9c.3 0 .5-.2.5-.5s-.2-.5-.5-.5zM-276.5 393h-9c-.3 0-.5.2-.5.5s.2.5.5.5h9c.3 0 .5-.2.5-.5s-.2-.5-.5-.5zM-273.5 394h7c.3 0 .5-.2.5-.5s-.2-.5-.5-.5h-7c-.3 0-.5.2-.5.5s.2.5.5.5zM-276.5 395h-9c-.3 0-.5.2-.5.5s.2.5.5.5h9c.3 0 .5-.2.5-.5s-.2-.5-.5-.5zM-264.5 395h-6c-.3 0-.5.2-.5.5s.2.5.5.5h6c.3 0 .5-.2.5-.5s-.2-.5-.5-.5zM-276.5 397h-9c-.3 0-.5.2-.5.5s.2.5.5.5h9c.3 0 .5-.2.5-.5s-.2-.5-.5-.5zM-264.5 397h-9c-.3 0-.5.2-.5.5s.2.5.5.5h9c.3 0 .5-.2.5-.5s-.2-.5-.5-.5zM-285.5 400h5c.3 0 .5-.2.5-.5s-.2-.5-.5-.5h-5c-.3 0-.5.2-.5.5s.2.5.5.5zM-264.5 399h-9c-.3 0-.5.2-.5.5s.2.5.5.5h9c.3 0 .5-.2.5-.5s-.2-.5-.5-.5zM-276.5 401h-6c-.3 0-.5.2-.5.5s.2.5.5.5h6c.3 0 .5-.2.5-.5s-.2-.5-.5-.5zM-264.5 401h-9c-.3 0-.5.2-.5.5s.2.5.5.5h9c.3 0 .5-.2.5-.5s-.2-.5-.5-.5zM-276.5 403h-9c-.3 0-.5.2-.5.5s.2.5.5.5h9c.3 0 .5-.2.5-.5s-.2-.5-.5-.5zM-267.5 403h-6c-.3 0-.5.2-.5.5s.2.5.5.5h6c.3 0 .5-.2.5-.5s-.2-.5-.5-.5zM-276.5 405h-9c-.3 0-.5.2-.5.5s.2.5.5.5h9c.3 0 .5-.2.5-.5s-.2-.5-.5-.5zM-276.5 407h-9c-.3 0-.5.2-.5.5s.2.5.5.5h9c.3 0 .5-.2.5-.5s-.2-.5-.5-.5z"/></symbol><symbol id="contact-form-7" viewBox="-290 382 30 30"><path d="M-265.3 390l-5.7-5.7c-.2-.2-.5-.3-.7-.3h-11.8c-.8 0-1.5.7-1.5 1.5v23c0 .8.7 1.5 1.5 1.5h17c.8 0 1.5-.7 1.5-1.5v-17.8c0-.2-.1-.5-.3-.7zm-5.7-4.4l4.4 4.4h-3.9c-.3 0-.5-.2-.5-.5v-3.9zm4.5 23.4h-17c-.3 0-.5-.2-.5-.5v-23c0-.3.2-.5.5-.5h11.5v4.5c0 .8.7 1.5 1.5 1.5h4.5v17.5c0 .3-.2.5-.5.5z"/><path d="M-270 393.6c0-.1 0-.1 0 0 0-.1 0-.1 0 0V393.3s0-.1-.1-.1c0 0 0-.1-.1-.1H-270.5h-9.1c-.3 0-.5.2-.5.5v2c0 .3.2.5.5.5s.5-.2.5-.5V394h7.5c-1.6 2.1-5.5 7.9-5.5 12.5 0 .3.2.5.5.5s.5-.2.5-.5c0-5.3 5.8-12.6 5.9-12.7v-.2h.2z"/></symbol><symbol id="container" viewBox="-290 382 30 30"><path d="M-266 397.4l2.1-11.4H-274v-1h1.5c.3 0 .5-.2.5-.5s-.2-.5-.5-.5h-5c-.3 0-.5.2-.5.5s.2.5.5.5h1.5v1h-10.1l1.1 5.1c.1.3.3.4.6.4.3-.1.4-.3.4-.6l-.9-3.9h19.8l-1.8 10h-1.6c-.3 0-.5.2-.5.5s.2.5.5.5h1.7l3.3 5h-2l-12.4-12.4c-.9-.9-2.6-.9-3.5 0l-4.2 4.2c-1 1-1 2.6 0 3.5l4.8 4.7h-5.8l1-1.7c.1-.2.1-.5-.2-.7-.3-.2-.5-.1-.7.2l-1.5 2.6v6.6h26v-6.7l-4-5.9zm-18.9.2c-.6-.6-.6-1.5 0-2.1l4.2-4.2c.6-.6 1.5-.6 2.1 0l11.8 11.7h-12.6l-5.5-5.4zM-287 409v-5h24v5h-24z"/><path d="M-272.5 406h-5c-.3 0-.5.2-.5.5s.2.5.5.5h5c.3 0 .5-.2.5-.5s-.2-.5-.5-.5z"/></symbol><symbol id="countdown-timer" viewBox="-290 382 30 30"><path d="M-265 407.3v-2.8c0-.3-.2-.5-.5-.5s-.5.2-.5.5v2.8l-1.6-1.6-.7.7 2.9 2.9 2.9-2.9-.7-.7-1.8 1.6zM-284.5 388h-2c-.8 0-1.5.7-1.5 1.5v5c0 .4.2.7.4 1-.2.3-.4.6-.4 1v5c0 .8.7 1.5 1.5 1.5h2c.8 0 1.5-.7 1.5-1.5v-5c0-.4-.2-.7-.4-1 .2-.3.4-.6.4-1v-5c0-.8-.7-1.5-1.5-1.5zm-2.5 1.5c0-.3.2-.5.5-.5h2c.3 0 .5.2.5.5v5c0 .3-.2.5-.5.5h-2c-.3 0-.5-.2-.5-.5v-5zm3 12c0 .3-.2.5-.5.5h-2c-.3 0-.5-.2-.5-.5v-5c0-.3.2-.5.5-.5h2c.3 0 .5.2.5.5v5zM-278.5 388h-2c-.8 0-1.5.7-1.5 1.5v5c0 .4.2.7.4 1-.2.3-.4.6-.4 1v5c0 .8.7 1.5 1.5 1.5h2c.8 0 1.5-.7 1.5-1.5v-5c0-.4-.2-.7-.4-1 .2-.3.4-.6.4-1v-5c0-.8-.7-1.5-1.5-1.5zm-2.5 1.5c0-.3.2-.5.5-.5h2c.3 0 .5.2.5.5v5c0 .3-.2.5-.5.5h-2c-.3 0-.5-.2-.5-.5v-5zm3 12c0 .3-.2.5-.5.5h-2c-.3 0-.5-.2-.5-.5v-5c0-.3.2-.5.5-.5h2c.3 0 .5.2.5.5v5zM-268 396.5c0-.4-.2-.7-.4-1 .2-.3.4-.6.4-1v-5c0-.8-.7-1.5-1.5-1.5h-2c-.8 0-1.5.7-1.5 1.5v5c0 .4.2.7.4 1-.2.3-.4.6-.4 1v5c0 .8.7 1.5 1.5 1.5h2c.8 0 1.5-.7 1.5-1.5v-5zm-4-7c0-.3.2-.5.5-.5h2c.3 0 .5.2.5.5v5c0 .3-.2.5-.5.5h-2c-.3 0-.5-.2-.5-.5v-5zm3 12c0 .3-.2.5-.5.5h-2c-.3 0-.5-.2-.5-.5v-5c0-.3.2-.5.5-.5h2c.3 0 .5.2.5.5v5zM-262 389.5c0-.8-.7-1.5-1.5-1.5h-2c-.8 0-1.5.7-1.5 1.5v5c0 .4.2.7.4 1-.2.3-.4.6-.4 1v5c0 .8.7 1.5 1.5 1.5h2c.8 0 1.5-.7 1.5-1.5v-5c0-.4-.2-.7-.4-1 .2-.3.4-.6.4-1v-5zm-4 0c0-.3.2-.5.5-.5h2c.3 0 .5.2.5.5v5c0 .3-.2.5-.5.5h-2c-.3 0-.5-.2-.5-.5v-5zm3 12c0 .3-.2.5-.5.5h-2c-.3 0-.5-.2-.5-.5v-5c0-.3.2-.5.5-.5h2c.3 0 .5.2.5.5v5z"/><circle cx="-275" cy="392" r="1"/><circle cx="-275" cy="398" r="1"/></symbol><symbol id="counter" viewBox="-290 382 30 30"><path d="M-263.6 390.6l-2.9-2.9-2.9 2.9.7.7 1.7-1.6v3.8c0 .3.2.5.5.5s.5-.2.5-.5v-3.8l1.6 1.6.8-.7zM-282 392c-2.2 0-4 1.8-4 4v6c0 2.2 1.8 4 4 4s4-1.8 4-4v-6c0-2.2-1.8-4-4-4zm-3 10v-6c0-.5.2-1 .4-1.5l4.5 9.8c-.5.4-1.2.7-1.9.7-1.7 0-3-1.3-3-3zm6 0c0 .5-.2 1-.4 1.5l-4.5-9.8c.5-.4 1.2-.7 1.9-.7 1.7 0 3 1.3 3 3v6zM-273 392c-2.2 0-4 1.8-4 4v6c0 2.2 1.8 4 4 4s4-1.8 4-4v-6c0-2.2-1.8-4-4-4zm-3 10v-6c0-.5.2-1 .4-1.5l4.5 9.8c-.5.4-1.2.7-1.9.7-1.7 0-3-1.3-3-3zm6 0c0 .5-.2 1-.4 1.5l-4.5-9.8c.5-.4 1.2-.7 1.9-.7 1.7 0 3 1.3 3 3v6z"/></symbol><symbol id="creative-cta" viewBox="-290 382 30 30"><path d="M-279.5 394h5c.3 0 .5-.2.5-.5s-.2-.5-.5-.5h-5c-.3 0-.5.2-.5.5s.2.5.5.5zM-270.5 396h-8c-.3 0-.5.2-.5.5s.2.5.5.5h8c.3 0 .5-.2.5-.5s-.2-.5-.5-.5zM-270.5 398h-9.5c-.3 0-.5.2-.5.5s.2.5.5.5h9.5c.3 0 .5-.2.5-.5s-.2-.5-.5-.5zM-270.5 400h-9.5c-.3 0-.5.2-.5.5s.2.5.5.5h9.5c.3 0 .5-.2.5-.5s-.2-.5-.5-.5zM-265.3 405h1.3v-1h-3v3h1v-1.3l2.1 2.1c.1.1.2.1.4.1s.3 0 .4-.1c.2-.2.2-.5 0-.7l-2.2-2.1zM-264 390v-1h-1.3l2.1-2.1c.2-.2.2-.5 0-.7-.2-.2-.5-.2-.7 0l-2.1 2.1V387h-1v3h3zM-286 404v1h1.3l-2.1 2.1c-.2.2-.2.5 0 .7 0 .2.2.2.3.2s.3 0 .4-.1l2.1-2.2v1.3h1v-3h-3zM-284 388.3l-2.1-2.2c-.2-.1-.6-.1-.8 0-.2.1-.1.6 0 .8l2.2 2.1h-1.3v1h3v-3h-1v1.3z"/><path d="M-269 391h-12c-.6 0-1 .4-1 1v10c0 .6.4 1 1 1h12c.6 0 1-.4 1-1v-10c0-.6-.4-1-1-1zm-12 11v-10h12v10h-12zm12 .5v-.5.5z"/></symbol><symbol id="custom-headline" viewBox="-290 382 30 30"><path d="M-285.5 389h9c.3 0 .5-.2.5-.5s-.2-.5-.5-.5h-9c-.3 0-.5.2-.5.5s.2.5.5.5zM-264.5 404h-9c-.3 0-.5.2-.5.5s.2.5.5.5h9c.3 0 .5-.2.5-.5s-.2-.5-.5-.5zM-270.5 396h-9c-.3 0-.5.2-.5.5s.2.5.5.5h9c.3 0 .5-.2.5-.5s-.2-.5-.5-.5z"/><circle cx="-274.5" cy="388.5" r=".5"/><circle cx="-272.5" cy="388.5" r=".5"/><circle cx="-270.5" cy="388.5" r=".5"/><circle cx="-268.5" cy="388.5" r=".5"/><circle cx="-266.5" cy="388.5" r=".5"/><circle cx="-264.5" cy="388.5" r=".5"/><circle cx="-285.5" cy="404.5" r=".5"/><circle cx="-283.5" cy="404.5" r=".5"/><circle cx="-281.5" cy="404.5" r=".5"/><circle cx="-279.5" cy="404.5" r=".5"/><circle cx="-277.5" cy="404.5" r=".5"/><circle cx="-275.5" cy="404.5" r=".5"/><circle cx="-268.5" cy="396.5" r=".5"/><circle cx="-266.5" cy="396.5" r=".5"/><circle cx="-264.5" cy="396.5" r=".5"/><circle cx="-285.5" cy="396.5" r=".5"/><circle cx="-283.5" cy="396.5" r=".5"/><circle cx="-281.5" cy="396.5" r=".5"/></symbol><symbol id="custom" viewBox="-290 382 30 30"><path d="M-262.1 403.9c0-.1 0-.1 0 0 .1-.1.1-.1.1-.2V390.4v-.1-.1-.1-.1h-.1l-12.2-6.6h-.4l-13 6.6h-.1V403.8s0 .1.1.1c0 0 .1 0 .1.1h.1l12.9 6.6c.1 0 .1.1.2.1s.2 0 .2-.1l11.9-6.6c.1 0 .1 0 .2-.1-.1 0-.1 0 0 0zm-12.4-19.5l10.9 6-10.9 6-11.8-6 11.8-6zm-12.4 6.8l11.9 6.1v12.1l-11.9-6.1v-12.1zm12.9 6.1l10.9-6.1v12.1l-10.9 6.1v-12.1z"/></symbol><symbol id="default" viewBox="-290 382 30 30"><path d="M-268.3 383.7h-13.3c-3.6 0-6.7 3-6.7 6.7v13.3c0 3.6 3 6.7 6.7 6.7h13.3c3.6 0 6.7-3 6.7-6.7v-13.3c-.1-3.7-3.1-6.7-6.7-6.7zm5.4 20c0 3-2.4 5.5-5.5 5.5h-13.3c-3 0-5.5-2.4-5.5-5.5v-13.3c0-3 2.4-5.5 5.5-5.5h13.3c3 0 5.5 2.4 5.5 5.5v13.3zm-12.1 3c-5.3 0-9.7-4.4-9.7-9.7s4.4-9.7 9.7-9.7 9.7 4.4 9.7 9.7-4.4 9.7-9.7 9.7zm0-18.2c-4.6 0-8.5 3.8-8.5 8.5s3.8 8.5 8.5 8.5 8.5-3.8 8.5-8.5-3.9-8.5-8.5-8.5z"/></symbol><symbol id="embedded-audio" viewBox="-290 382 30 30"><path d="M-272.5 393c-.3 0-.5.2-.5.5s.2.5.5.5c1.4 0 2.5-1.1 2.5-2.5s-1.1-2.5-2.5-2.5c-.3 0-.5.2-.5.5s.2.5.5.5c.8 0 1.5.7 1.5 1.5s-.7 1.5-1.5 1.5z"/><path d="M-272.5 396c2.5 0 4.5-2 4.5-4.5s-2-4.5-4.5-4.5c-.3 0-.5.2-.5.5s.2.5.5.5c1.9 0 3.5 1.6 3.5 3.5s-1.6 3.5-3.5 3.5c-.3 0-.5.2-.5.5s.2.5.5.5z"/><path d="M-272.5 398c3.6 0 6.5-2.9 6.5-6.5s-2.9-6.5-6.5-6.5c-.3 0-.5.2-.5.5s.2.5.5.5c3 0 5.5 2.5 5.5 5.5s-2.5 5.5-5.5 5.5c-.3 0-.5.2-.5.5s.2.5.5.5zM-283 395h3.3l3 3c.2.2.4.3.7.3.1 0 .3 0 .4-.1.4-.2.6-.5.6-.9v-11.6c0-.4-.2-.8-.6-.9-.4-.2-.8-.1-1.1.2l-3 3h-3.3c-.6 0-1 .4-1 1v5c0 .6.4 1 1 1zm7-9.3v11.6l-3-3v-5.6l3-3zm-7 3.3h3v5h-3v-5zM-278.5 399c-.3 0-.5.2-.5.5v5.8l-1.6-1.6-.7.7 2.9 2.9 2.9-2.9-.7-.7-1.8 1.6v-5.8c0-.3-.2-.5-.5-.5z"/><path d="M-264 400h-12.5c-.3 0-.5.2-.5.5s.2.5.5.5h12.5v7h-22v-7h5.5c.3 0 .5-.2.5-.5s-.2-.5-.5-.5h-5.5c-.6 0-1 .4-1 1v7c0 .6.4 1 1 1h22c.6 0 1-.4 1-1v-7c0-.6-.4-1-1-1z"/></symbol><symbol id="embedded-video" viewBox="-290 382 30 30"><path d="M-280.5 398h11c.8 0 1.5-.7 1.5-1.5v-10c0-.8-.7-1.5-1.5-1.5h-11c-.8 0-1.5.7-1.5 1.5v10c0 .8.7 1.5 1.5 1.5zm9.5-12h1.5c.3 0 .5.2.5.5v1.5h-2v-2zm0 3h2v2h-2v-2zm0 3h2v2h-2v-2zm0 3h2v1.5c0 .3-.2.5-.5.5h-1.5v-2zm-7-9h6v5h-6v-5zm0 6h6v5h-6v-5zm-3-5.5c0-.3.2-.5.5-.5h1.5v2h-2v-1.5zm0 2.5h2v2h-2v-2zm0 3h2v2h-2v-2zm0 3h2v2h-1.5c-.3 0-.5-.2-.5-.5V395zM-278.5 399c-.3 0-.5.2-.5.5v5.8l-1.6-1.6-.7.7 2.9 2.9 2.9-2.9-.7-.7-1.8 1.6v-5.8c0-.3-.2-.5-.5-.5z"/><path d="M-264 400h-12.5c-.3 0-.5.2-.5.5s.2.5.5.5h12.5v7h-22v-7h5.5c.3 0 .5-.2.5-.5s-.2-.5-.5-.5h-5.5c-.6 0-1 .4-1 1v7c0 .6.4 1 1 1h22c.6 0 1-.4 1-1v-7c0-.6-.4-1-1-1z"/></symbol><symbol id="envira-gallery" viewBox="-1388 3226 30 30"><path d="M-1371.2 3240.1c-1.9-4.3-3.7-8.8-10.7-10.1-.2 0-.5.1-.5.3-.1.2 0 .4.1.6 3.8 3.3 5.1 6 6.2 8.4 1.5 3.1 2.8 5.8 8.9 8.7h.2c.2 0 .3-.1.4-.2.1-.2.1-.5-.1-.7-2.3-1.7-3.4-4.3-4.5-7zm-4-1.3c-1-2.1-2.2-4.5-5.1-7.4 5 1.5 6.5 5.2 8.1 9.1.7 1.7 1.5 3.5 2.6 5-3.4-2.1-4.4-4.2-5.6-6.7z"/><path d="M-1364.9 3248.6c1.4-5.8.8-10.5-1.7-13.9-3.2-4.2-9.4-6.4-18.9-6.7h-.8l.3.7c.5 1.1.9 2.7 1.3 4.6 1.6 6.7 3.9 16.7 14.6 16.7 1.4 0 2.9-.2 4.4-.5l4.2 4h1.5l-4.9-4.9zm-1 0c-1.5.3-2.9.5-4.2.5-9.9-.1-12-9.3-13.6-16-.3-1.6-.7-3-1.1-4.1 8.8.4 14.5 2.5 17.4 6.3 2.3 3.2 2.8 7.6 1.5 13.3z"/></symbol><symbol id="essential-grid" viewBox="-1388 3226 30 30"><path d="M-1363.5 3228h-19c-1.9 0-3.5 1.6-3.5 3.5v19c0 1.9 1.6 3.5 3.5 3.5h19c1.9 0 3.5-1.6 3.5-3.5v-19c0-1.9-1.6-3.5-3.5-3.5zm2.5 22.5c0 1.4-1.1 2.5-2.5 2.5h-19c-1.4 0-2.5-1.1-2.5-2.5v-19c0-1.4 1.1-2.5 2.5-2.5h19c1.4 0 2.5 1.1 2.5 2.5v19z"/><path d="M-1374.6 3233.5h-4.8c-.6 0-1.1.5-1.1 1.1v4.8c0 .6.5 1.1 1.1 1.1h4.8c.6 0 1.1-.5 1.1-1.1v-4.8c0-.6-.5-1.1-1.1-1.1zm.1 5.9c0 .1 0 .1-.1.1h-4.8c-.1 0-.1 0-.1-.1v-4.8c0-.1 0-.1.1-.1h4.8c.1 0 .1 0 .1.1v4.8zM-1366.6 3233.5h-4.8c-.6 0-1.1.5-1.1 1.1v4.8c0 .6.5 1.1 1.1 1.1h4.8c.6 0 1.1-.5 1.1-1.1v-4.8c0-.6-.5-1.1-1.1-1.1zm.1 5.9c0 .1 0 .1 0 0l-4.9.1c-.1 0-.1 0-.1-.1v-4.8c0-.1 0-.1.1-.1h4.8c.1 0 .1 0 .1.1v4.8zM-1374.6 3241.5h-4.8c-.6 0-1.1.5-1.1 1.1v4.8c0 .6.5 1.1 1.1 1.1h4.8c.6 0 1.1-.5 1.1-1.1v-4.8c0-.6-.5-1.1-1.1-1.1zm.1 5.9c0 .1 0 .1-.1.1h-4.8c-.1 0-.1 0-.1-.1v-4.8c0-.1 0-.1.1-.1h4.8c.1 0 .1 0 .1.1v4.8zM-1366.6 3241.5h-4.8c-.6 0-1.1.5-1.1 1.1v4.8c0 .6.5 1.1 1.1 1.1h4.8c.6 0 1.1-.5 1.1-1.1v-4.8c0-.6-.5-1.1-1.1-1.1zm.1 5.9c0 .1 0 .1 0 0l-4.9.1c-.1 0-.1 0-.1-.1v-4.8c0-.1 0-.1.1-.1h4.8c.1 0 .1 0 .1.1v4.8z"/></symbol><symbol id="feature-box" viewBox="-290 382 30 30"><path d="M-275 393.1c2.3 0 4.1-1.8 4.1-4.1s-1.8-4.1-4.1-4.1-4.1 1.8-4.1 4.1 1.8 4.1 4.1 4.1zm-1.5-2.6c0-.8.7-1.5 1.5-1.5s1.5.7 1.5 1.5c0 .6-.3 1.1-.8 1.3-.2.1-.4.1-.7.1s-.5 0-.7-.1c-.5-.2-.8-.7-.8-1.3zm1.5-4.4c1.6 0 2.9 1.3 2.9 2.9 0 .5-.2 1-.4 1.5 0-1.4-1.1-2.5-2.5-2.5s-2.5 1.1-2.5 2.5c-.3-.5-.4-1-.4-1.5 0-1.6 1.3-2.9 2.9-2.9zM-280.5 396h11c.3 0 .5-.2.5-.5s-.2-.5-.5-.5h-11c-.3 0-.5.2-.5.5s.2.5.5.5zM-281.5 400h15c.3 0 .5-.2.5-.5s-.2-.5-.5-.5h-15c-.3 0-.5.2-.5.5s.2.5.5.5zM-266.5 401h-17c-.3 0-.5.2-.5.5s.2.5.5.5h17c.3 0 .5-.2.5-.5s-.2-.5-.5-.5zM-266.5 403h-17c-.3 0-.5.2-.5.5s.2.5.5.5h17c.3 0 .5-.2.5-.5s-.2-.5-.5-.5zM-266.5 405h-17c-.3 0-.5.2-.5.5s.2.5.5.5h17c.3 0 .5-.2.5-.5s-.2-.5-.5-.5zM-270.5 407h-13c-.3 0-.5.2-.5.5s.2.5.5.5h13c.3 0 .5-.2.5-.5s-.2-.5-.5-.5z"/></symbol><symbol id="feature-headline" viewBox="-290 382 30 30"><path d="M-282.5 386c-2.5 0-4.5 2-4.5 4.5s2 4.5 4.5 4.5 4.5-2 4.5-4.5-2-4.5-4.5-4.5zm0 8c-1.9 0-3.5-1.6-3.5-3.5s1.6-3.5 3.5-3.5 3.5 1.6 3.5 3.5-1.6 3.5-3.5 3.5zM-275.5 391h12c.3 0 .5-.2.5-.5s-.2-.5-.5-.5h-.5v-.5c0-.3-.2-.5-.5-.5s-.5.2-.5.5v.5h-1v-.5c0-.3-.2-.5-.5-.5s-.5.2-.5.5v.5h-1v-.5c0-.3-.2-.5-.5-.5s-.5.2-.5.5v.5h-1v-.5c0-.3-.2-.5-.5-.5s-.5.2-.5.5v.5h-1v-.5c0-.3-.2-.5-.5-.5s-.5.2-.5.5v.5h-1v-.5c0-.3-.2-.5-.5-.5s-.5.2-.5.5v.5h-.5c-.3 0-.5.2-.5.5s.2.5.5.5z"/><path d="M-284 392h3v-3h-3v3zm1-2h1v1h-1v-1zM-282.5 399c-2.5 0-4.5 2-4.5 4.5s2 4.5 4.5 4.5 4.5-2 4.5-4.5-2-4.5-4.5-4.5zm0 8c-1.9 0-3.5-1.6-3.5-3.5s1.6-3.5 3.5-3.5 3.5 1.6 3.5 3.5-1.6 3.5-3.5 3.5zM-263.5 403h-.5v-.5c0-.3-.2-.5-.5-.5s-.5.2-.5.5v.5h-1v-.5c0-.3-.2-.5-.5-.5s-.5.2-.5.5v.5h-1v-.5c0-.3-.2-.5-.5-.5s-.5.2-.5.5v.5h-1v-.5c0-.3-.2-.5-.5-.5s-.5.2-.5.5v.5h-1v-.5c0-.3-.2-.5-.5-.5s-.5.2-.5.5v.5h-1v-.5c0-.3-.2-.5-.5-.5s-.5.2-.5.5v.5h-.5c-.3 0-.5.2-.5.5s.2.5.5.5h12c.3 0 .5-.2.5-.5s-.2-.5-.5-.5z"/><path d="M-280.5 404.4c0-.1 0-.2-.1-.2v-.1l-1.5-2h-.1c-.1 0 0 0 0-.1h-.6v.1h-.1l-1.5 2v.6s0 .1.1.1c0 0 0 .1.1.1 0 .1.1.1.2.1h3c.1 0 .2 0 .3-.1l.1-.1.1-.1v-.1-.2c0 .1 0 .1 0 0 0 .1 0 .1 0 0zm-2-1.1l.5.7h-1l.5-.7z"/></symbol><symbol id="feature-list" viewBox="-290 382 30 30"><path d="M-284 385c-1.7 0-3 1.3-3 3 0 1.5 1.1 2.8 2.6 3h.4c1.7 0 3-1.3 3-3s-1.3-3-3-3zm-1 4c0-.6.4-1 1-1s1 .4 1 1-.4 1-1 1-1-.4-1-1zm2.9-.5c-.2-.9-1-1.5-1.9-1.5s-1.7.6-1.9 1.5c-.1-.2-.1-.3-.1-.5 0-1.1.9-2 2-2s2 .9 2 2c0 .2 0 .3-.1.5zM-284 394c-1.7 0-3 1.3-3 3 0 1.5 1.1 2.8 2.6 3h.4c1.7 0 3-1.3 3-3s-1.3-3-3-3zm-1 4c0-.6.4-1 1-1s1 .4 1 1-.4 1-1 1-1-.4-1-1zm2.9-.5c-.2-.9-1-1.5-1.9-1.5s-1.7.6-1.9 1.5c-.1-.2-.1-.3-.1-.5 0-1.1.9-2 2-2s2 .9 2 2c0 .2 0 .3-.1.5zM-284 403c-1.7 0-3 1.3-3 3 0 1.5 1.1 2.8 2.6 3h.4c1.7 0 3-1.3 3-3s-1.3-3-3-3zm-1 4c0-.6.4-1 1-1s1 .4 1 1-.4 1-1 1-1-.4-1-1zm2.9-.5c-.2-.9-1-1.5-1.9-1.5s-1.7.6-1.9 1.5c-.1-.2-.1-.3-.1-.5 0-1.1.9-2 2-2s2 .9 2 2c0 .2 0 .3-.1.5zM-278.5 386h5c.3 0 .5-.2.5-.5s-.2-.5-.5-.5h-5c-.3 0-.5.2-.5.5s.2.5.5.5zM-277 388.5c0 .3.2.5.5.5h13c.3 0 .5-.2.5-.5s-.2-.5-.5-.5h-13c-.3 0-.5.2-.5.5zM-278.5 391h12c.3 0 .5-.2.5-.5s-.2-.5-.5-.5h-12c-.3 0-.5.2-.5.5s.2.5.5.5zM-278.5 395h4c.3 0 .5-.2.5-.5s-.2-.5-.5-.5h-4c-.3 0-.5.2-.5.5s.2.5.5.5zM-263.5 397h-13c-.3 0-.5.2-.5.5s.2.5.5.5h13c.3 0 .5-.2.5-.5s-.2-.5-.5-.5zM-278.5 400h14c.3 0 .5-.2.5-.5s-.2-.5-.5-.5h-14c-.3 0-.5.2-.5.5s.2.5.5.5zM-278.5 404h7c.3 0 .5-.2.5-.5s-.2-.5-.5-.5h-7c-.3 0-.5.2-.5.5s.2.5.5.5zM-263.5 406h-13c-.3 0-.5.2-.5.5s.2.5.5.5h13c.3 0 .5-.2.5-.5s-.2-.5-.5-.5zM-271.5 408h-7c-.3 0-.5.2-.5.5s.2.5.5.5h7c.3 0 .5-.2.5-.5s-.2-.5-.5-.5z"/><circle cx="-284" cy="392.5" r=".5"/><circle cx="-284" cy="401.5" r=".5"/></symbol><symbol id="gap" viewBox="-290 382 30 30"><path d="M-262.5 384c-.3 0-.5.2-.5.5v4.5h-24v-4.5c0-.3-.2-.5-.5-.5s-.5.2-.5.5v5.5h26v-5.5c0-.3-.2-.5-.5-.5zM-288 409.5c0 .3.2.5.5.5s.5-.2.5-.5V408h24v1.5c0 .3.2.5.5.5s.5-.2.5-.5V407h-26v2.5zM-284.6 401.6l-.8.8 2.9 2.8 2.9-2.8-.8-.8-1.6 1.7v-9.6l1.6 1.7.8-.8-2.9-2.8-2.9 2.8.8.8 1.6-1.7v9.6M-269.6 401.6l-.8.8 2.9 2.8 2.9-2.8-.8-.8-1.6 1.7v-9.6l1.6 1.7.8-.8-2.9-2.8-2.9 2.8.8.8 1.6-1.7v9.6"/></symbol><symbol id="google-map" viewBox="-290 382 30 30"><path d="M-270.5 390h1c.3 0 .5-.2.5-.5s-.2-.5-.5-.5h-1c-.3 0-.5.2-.5.5s.2.5.5.5zM-265 389h-.5c-.3 0-.5.2-.5.5s.2.5.5.5h.5v14.3l-4.1-4.1-.1-.1h-4.2c-.3 0-.5.2-.5.5s.2.5.5.5h3.4v7l-15-.1v-7h.5c.3 0 .5-.2.5-.5s-.2-.5-.5-.5h-.5c-.6 0-1 .4-1 1v7c0 .3.1.5.3.7.2.2.4.3.7.3h15c.6 0 1-.4 1-1v-2h4.7c.1-.1.2-.1.3-.3V390c0-.6-.4-1-1-1zm-4 16v-3.3l3.3 3.3h-3.3z"/><path d="M-279 405.3l.4-.4c.2-.4 6.6-7.9 6.6-12.9 0-3.9-3.1-7-7-7s-7 3.1-7 7c0 5 6.3 12.5 6.6 12.8l.4.5zm0-19.3c3.3 0 6 2.7 6 6 0 4-4.6 10-6 11.7-1.4-1.7-6-7.7-6-11.7 0-3.3 2.7-6 6-6z"/><path d="M-275 392c0-2.2-1.8-4-4-4s-4 1.8-4 4 1.8 4 4 4 4-1.8 4-4zm-7 0c0-1.7 1.3-3 3-3s3 1.3 3 3-1.3 3-3 3-3-1.3-3-3zM-268 387.9v6.6c0 .3.2.5.5.5s.5-.2.5-.5v-6.6c.6-.2 1-.8 1-1.4 0-.8-.7-1.5-1.5-1.5s-1.5.7-1.5 1.5c0 .7.4 1.2 1 1.4zm.5-1.9c.3 0 .5.2.5.5s-.2.5-.5.5-.5-.2-.5-.5.2-.5.5-.5z"/></symbol><symbol id="gravity-forms" viewBox="-290 382 30 30"><path d="M-266.7 390.2l-6.5-3.8c-1.1-.6-2.4-.6-3.5 0l-6.6 3.8c-1.1.6-1.7 1.8-1.7 3v7.5c0 1.2.7 2.4 1.8 3l6.5 3.8c.5.3 1.1.5 1.8.5s1.2-.2 1.8-.5l6.5-3.8c1.1-.6 1.8-1.8 1.8-3v-7.5c-.2-1.2-.8-2.4-1.9-3zm.7 10.6c0 .9-.5 1.7-1.2 2.2l-6.5 3.8c-.8.4-1.7.4-2.5 0l-6.5-3.8c-.8-.5-1.3-1.3-1.3-2.2v-7.5c0-.9.5-1.7 1.2-2.2l6.5-3.8c.4-.2.9-.3 1.3-.3s.9.1 1.2.3l6.5 3.8c.8.4 1.2 1.3 1.2 2.2v7.5h.1z"/><path d="M-282 398.5v2.5h14v-4h-3v1h-7.9c.2-1.1 1.2-2 2.4-2h8.5v-3h-8.5c-3 0-5.5 2.5-5.5 5.5zm13-3.5h-7.5c-1.9 0-3.5 1.6-3.5 3.5v.5h10v-1h1v2h-12v-1.5c0-2.5 2-4.5 4.5-4.5h7.5v1z"/></symbol><symbol id="heading" viewBox="-290 382 30 30"><circle cx="-275" cy="395.5" r="1.5"/><path d="M-280.5 392h11c.3 0 .5-.2.5-.5s-.2-.5-.5-.5h-.5v-.5c0-.3-.2-.5-.5-.5s-.5.2-.5.5c0-.3-.2-.5-.5-.5s-.5.2-.5.5c0-.3-.2-.5-.5-.5s-.5.2-.5.5c0-.3-.2-.5-.5-.5s-.5.2-.5.5c0-.3-.2-.5-.5-.5s-.5.2-.5.5c0-.3-.2-.5-.5-.5s-.5.2-.5.5c0-.3-.2-.5-.5-.5s-.5.2-.5.5c0-.3-.2-.5-.5-.5s-.5.2-.5.5c0-.3-.2-.5-.5-.5s-.5.2-.5.5c0-.3-.2-.5-.5-.5s-.5.2-.5.5v.5h-.5c-.3 0-.5.2-.5.5s.2.5.5.5zM-272 395.5c0 .3.2.5.5.5h5c.3 0 .5-.2.5-.5s-.2-.5-.5-.5h-5c-.3 0-.5.2-.5.5zM-283.5 396h5c.3 0 .5-.2.5-.5s-.2-.5-.5-.5h-5c-.3 0-.5.2-.5.5s.2.5.5.5zM-264.5 400h-21c-.3 0-.5.2-.5.5s.2.5.5.5h21c.3 0 .5-.2.5-.5s-.2-.5-.5-.5zM-267.5 403h-15c-.3 0-.5.2-.5.5s.2.5.5.5h15c.3 0 .5-.2.5-.5s-.2-.5-.5-.5z"/></symbol><symbol id="icon-list" viewBox="-290 382 30 30"><path d="M-286 391h4c.6 0 1-.4 1-1v-4c0-.6-.4-1-1-1h-4c-.6 0-1 .4-1 1v4c0 .6.4 1 1 1zm4-1h-4v-4h4v4M-284 400c1.7 0 3-1.3 3-3s-1.3-3-3-3-3 1.3-3 3 1.3 3 3 3zm0-5c1.1 0 2 .9 2 2s-.9 2-2 2-2-.9-2-2 .9-2 2-2zM-283.1 403.2c-.4-.6-1.4-.6-1.7 0l-2.5 4.3c-.2.3-.2.7 0 1 .1.3.4.5.8.5h5c.4 0 .7-.2.9-.5.2-.3.2-.7 0-1l-2.5-4.3zm-3.4 4.8l2.5-4.3 2.5 4.3h-5zM-277.5 389h14.5c.3 0 .5-.2.5-.5s-.2-.5-.5-.5h-14.5c-.3 0-.5.2-.5.5s.2.5.5.5zM-263 397h-14.5c-.3 0-.5.2-.5.5s.2.5.5.5h14.5c.3 0 .5-.2.5-.5s-.2-.5-.5-.5zM-263 406h-14.5c-.3 0-.5.2-.5.5s.2.5.5.5h14.5c.3 0 .5-.2.5-.5s-.2-.5-.5-.5z"/></symbol><symbol id="icon" viewBox="-290 382 30 30"><path d="M-266 397.4l2.1-11.4H-274v-1h1.5c.3 0 .5-.2.5-.5s-.2-.5-.5-.5h-5c-.3 0-.5.2-.5.5s.2.5.5.5h1.5v1h-10.1l1.1 5.1c.1.3.3.4.6.4.3-.1.4-.3.4-.6l-.9-3.9h19.8l-1.8 10h-1.6c-.3 0-.5.2-.5.5s.2.5.5.5h1.7l3.3 5h-2l-12.4-12.4c-.9-.9-2.6-.9-3.5 0l-4.2 4.2c-1 1-1 2.6 0 3.5l4.8 4.7h-5.8l1-1.7c.1-.2.1-.5-.2-.7-.3-.2-.5-.1-.7.2l-1.5 2.6v6.6h26v-6.7l-4-5.9zm-18.9.2c-.6-.6-.6-1.5 0-2.1l4.2-4.2c.6-.6 1.5-.6 2.1 0l11.8 11.7h-12.6l-5.5-5.4zM-287 409v-5h24v5h-24z"/><path d="M-272.5 406h-5c-.3 0-.5.2-.5.5s.2.5.5.5h5c.3 0 .5-.2.5-.5s-.2-.5-.5-.5z"/></symbol><symbol id="image" viewBox="-290 382 30 30"><path d="M-266.5 388h-17c-.8 0-1.5.7-1.5 1.5v15c0 .8.7 1.5 1.5 1.5h17c.8 0 1.5-.7 1.5-1.5v-15c0-.8-.7-1.5-1.5-1.5zm.5 1.5v2.4c-.7.7-1.6 1.1-2.5 1.1-1.9 0-3.5-1.6-3.5-3.5 0-.2 0-.3.1-.5h5.4c.3 0 .5.2.5.5zm-17.5-.5h10.5v.5c0 2.5 2 4.5 4.5 4.5.9 0 1.8-.3 2.5-.8v6.1l-2.8-2.8c-.4-.4-1-.4-1.4 0l-2.8 2.8-4.8-4.8c-.4-.4-1-.4-1.4 0l-4.8 4.8v-9.8c0-.3.2-.5.5-.5zm-.5 15.5v-3.8l5.5-5.5 9.8 9.8h-14.8c-.3 0-.5-.2-.5-.5zm17.5.5h-.8l-5-5 2.8-2.8 3.5 3.5v3.8c0 .3-.2.5-.5.5z"/><path d="M-265.5 386h-19c-1.4 0-2.5 1.1-2.5 2.5v17c0 1.4 1.1 2.5 2.5 2.5h19c1.4 0 2.5-1.1 2.5-2.5v-17c0-1.4-1.1-2.5-2.5-2.5zm1.5 19.5c0 .8-.7 1.5-1.5 1.5h-19c-.8 0-1.5-.7-1.5-1.5v-17c0-.8.7-1.5 1.5-1.5h19c.8 0 1.5.7 1.5 1.5v17z"/></symbol><symbol id="info-table" viewBox="-290 382 30 30"><path d="M-266 385h-18c-.6 0-1 .4-1 1v21c0 .6.4 1 1 1h18c.6 0 1-.4 1-1v-21c0-.6-.4-1-1-1zm-18 22v-21h18v21h-18zm18 .5v-.5.5z"/><path d="M-278 394c0 1.7 1.3 3 3 3s3-1.3 3-3-1.3-3-3-3-3 1.3-3 3zm5 0c0 1.1-.9 2-2 2s-2-.9-2-2 .9-2 2-2 2 .9 2 2zM-278.5 389h7c.3 0 .5-.2.5-.5s-.2-.5-.5-.5h-7c-.3 0-.5.2-.5.5s.2.5.5.5zM-268.5 399h-11c-.3 0-.5.2-.5.5s.2.5.5.5h11c.3 0 .5-.2.5-.5s-.2-.5-.5-.5zM-268.5 401h-13c-.3 0-.5.2-.5.5s.2.5.5.5h13c.3 0 .5-.2.5-.5s-.2-.5-.5-.5zM-268.5 403h-13c-.3 0-.5.2-.5.5s.2.5.5.5h13c.3 0 .5-.2.5-.5s-.2-.5-.5-.5zM-271.5 405h-10c-.3 0-.5.2-.5.5s.2.5.5.5h10c.3 0 .5-.2.5-.5s-.2-.5-.5-.5z"/></symbol><symbol id="interactive-banner" viewBox="-290 382 30 30"><path d="M-265 385h-21v9h21v-9zm-1 8h-19v-7h19v7z"/><path d="M-282.5 391h10c.3 0 .5-.2.5-.5s-.2-.5-.5-.5h-10c-.3 0-.5.2-.5.5s.2.5.5.5zM-282.5 403h10c.3 0 .5-.2.5-.5s-.2-.5-.5-.5h-10c-.3 0-.5.2-.5.5s.2.5.5.5zM-269 404.5c0-.3-.2-.5-.5-.5h-11c-.3 0-.5.2-.5.5s.2.5.5.5h11c.3 0 .5-.2.5-.5zM-282.5 407h11c.3 0 .5-.2.5-.5s-.2-.5-.5-.5h-11c-.3 0-.5.2-.5.5s.2.5.5.5zM-281.6 395.6l-.8.8 2.9 2.8 2.9-2.8-.8-.8-2.1 2.2M-263.1 406.1l-2.2-2.1h1.3v-1h-3v3h1v-1.3l2.1 2.1c.1.1.2.1.4.1s.3 0 .4-.1c.1-.1.1-.5 0-.7z"/><path d="M-265.5 407c-.3 0-.5.2-.5.5v.5h-19v-7h19v.5c0 .3.2.5.5.5s.5-.2.5-.5V400h-21v9h21v-1.5c0-.3-.2-.5-.5-.5z"/></symbol><symbol id="layerslider" viewBox="-1388 3226 30 30"><path d="M-1373 3243.2l6.9-6.9c.3-.3.4-.7.4-1.1 0-.4-.2-.8-.4-1.1l-5.8-5.8c-.6-.6-1.6-.6-2.2 0l-5.8 5.9c-.3.3-.4.7-.4 1.1 0 .4.2.8.4 1.1l6.9 6.8zm-6.2-8.3l5.8-5.8c.1-.1.3-.1.4-.1s.3.1.4.2l5.8 5.8c.1.1.2.2.2.4 0 .1-.1.3-.2.4l-6.2 6-6.2-6.2c-.1-.1-.1-.2-.1-.3 0-.1 0-.3.1-.4z"/><path d="M-1360.4 3239.9l-2.6-2.6c-.6-.6-1.5-.6-2.1 0l-7.9 7.5-7.6-7.6c-.4-.4-.8-.5-1.1-.5-.6 0-1.1.4-1.3.9s-.1.9.2 1.3l9.5 9.5c.2.2.5.2.7 0l8.6-8.2.8.8-9.8 9.8-10.7-10.7c-.7-.7-1.8-.5-2.3.3-.2.4-.2.9 0 1.3 0 0 0 .1.1.1l11.8 11.8c.3.3.7.4 1.1.4s.8-.2 1.1-.4l11.6-11.6c.5-.5.5-1.5-.1-2.1zm-.7 1.5l-11.5 11.5c-.2.2-.5.2-.7 0l-11.8-11.7v-.3c.1-.2.5-.3.7-.1l11 11c.2.2.5.2.7 0l10.5-10.5c.2-.2.2-.5 0-.7l-1.5-1.5c-.2-.2-.5-.2-.7 0l-8.6 8.2-9.1-9.1v-.2c.1-.2.4-.5.8-.1l8 8c.2.2.5.2.7 0l8.3-7.8c.2-.2.5-.2.7 0l2.6 2.6c.1.1.1.5-.1.7z"/></symbol><symbol id="lightbox" viewBox="-290 382 30 30"><path d="M-275 386c-3.3 0-6 2.7-6 6 0 1.3.4 3.1 1.3 4.3 1 1.2 1.7 2.4 1.7 4.2v.5h6v-.7c0-1.6.5-3.2 1.5-4.5.9-1.2 1.5-2.8 1.5-3.8 0-3.3-2.7-6-6-6zm3.7 9.2c-1 1.4-1.6 3.1-1.7 4.8h-4c-.1-1.6-.7-2.9-1.9-4.4-.6-.7-1.1-2.3-1.1-3.6 0-2.8 2.2-5 5-5s5 2.2 5 5c0 .7-.5 2-1.3 3.2zM-272.5 402h-5c-.3 0-.5.2-.5.5s.2.5.5.5h5c.3 0 .5-.2.5-.5s-.2-.5-.5-.5zM-272.5 404h-5c-.3 0-.5.2-.5.5s.2.5.5.5h5c.3 0 .5-.2.5-.5s-.2-.5-.5-.5zM-274.5 406h-1c-.3 0-.5.2-.5.5s.2.5.5.5h1c.3 0 .5-.2.5-.5s-.2-.5-.5-.5z"/><path d="M-273.5 393h-3c-.3 0-.5.2-.5.5s.2.5.5.5h3c.3 0 .5-.2.5-.5s-.2-.5-.5-.5zM-266.5 389c-.3 0-.5.2-.5.5s.2.5.5.5h2.5v12h-5.5c-.3 0-.5.2-.5.5s.2.5.5.5h5.5c.3 0 .5-.1.7-.3.2-.2.3-.4.3-.7v-13h-3.5zM-280.5 402h-5.5v-12h2.5c.3 0 .5-.2.5-.5s-.2-.5-.5-.5h-3.5v13c0 .3.1.5.3.7.2.2.4.3.7.3h5.5c.3 0 .5-.2.5-.5s-.2-.5-.5-.5z"/></symbol><symbol id="line" viewBox="-290 382 30 30"><path d="M-281.5 387h16c.3 0 .5-.2.5-.5s-.2-.5-.5-.5h-16c-.3 0-.5.2-.5.5s.2.5.5.5zM-284.5 389h19c.3 0 .5-.2.5-.5s-.2-.5-.5-.5h-19c-.3 0-.5.2-.5.5s.2.5.5.5zM-284.5 391h19c.3 0 .5-.2.5-.5s-.2-.5-.5-.5h-19c-.3 0-.5.2-.5.5s.2.5.5.5zM-284.5 393h19c.3 0 .5-.2.5-.5s-.2-.5-.5-.5h-19c-.3 0-.5.2-.5.5s.2.5.5.5zM-284.5 395h11c.3 0 .5-.2.5-.5s-.2-.5-.5-.5h-11c-.3 0-.5.2-.5.5s.2.5.5.5zM-265.5 402h-16c-.3 0-.5.2-.5.5s.2.5.5.5h16c.3 0 .5-.2.5-.5s-.2-.5-.5-.5zM-265.5 404h-19c-.3 0-.5.2-.5.5s.2.5.5.5h19c.3 0 .5-.2.5-.5s-.2-.5-.5-.5zM-269.5 406h-15c-.3 0-.5.2-.5.5s.2.5.5.5h15c.3 0 .5-.2.5-.5s-.2-.5-.5-.5z"/><circle cx="-286.5" cy="398.5" r=".5"/><circle cx="-284.5" cy="398.5" r=".5"/><circle cx="-282.5" cy="398.5" r=".5"/><circle cx="-280.5" cy="398.5" r=".5"/><circle cx="-278.5" cy="398.5" r=".5"/><circle cx="-276.5" cy="398.5" r=".5"/><circle cx="-274.5" cy="398.5" r=".5"/><circle cx="-272.5" cy="398.5" r=".5"/><circle cx="-270.5" cy="398.5" r=".5"/><circle cx="-268.5" cy="398.5" r=".5"/><circle cx="-266.5" cy="398.5" r=".5"/><circle cx="-264.5" cy="398.5" r=".5"/><circle cx="-262.5" cy="398.5" r=".5"/></symbol><symbol id="mailchimp" viewBox="-290 382 30 30"><path d="M-264.3 401.9c-.1-.3-.4-.4-.6-.5-.1 0-.1 0-.2-.1v-.5c.5-.4.5-1.3.5-1.9 0-.9-1.8-1.9-2.5-2.3 0-2.2-.2-3.3-.5-3.9 0-.4 0-.9-.3-1.3.8-1 1.6-2.6 1.5-3.9-.1-.6-.4-1.2-.8-1.5-1.6-1.1-4.1-.2-5.2.3-.1-.1-.1-.2-.2-.2-.3-.4-.7-.8-1.1-1.1h-.1c-1.7-.6-3.8.4-7.5 3.6-3.8 3.2-4.2 5.9-4.2 6.9 0 .8.3 1.3.5 1.7-.3.5-.5 1.2-.5 1.8 0 1.3.7 2.4 1.8 3.1.5.3 1 .4 1.6.4.7 2 2.7 6.7 9.1 6.7.7 0 1.4 0 2.1-.2 1.7-.2 4.2-1.4 6.4-5.8.2-.5.4-.9.2-1.3zm-1.7-.2v.2l.1.1c-.7.5-1.7 1.3-2.3 1.5-1.5.4-4.1.3-4.6-.4-.1-.1-.2-.3.2-.8.3-.4.9-.5 2-.6 1.2-.1 2.8-.2 4.6-1.1v1.1zm.5-2.7v.2c-2.1 1.3-3.8 1.4-5.2 1.5-1.2.1-2.2.1-2.7 1-.6.9-.4 1.6-.1 2 .6.8 2 1.1 3.3 1.1.9 0 1.8-.1 2.4-.3.4-.1 1.4-.7 2.2-1.3-.3.6-.6 1.1-1 1.6-.5.3-2.7 1.7-4.4 1.7-2 0-3.4-1.1-4.3-3.2-.6-1.4.7-2.9 1.5-3.4l.6-.3-.5-.5c-.8-.8-.9-1.1-1.2-1.5-.1-.1-.1-.3-.2-.4-.4-.6-.5-1.3-.3-1.8.2-.6.8-1 1.5-1.2.8-.2 1.2-.1 1.7.1.3.1.7.2 1.2.2s.8-.3 1.1-.5c.3-.3.7-.5 1.6-.5.1.2.2.6.2 1.6-.1-.1-.3-.1-.5-.1-.6 0-1 .4-1 1s.4 1 1 1c.2 0 .3-.1.5-.2v.5l.3.1c1.2.6 2.2 1.4 2.3 1.6zm-2.3-12.1c.2.2.4.4.4.8.1.9-.6 2.3-1.2 3.1-1.3-1.1-2.8-1.7-5.5-1.3-2.8.5-5.9 4.4-7 6.1-.2-.1-.5-.1-.7-.1 2.6-4.3 4.3-5.4 9.5-8.1 1.4-.7 3.4-1.2 4.5-.5zm-12.9 2.5c3.2-2.8 5.2-3.8 6.5-3.4.3.2.6.5.9.8v.1c-5.2 2.6-6.8 3.9-9.7 8.8-.1 0-.3.1-.4.1-.4.2-.6.3-.9.6-.1-.2-.2-.5-.2-.9 0-.7.3-3.1 3.8-6.1zm9.6 18.6c-7 1-9.2-3.3-10.1-5.6.4-.1.8-.3 1.2-.5l-.4-.9c-.9.6-1.9.6-2.8.2-.8-.5-1.3-1.3-1.3-2.2 0-1 .6-1.9 1.5-2.3.9-.4 2-.2 3 .5-.6-.3-1.3-.3-1.9 0-.7.4-1.1 1.1-1.1 1.8s.4 1.3.9 1.7c.4.2.7.3 1.1.3.3 0 .7-.1 1-.2l-.4-.9c-.5.2-.9.1-1.1 0-.3-.2-.5-.6-.5-.9 0-.4.2-.7.5-.9.4-.2.8-.1 1.2.1l.6-.8h-.1l.6-.7c-.3-.3-.6-.5-.9-.6 1.1-1.7 3.9-5.1 6.2-5.5 2.9-.5 4 .3 5.1 1.4.2.2.3.4.3.7-1.1.1-1.6.4-2 .7-.2.2-.3.3-.5.3-.3 0-.6-.1-.9-.1-.5-.2-1.2-.3-2.2-.1s-1.8.9-2.1 1.8c-.2.6-.4 1.6.3 2.7.1.1.2.3.2.4.2.4.4.7.9 1.3-1.1.9-2.1 2.6-1.4 4.3 1.3 3.2 3.5 3.8 5.2 3.8.7 0 1.5-.2 2.3-.5-.9.3-1.7.6-2.4.7z"/><circle cx="-272" cy="397" r="1"/><circle cx="-269.5" cy="398.5" r=".5"/><circle cx="-268.5" cy="398.5" r=".5"/></symbol><symbol id="map-embed" viewBox="-290 382 30 30"><path d="M-275 385c-3.9 0-7 3.1-7 7 0 5 6.3 12.5 6.6 12.8l.4.4.4-.4c.2-.3 6.6-7.8 6.6-12.8 0-3.9-3.1-7-7-7zm0 18.7c-1.4-1.7-6-7.7-6-11.7 0-3.3 2.7-6 6-6s6 2.7 6 6c0 4-4.6 10-6 11.7z"/><path d="M-275 388c-2.2 0-4 1.8-4 4s1.8 4 4 4 4-1.8 4-4-1.8-4-4-4zm0 7c-1.7 0-3-1.3-3-3s1.3-3 3-3 3 1.3 3 3-1.3 3-3 3z"/></symbol><symbol id="modal" viewBox="-290 382 30 30"><path d="M-264 386h-22c-.6 0-1 .4-1 1v20c0 .6.4 1 1 1h22c.6 0 1-.4 1-1v-20c0-.6-.4-1-1-1zm-22 1h22v1h-22v-1zm0 2h22v16h-22v-16zm0 18v-1h22v1h-22zm22 .5v-.5.5z"/><path d="M-265.4 389.6l-1.6 1.7-1.6-1.7-.8.8 1.7 1.6-1.7 1.6.8.8 1.6-1.7 1.6 1.7.8-.8-1.7-1.6 1.7-1.6M-272 391h-6c-.6 0-1 .4-1 1v10c0 .6.4 1 1 1h6c.6 0 1-.4 1-1v-10c0-.6-.5-1-1-1zm0 3.8c-.3.1-.7.2-1 .2-1.8 0-3.2-1.3-3.5-3h4.5v2.8zm-5.5-2.8c.3 2.2 2.1 4 4.5 4 .3 0 .7 0 1-.1v2.4l-.8-.8c-.4-.4-1-.4-1.4 0l-1.3 1.3-2.5-2.5V392h.5zm-.5 5.7l4.3 4.3h-4.3v-4.3zm5.7 4.3l-2.5-2.5 1.3-1.3 1.5 1.5v2.3h-.3zm.3.5v-.5.5z"/></symbol><symbol id="pricing-table" viewBox="-290 382 30 30"><path d="M-264 388h-4.5c-.3 0-.5.2-.5.5s.2.5.5.5h4.5v2h-4.5c-.3 0-.5.2-.5.5s.2.5.5.5h4.5v15h-4.5c-.3 0-.5.2-.5.5s.2.5.5.5h4.5c.6 0 1-.4 1-1v-18c0-.6-.4-1-1-1zM-281.5 407h-4.5v-15h4.5c.3 0 .5-.2.5-.5s-.2-.5-.5-.5h-4.5v-2h4.5c.3 0 .5-.2.5-.5s-.2-.5-.5-.5h-4.5c-.6 0-1 .4-1 1v18c0 .6.4 1 1 1h4.5c.3 0 .5-.2.5-.5s-.2-.5-.5-.5zM-270 389.5V385c0-.6-.4-1-1-1h-8c-.6 0-1 .4-1 1v24c0 .6.4 1 1 1h8c.6 0 1-.4 1-1v-19.5zm-9 .5h8v4h-8v-4zm8-5v4h-8v-4h8zm0 24.5v-.5h-8v-14h8v14.5z"/><path d="M-272.5 398h-3c-.3 0-.5.2-.5.5s.2.5.5.5h3c.3 0 .5-.2.5-.5s-.2-.5-.5-.5zM-277.5 387h5c.3 0 .5-.2.5-.5s-.2-.5-.5-.5h-5c-.3 0-.5.2-.5.5s.2.5.5.5zM-272.5 400h-3c-.3 0-.5.2-.5.5s.2.5.5.5h3c.3 0 .5-.2.5-.5s-.2-.5-.5-.5zM-272.5 402h-3c-.3 0-.5.2-.5.5s.2.5.5.5h3c.3 0 .5-.2.5-.5s-.2-.5-.5-.5zM-269 397.5c0 .3.2.5.5.5h3c.3 0 .5-.2.5-.5s-.2-.5-.5-.5h-3c-.3 0-.5.2-.5.5zM-268.5 400h3c.3 0 .5-.2.5-.5s-.2-.5-.5-.5h-3c-.3 0-.5.2-.5.5s.2.5.5.5zM-268.5 402h3c.3 0 .5-.2.5-.5s-.2-.5-.5-.5h-3c-.3 0-.5.2-.5.5s.2.5.5.5zM-273 405h-4c-.6 0-1 .4-1 1v1c0 .6.4 1 1 1h4c.6 0 1-.4 1-1v-1c0-.6-.4-1-1-1zm-4 2v-1h4v1h-4zm4 .5v-.5.5zM-268.5 405c-.3 0-.5.2-.5.5s.2.5.5.5h2.5c.6 0 1-.4 1-1v-1c0-.6-.4-1-1-1h-2.5c-.3 0-.5.2-.5.5s.2.5.5.5h2.5v1h-2.5zM-281.5 404c.3 0 .5-.2.5-.5s-.2-.5-.5-.5h-2.5c-.6 0-1 .4-1 1v1c0 .6.4 1 1 1h2.5c.3 0 .5-.2.5-.5s-.2-.5-.5-.5h-2.5v-1h2.5z"/><circle cx="-275" cy="392" r="1"/><circle cx="-283" cy="394" r="1"/><circle cx="-267" cy="394" r="1"/><circle cx="-277.5" cy="398.5" r=".5"/><circle cx="-277.5" cy="400.5" r=".5"/><circle cx="-277.5" cy="402.5" r=".5"/><path d="M-281.5 397h-1c-.3 0-.5.2-.5.5s.2.5.5.5h1c.3 0 .5-.2.5-.5s-.2-.5-.5-.5zM-281.5 399h-1c-.3 0-.5.2-.5.5s.2.5.5.5h1c.3 0 .5-.2.5-.5s-.2-.5-.5-.5zM-281.5 401h-1c-.3 0-.5.2-.5.5s.2.5.5.5h1c.3 0 .5-.2.5-.5s-.2-.5-.5-.5z"/><circle cx="-284.5" cy="397.5" r=".5"/><circle cx="-284.5" cy="399.5" r=".5"/><circle cx="-284.5" cy="401.5" r=".5"/></symbol><symbol id="promo" viewBox="-290 382 30 30"><path d="M-267.5 385h-15c-.8 0-1.5.7-1.5 1.5v21c0 .8.7 1.5 1.5 1.5h15c.8 0 1.5-.7 1.5-1.5v-21c0-.8-.7-1.5-1.5-1.5zm.5 1.5v2.2c-.1.1-.2.1-.3.1-.1 0-.1.1-.2.1h-.2c-.7.1-1.3-.1-1.7-.5s-.6-1.1-.6-1.7v-.2c0-.1 0-.2.1-.2 0-.1.1-.2.1-.3h2.2c.4 0 .6.2.6.5zm-16 0c0-.3.2-.5.5-.5h11.7c-.1.3-.2.7-.2 1 0 1.7 1.3 3 3 3 .3 0 .7-.1 1-.2v2.2h-2.3l-2.6-2.6c-.6-.6-1.5-.6-2.1 0l-1.2 1.2-2.7-2.7c-.6-.6-1.5-.6-2.1 0l-3 2.9v-4.3zm3.6 2.1c.2-.2.5-.2.7 0l3.4 3.4 1.9-1.9c.2-.2.5-.2.7 0l1.9 1.9h-12l3.4-3.4zm12.4 18.9c0 .3-.2.5-.5.5h-15c-.3 0-.5-.2-.5-.5V393h16v14.5z"/><path d="M-269.5 394h-8c-.3 0-.5.2-.5.5s.2.5.5.5h8c.3 0 .5-.2.5-.5s-.2-.5-.5-.5zM-269.5 396h-11c-.3 0-.5.2-.5.5s.2.5.5.5h11c.3 0 .5-.2.5-.5s-.2-.5-.5-.5zM-269.5 398h-11c-.3 0-.5.2-.5.5s.2.5.5.5h11c.3 0 .5-.2.5-.5s-.2-.5-.5-.5zM-271.5 401c.3 0 .5-.2.5-.5s-.2-.5-.5-.5h-9c-.3 0-.5.2-.5.5s.2.5.5.5h9zM-270.5 403h-9c-.8 0-1.5.7-1.5 1.5v1c0 .8.7 1.5 1.5 1.5h9c.8 0 1.5-.7 1.5-1.5v-1c0-.8-.7-1.5-1.5-1.5zm.5 2.5c0 .3-.2.5-.5.5h-9c-.3 0-.5-.2-.5-.5v-1c0-.3.2-.5.5-.5h9c.3 0 .5.2.5.5v1z"/></symbol><symbol id="prompt" viewBox="-290 382 30 30"><path d="M-265.5 390h-19c-1.4 0-2.5 1.1-2.5 2.5v9c0 1.4 1.1 2.5 2.5 2.5h19c1.4 0 2.5-1.1 2.5-2.5v-9c0-1.4-1.1-2.5-2.5-2.5zm1.5 11.5c0 .8-.7 1.5-1.5 1.5h-19c-.8 0-1.5-.7-1.5-1.5v-9c0-.8.7-1.5 1.5-1.5h19c.8 0 1.5.7 1.5 1.5v9z"/><path d="M-283.6 394h3.1c.3 0 .5-.2.5-.5s-.2-.5-.5-.5h-3.1c-.3 0-.5.2-.5.5s.2.5.5.5zM-275.5 396h-7c-.3 0-.5.2-.5.5s.2.5.5.5h7c.3 0 .5-.2.5-.5s-.2-.5-.5-.5zM-275.5 398h-8.1c-.3 0-.5.2-.5.5s.2.5.5.5h8.1c.3 0 .5-.2.5-.5s-.2-.5-.5-.5zM-279.5 400h-4.1c-.3 0-.5.2-.5.5s.2.5.5.5h4.1c.3 0 .5-.2.5-.5s-.2-.5-.5-.5zM-267 396h-5c-.6 0-1 .4-1 1v1c0 .6.4 1 1 1h5c.6 0 1-.4 1-1v-1c0-.6-.4-1-1-1zm-5 2v-1h5v1h-5zm5 .5v-.5.5z"/></symbol><symbol id="protect" viewBox="-290 382 30 30"><path d="M-269 393.3V390c0-3.3-2.7-6-6-6s-6 2.7-6 6v3.3c-1.8 1.6-3 4-3 6.7 0 5 4 9 9 9s9-4 9-9c0-2.7-1.2-5-3-6.7zm-11-3.3c0-2.8 2.2-5 5-5s5 2.2 5 5.1v2.4c-1.4-1-3.2-1.5-5-1.5s-3.6.6-5 1.5V390zm5 18c-4.4 0-8-3.6-8-8s3.6-8 8-8 8 3.6 8 8-3.6 8-8 8z"/><path d="M-275 397c-1.7 0-3 1.3-3 3 0 1.3.8 2.4 2 2.8v3.2h2v-3.2c1.2-.4 2-1.5 2-2.8 0-1.7-1.3-3-3-3zm0 5c-1.1 0-2-.9-2-2s.9-2 2-2 2 .9 2 2-.9 2-2 2z"/></symbol><symbol id="pullquote" viewBox="-290 382 30 30"><path d="M-262.5 403h-25c-.3 0-.5.2-.5.5s.2.5.5.5h25c.3 0 .5-.2.5-.5s-.2-.5-.5-.5zM-262.5 400h-25c-.3 0-.5.2-.5.5s.2.5.5.5h25c.3 0 .5-.2.5-.5s-.2-.5-.5-.5zM-262.5 397h-7c-.3 0-.5.2-.5.5s.2.5.5.5h7c.3 0 .5-.2.5-.5s-.2-.5-.5-.5zM-262.5 394h-7c-.3 0-.5.2-.5.5s.2.5.5.5h7c.3 0 .5-.2.5-.5s-.2-.5-.5-.5zM-262.5 391h-7c-.3 0-.5.2-.5.5s.2.5.5.5h7c.3 0 .5-.2.5-.5s-.2-.5-.5-.5zM-269.5 389h7c.3 0 .5-.2.5-.5s-.2-.5-.5-.5h-7c-.3 0-.5.2-.5.5s.2.5.5.5zM-274.5 406h-13c-.3 0-.5.2-.5.5s.2.5.5.5h13c.3 0 .5-.2.5-.5s-.2-.5-.5-.5zM-284 398.6c2.2 0 4-1.8 4-4 0-1.8-1.2-3.4-2.9-3.9.2-.3.9-1.2 1.5-1.8.2-.2.3-.6.2-.9-.1-.3-.4-.5-.8-.5h-.2c-3.3.7-5.8 3.6-5.8 7.1 0 2.2 1.8 4 4 4zm1.5-10c-.6.7-1.5 1.8-1.4 2.5.1.3.3.5.6.5 1.4.4 2.3 1.6 2.3 3 0 1.7-1.4 3-3 3s-3-1.4-3-3c0-2.8 1.9-5.2 4.5-6zM-275 398.6c2.2 0 4-1.8 4-4 0-1.8-1.2-3.4-2.9-3.9.2-.4.8-1.2 1.4-1.8.2-.2.3-.6.2-.9-.1-.3-.4-.5-.8-.5h-.2c-3.3.7-5.7 3.6-5.7 7.1 0 2.2 1.8 4 4 4zm1.4-10c-.6.7-1.5 1.8-1.3 2.5.1.3.3.5.6.5 1.4.3 2.3 1.5 2.3 2.9 0 1.7-1.4 3-3 3s-3-1.4-3-3c0-2.7 1.8-5.1 4.4-5.9z"/></symbol><symbol id="raw-content" viewBox="-290 382 30 30"><path d="M-282.6 398.4l-.8-.8 3.2-3.1-3.2-3.1.8-.8 3.8 3.9"/><path d="M-264 408h-22c-.6 0-1-.4-1-1v-20c0-.6.4-1 1-1h22c.6 0 1 .4 1 1v20c0 .6-.4 1-1 1zm0-1v.5-.5zm-22-20v20h22v-20h-22z"/><path d="M-279 397h5v1h-5z"/></symbol><symbol id="raw-html" viewBox="-290 382 30 30"><path d="M-269.4 400.4l2.2 2.1-2.2 2.1.8.8 2.8-2.9-2.8-2.9M-281.4 399.6l-2.8 2.9 2.8 2.9.8-.8-2.2-2.1 2.2-2.1M-271.983 398.91l.95.317-1.993 5.977-.95-.316zM-283.5 397c.3 0 .5-.2.5-.5V393h1v3.5c0 .3.2.5.5.5s.5-.2.5-.5v-7c0-.3-.2-.5-.5-.5s-.5.2-.5.5v2.5h-1v-2.5c0-.3-.2-.5-.5-.5s-.5.2-.5.5v7c0 .3.2.5.5.5zM-277.5 389h-2c-.3 0-.5.2-.5.5s.2.5.5.5h.5v6.5c0 .3.2.5.5.5s.5-.2.5-.5V390h.5c.3 0 .5-.2.5-.5s-.2-.5-.5-.5zM-268.5 397h2c.3 0 .5-.2.5-.5s-.2-.5-.5-.5h-1.5v-6.5c0-.3-.2-.5-.5-.5s-.5.2-.5.5v7c0 .3.2.5.5.5z"/><path d="M-264 386h-22c-.6 0-1 .4-1 1v20c0 .6.4 1 1 1h22c.6 0 1-.4 1-1v-20c0-.6-.4-1-1-1zm-22 21v-20h22v20h-22zm22 .5v-.5.5z"/><path d="M-272.5 389c-.4 0-.7.2-1 .4-.3-.2-.6-.4-1-.4-.8 0-1.5.7-1.5 1.5v6c0 .3.2.5.5.5s.5-.2.5-.5v-6c0-.3.2-.5.5-.5s.5.2.5.5v6c0 .3.2.5.5.5s.5-.2.5-.5v-6c0-.3.2-.5.5-.5s.5.2.5.5v6c0 .3.2.5.5.5s.5-.2.5-.5v-6c0-.8-.7-1.5-1.5-1.5z"/></symbol><symbol id="recent-posts" viewBox="-290 382 30 30"><path d="M-274 394.5c0-.3-.2-.5-.5-.5h-7c-.3 0-.5.2-.5.5s.2.5.5.5h7c.3 0 .5-.2.5-.5zM-274.5 389h-7c-.3 0-.5.2-.5.5s.2.5.5.5h7c.3 0 .5-.2.5-.5s-.2-.5-.5-.5zM-281.5 400h4c.3 0 .5-.2.5-.5s-.2-.5-.5-.5h-4c-.3 0-.5.2-.5.5s.2.5.5.5zM-281.5 405h5c.3 0 .5-.2.5-.5s-.2-.5-.5-.5h-5c-.3 0-.5.2-.5.5s.2.5.5.5z"/><path d="M-265.5 407c-.3 0-.5.2-.5.5v1c0 .3-.2.5-.5.5h-17c-.3 0-.5-.2-.5-.5v-23c0-.3.2-.5.5-.5h11.5v4.5c0 .8.7 1.5 1.5 1.5h4.5v2.5c0 .3.2.5.5.5s.5-.2.5-.5v-2.8c0-.3-.1-.5-.3-.7l-5.7-5.7c-.2-.2-.5-.3-.7-.3h-11.8c-.8 0-1.5.7-1.5 1.5v23c0 .8.7 1.5 1.5 1.5h17c.8 0 1.5-.7 1.5-1.5v-1c0-.3-.2-.5-.5-.5zm-1.1-17h-3.9c-.3 0-.5-.2-.5-.5v-3.9l4.4 4.4z"/><path d="M-269.5 394c-3.6 0-6.5 2.9-6.5 6.5s2.9 6.5 6.5 6.5 6.5-2.9 6.5-6.5-2.9-6.5-6.5-6.5zm0 12c-3 0-5.5-2.5-5.5-5.5s2.5-5.5 5.5-5.5 5.5 2.5 5.5 5.5-2.5 5.5-5.5 5.5z"/><path d="M-266.5 400h-2.5v-3.5c0-.3-.2-.5-.5-.5s-.5.2-.5.5v4c0 .3.2.5.5.5h3c.3 0 .5-.2.5-.5s-.2-.5-.5-.5z"/></symbol><symbol id="revolution-slider" viewBox="-290 382 30 30"><path d="M-264 397h-3c-.5 0-.9.4-1 .9-.5 3.5-3.5 6.1-7 6.1-1.9 0-3.8-.8-5.1-2.2l2.1-2.1c.3-.3.4-.7.2-1.1-.2-.4-.5-.6-.9-.6h-7.3c-.6 0-1 .4-1 1v7.3c0 .4.2.8.6.9.4.2.8.1 1.2-.3l1.6-1.6c2.3 2.4 5.3 3.7 8.6 3.7 6.3 0 11.4-4.7 12-10.9 0-.3-.1-.6-.3-.8-.2-.2-.5-.3-.7-.3zm-11 11c-3 0-5.8-1.2-7.9-3.4-.2-.2-.4-.3-.7-.3-.3 0-.5.1-.7.3l-1.7 1.7V399h7.3l-2.1 2.1c-.4.4-.4 1 0 1.4 1.5 1.6 3.6 2.5 5.8 2.5 4 0 7.4-3 7.9-7h3c-.5 5.7-5.2 10-10.9 10zM-263.6 387.8c-.4-.2-.8-.1-1.1.2l-1.2 1.2c-2.3-2.7-5.6-4.2-9.1-4.2-6.3 0-11.4 4.7-12 10.9 0 .3.1.6.3.8.2.2.5.3.7.3h3c.5 0 .9-.4 1-.9.5-3.5 3.5-6.1 7-6.1 2.2 0 4.2 1 5.6 2.7l-1.6 1.6c-.3.3-.4.7-.2 1.1.2.4.5.6.9.6h6.3c.6 0 1-.4 1-1v-6.3c0-.4-.2-.8-.6-.9zm-19.3 8.7v-.5.5zm18.9-1.5h-6.3l1.6-1.6c.4-.4.4-.9.1-1.3-1.6-2-3.9-3.1-6.4-3.1-4 0-7.4 3-7.9 7h-3c.5-5.7 5.2-10 10.9-10 3.2 0 6.3 1.4 8.3 3.8.2.2.4.3.8.4.3 0 .5-.1.7-.3l1.2-1.2v6.3z"/></symbol><symbol id="search" viewBox="-290 382 30 30"><path d="M-279 387c-3.3 0-6 2.7-6 6s2.7 6 6 6 6-2.7 6-6-2.7-6-6-6zm0 11c-2.8 0-5-2.2-5-5s2.2-5 5-5 5 2.2 5 5-2.2 5-5 5z"/><path d="M-264.1 404.1l-5.8-5.8c-.4-.4-1-.4-1.4 0l-.4.4-.9-.9c1-1.3 1.6-3 1.6-4.7 0-4.4-3.6-8-8-8s-8 3.6-8 8 3.6 8 8 8c2.3 0 4.3-1 5.8-2.5l.9.9-.4.4c-.4.4-.4 1 0 1.4l5.8 5.8c.2.2.4.3.7.3.3 0 .5-.1.7-.3l1.4-1.4c.4-.6.4-1.2 0-1.6zM-279 400c-3.9 0-7-3.1-7-7s3.1-7 7-7 7 3.1 7 7-3.1 7-7 7zm12.8 6.2l-5.8-5.8 1.4-1.4 5.8 5.8-1.4 1.4z"/></symbol><symbol id="self-hosted-audio" viewBox="-290 382 30 30"><path d="M-272.5 398c-.3 0-.5.2-.5.5s.2.5.5.5c1.4 0 2.5-1.1 2.5-2.5s-1.1-2.5-2.5-2.5c-.3 0-.5.2-.5.5s.2.5.5.5c.8 0 1.5.7 1.5 1.5s-.7 1.5-1.5 1.5z"/><path d="M-272.5 401c2.5 0 4.5-2 4.5-4.5s-2-4.5-4.5-4.5c-.3 0-.5.2-.5.5s.2.5.5.5c1.9 0 3.5 1.6 3.5 3.5s-1.6 3.5-3.5 3.5c-.3 0-.5.2-.5.5s.2.5.5.5z"/><path d="M-272.5 403c3.6 0 6.5-2.9 6.5-6.5s-2.9-6.5-6.5-6.5c-.3 0-.5.2-.5.5s.2.5.5.5c3 0 5.5 2.5 5.5 5.5s-2.5 5.5-5.5 5.5c-.3 0-.5.2-.5.5s.2.5.5.5zM-283 400h3.3l3 3c.2.2.4.3.7.3.1 0 .3 0 .4-.1.4-.2.6-.5.6-.9v-11.6c0-.4-.2-.8-.6-.9-.4-.2-.8-.1-1.1.2l-3 3h-3.3c-.6 0-1 .4-1 1v5c0 .6.4 1 1 1zm4-6.3l3-3v11.6l-3-3v-5.6zm-4 .3h3v5h-3v-5z"/><path d="M-263.5 398c-.3 0-.5.2-.5.5v6.5h-22v-6.5c0-.3-.2-.5-.5-.5s-.5.2-.5.5v6.5c0 .6.4 1 1 1h22c.6 0 1-.4 1-1v-6.5c0-.3-.2-.5-.5-.5z"/></symbol><symbol id="self-hosted-video" viewBox="-290 382 30 30"><path d="M-280.5 403h11c.8 0 1.5-.7 1.5-1.5v-10c0-.8-.7-1.5-1.5-1.5h-11c-.8 0-1.5.7-1.5 1.5v10c0 .8.7 1.5 1.5 1.5zm1.5-4h-2v-2h2v2zm1-2h6v5h-6v-5zm7 0h2v2h-2v-2zm2-1h-2v-2h2v2zm-3 0h-6v-5h6v5zm-7 0h-2v-2h2v2zm-2 5.5V400h2v2h-1.5c-.3 0-.5-.2-.5-.5zm11.5.5h-1.5v-2h2v1.5c0 .3-.2.5-.5.5zm.5-10.5v1.5h-2v-2h1.5c.3 0 .5.2.5.5zm-11.5-.5h1.5v2h-2v-1.5c0-.3.2-.5.5-.5z"/><path d="M-264.5 398c-.3 0-.5.2-.5.5v6.5h-20v-6.5c0-.3-.2-.5-.5-.5s-.5.2-.5.5v6.5c0 .6.4 1 1 1h20c.6 0 1-.4 1-1v-6.5c0-.3-.2-.5-.5-.5z"/></symbol><symbol id="skill-bar" viewBox="-290 382 30 30"><path d="M-263 385h-24c-.6 0-1 .4-1 1v3c0 .6.4 1 1 1h24c.6 0 1-.4 1-1v-3c0-.6-.4-1-1-1zm-24 4v-3h24v3h-24zm24 .5v-.5.5zM-263 391h-24c-.6 0-1 .4-1 1v3c0 .6.4 1 1 1h24c.6 0 1-.4 1-1v-3c0-.6-.4-1-1-1zm-24 4v-3h24v3h-24zm24 .5v-.5.5zM-263 397h-24c-.6 0-1 .4-1 1v3c0 .6.4 1 1 1h24c.6 0 1-.4 1-1v-3c0-.6-.4-1-1-1zm-24 4v-3h24v3h-24zm24 .5v-.5.5zM-263 403h-24c-.6 0-1 .4-1 1v3c0 .6.4 1 1 1h24c.6 0 1-.4 1-1v-3c0-.6-.4-1-1-1zm-24 4v-3h24v3h-24zm24 .5v-.5.5z"/><path d="M-267.5 387h-18c-.3 0-.5.2-.5.5s.2.5.5.5h18c.3 0 .5-.2.5-.5s-.2-.5-.5-.5zM-278.5 393h-7c-.3 0-.5.2-.5.5s.2.5.5.5h7c.3 0 .5-.2.5-.5s-.2-.5-.5-.5zM-272.5 399h-13c-.3 0-.5.2-.5.5s.2.5.5.5h13c.3 0 .5-.2.5-.5s-.2-.5-.5-.5zM-265.5 405h-20c-.3 0-.5.2-.5.5s.2.5.5.5h20c.3 0 .5-.2.5-.5s-.2-.5-.5-.5z"/></symbol><symbol id="slider" viewBox="-290 382 30 30"><path d="M-266 387h-18c-.6 0-1 .4-1 1v10c0 .6.4 1 1 1h18c.6 0 1-.4 1-1v-10c0-.6-.4-1-1-1zm0 1.9c-.7.7-1.6 1.1-2.5 1.1-1.4 0-2.6-.8-3.2-2h5.7v.9zm-6.7-.9c.6 1.8 2.3 3 4.2 3 .9 0 1.8-.3 2.5-.8v5.1l-2.8-2.8c-.4-.4-1-.4-1.4 0l-2.8 2.8-4.8-4.8c-.4-.4-1-.4-1.4 0l-4.8 4.8V388h11.3zm-11.3 8.7l5.5-5.5 6.8 6.8H-284v-1.3zm13.7 1.3l-2-2 2.8-2.8 3.5 3.5v1.3h-4.3zm4.3.5v-.5.5z"/><path d="M-265.5 385h-19c-1.4 0-2.5 1.1-2.5 2.5v11c0 1.4 1.1 2.5 2.5 2.5h19c1.4 0 2.5-1.1 2.5-2.5v-11c0-1.4-1.1-2.5-2.5-2.5zm1.5 13.5c0 .8-.7 1.5-1.5 1.5h-19c-.8 0-1.5-.7-1.5-1.5v-11c0-.8.7-1.5 1.5-1.5h19c.8 0 1.5.7 1.5 1.5v11zM-268.4 403.4l2.2 2.1-2.2 2.1.8.8 2.8-2.9-2.8-2.9M-281.6 403.4l-.8-.8-2.8 2.9 2.8 2.9.8-.8-2.2-2.1"/><path d="M-278.5 405h-3c-.3 0-.5.2-.5.5s.2.5.5.5h3c.3 0 .5-.2.5-.5s-.2-.5-.5-.5zM-273.5 405h-3c-.3 0-.5.2-.5.5s.2.5.5.5h3c.3 0 .5-.2.5-.5s-.2-.5-.5-.5zM-268 405.5c0-.3-.2-.5-.5-.5h-3c-.3 0-.5.2-.5.5s.2.5.5.5h3c.3 0 .5-.2.5-.5z"/></symbol><symbol id="social-sharing" viewBox="-290 382 30 30"><path d="M-276 386.7v15.8c0 .3.2.5.5.5s.5-.2.5-.5v-15.8l2.6 2.6.7-.7-3.9-3.9-3.9 3.9.7.7 2.8-2.6z"/><path d="M-267 392h-4.5c-.3 0-.5.2-.5.5s.2.5.5.5h4.5v15h-17v-15h4.5c.3 0 .5-.2.5-.5s-.2-.5-.5-.5h-4.5c-.3 0-.5.1-.7.3-.2.2-.3.4-.3.7v15c0 .5.4 1 1 1h17c.5 0 1-.4 1-1v-15c0-.5-.5-1-1-1z"/></symbol><symbol id="soliloquy" viewBox="-290 382 30 30"><path d="M-280.7 398.3c-.6-1-.4-2.2.4-3l2.3-2.3v-3h-3.5l-3.1 3.1c-2.1 2.1-2.1 5.6 0 7.8l1.6 1.6V399h2.8l-.5-.7zm-3.3-.3v2c-1.6-1.8-1.6-4.5.1-6.2l2.8-2.8h2.1v1.5l-2 2c-.9.9-1.2 2.3-.9 3.5h-2.1z"/><path d="M-277 391.8l.7-.4c1-.5 2.2-.4 3 .4l2.3 2.2h3v-3.5l-3.1-3.1c-1-1-2.4-1.6-3.9-1.6s-2.9.6-3.9 1.6l-1.6 1.6h3.5v2.8zm-1-3.8c.8-.8 1.9-1.2 3-1.2 1.2 0 2.3.5 3.2 1.3l2.8 2.9v2h-1.5l-2-2c-.9-.9-2.3-1.2-3.5-.9V388h-2z"/><path d="M-265.4 393.1l-1.6-1.6v3.5h-2.8l.4.7c.6 1 .4 2.2-.4 3l-2.2 2.3v3h3.4l3.1-3.1c1-1 1.6-2.4 1.6-3.9.1-1.5-.5-2.9-1.5-3.9zm-.7 7.1l-2.9 2.8h-2v-1.5l2-2c.9-.9 1.2-2.3.9-3.5h2.1v-2c.8.8 1.2 1.9 1.2 3 0 1.2-.5 2.3-1.3 3.2z"/><path d="M-273 402.2l-.7.4c-1 .5-2.2.4-3-.4l-2.3-2.2h-3v3.5l3.1 3.1c1 1 2.4 1.6 3.9 1.6s2.8-.6 3.9-1.6l1.6-1.6h-3.5v-2.8zm1 3.8c-.8.8-1.9 1.2-3 1.2-1.2 0-2.3-.5-3.2-1.3l-2.8-2.9v-2h1.5l2 2c.9.9 2.3 1.2 3.5.9v2.1h2z"/></symbol><symbol id="table-of-contents" viewBox="-290 382 30 30"><path d="M-280.5 388c-.8 0-1.5.7-1.5 1.5s.7 1.5 1.5 1.5 1.5-.7 1.5-1.5-.7-1.5-1.5-1.5zm0 2c-.3 0-.5-.2-.5-.5s.2-.5.5-.5.5.2.5.5-.2.5-.5.5zM-280.5 393c-.8 0-1.5.7-1.5 1.5s.7 1.5 1.5 1.5 1.5-.7 1.5-1.5-.7-1.5-1.5-1.5zm0 2c-.3 0-.5-.2-.5-.5s.2-.5.5-.5.5.2.5.5-.2.5-.5.5zM-268.5 394h-9c-.3 0-.5.2-.5.5s.2.5.5.5h9c.3 0 .5-.2.5-.5s-.2-.5-.5-.5zM-277.5 390h3c.3 0 .5-.2.5-.5s-.2-.5-.5-.5h-3c-.3 0-.5.2-.5.5s.2.5.5.5zM-280.5 398c-.8 0-1.5.7-1.5 1.5s.7 1.5 1.5 1.5 1.5-.7 1.5-1.5-.7-1.5-1.5-1.5zm0 2c-.3 0-.5-.2-.5-.5s.2-.5.5-.5.5.2.5.5-.2.5-.5.5zM-268.5 399h-9c-.3 0-.5.2-.5.5s.2.5.5.5h9c.3 0 .5-.2.5-.5s-.2-.5-.5-.5zM-280.5 403c-.8 0-1.5.7-1.5 1.5s.7 1.5 1.5 1.5 1.5-.7 1.5-1.5-.7-1.5-1.5-1.5zm0 2c-.3 0-.5-.2-.5-.5s.2-.5.5-.5.5.2.5.5-.2.5-.5.5zM-268.5 404h-9c-.3 0-.5.2-.5.5s.2.5.5.5h9c.3 0 .5-.2.5-.5s-.2-.5-.5-.5z"/><path d="M-265.3 390l-5.7-5.7c-.2-.2-.5-.3-.7-.3h-11.8c-.8 0-1.5.7-1.5 1.5v23c0 .8.7 1.5 1.5 1.5h17c.8 0 1.5-.7 1.5-1.5v-17.8c0-.2-.1-.5-.3-.7zm-5.7-4.4l4.4 4.4h-3.9c-.3 0-.5-.2-.5-.5v-3.9zm4.5 23.4h-17c-.3 0-.5-.2-.5-.5v-23c0-.3.2-.5.5-.5h11.5v4.5c0 .8.7 1.5 1.5 1.5h4.5v17.5c0 .3-.2.5-.5.5z"/></symbol><symbol id="tabs" viewBox="-290 382 30 30"><path d="M-279.5 387h-5c-.3 0-.5.2-.5.5s.2.5.5.5h5c.3 0 .5-.2.5-.5s-.2-.5-.5-.5zM-284.5 392h4c.3 0 .5-.2.5-.5s-.2-.5-.5-.5h-4c-.3 0-.5.2-.5.5s.2.5.5.5zM-266.5 389h-5c-.3 0-.5.2-.5.5s.2.5.5.5h5c.3 0 .5-.2.5-.5s-.2-.5-.5-.5zM-266.5 391h-8c-.3 0-.5.2-.5.5s.2.5.5.5h8c.3 0 .5-.2.5-.5s-.2-.5-.5-.5zM-266.5 393h-8c-.3 0-.5.2-.5.5s.2.5.5.5h8c.3 0 .5-.2.5-.5s-.2-.5-.5-.5zM-266.5 395h-8c-.3 0-.5.2-.5.5s.2.5.5.5h8c.3 0 .5-.2.5-.5s-.2-.5-.5-.5zM-266.5 397h-8c-.3 0-.5.2-.5.5s.2.5.5.5h8c.3 0 .5-.2.5-.5s-.2-.5-.5-.5zM-266.5 399h-8c-.3 0-.5.2-.5.5s.2.5.5.5h8c.3 0 .5-.2.5-.5s-.2-.5-.5-.5zM-266.5 401h-8c-.3 0-.5.2-.5.5s.2.5.5.5h8c.3 0 .5-.2.5-.5s-.2-.5-.5-.5zM-266.5 403h-8c-.3 0-.5.2-.5.5s.2.5.5.5h8c.3 0 .5-.2.5-.5s-.2-.5-.5-.5zM-268.5 405h-6c-.3 0-.5.2-.5.5s.2.5.5.5h6c.3 0 .5-.2.5-.5s-.2-.5-.5-.5z"/><path d="M-264 385h-22c-.6 0-1 .4-1 1v15c0 .6.4 1 1 1h8v6c0 .6.4 1 1 1h13c.6 0 1-.4 1-1v-22c0-.6-.4-1-1-1zm-15.8 5h1.8v3h-8v-3h6.2zm1.8 4v3h-8v-3h8zm-8 7v-3h8v3h-8zm9 7v-18.5c0-.5 0-.5-2.8-.5h-6.2v-3h22v22h-13zm13 .5v-.5.5z"/><path d="M-284.5 396h5c.3 0 .5-.2.5-.5s-.2-.5-.5-.5h-5c-.3 0-.5.2-.5.5s.2.5.5.5zM-281.5 399h-3c-.3 0-.5.2-.5.5s.2.5.5.5h3c.3 0 .5-.2.5-.5s-.2-.5-.5-.5z"/></symbol><symbol id="text-slide" viewBox="-290 382 30 30"><path d="M-270 391.7v1.8c0 .3.2.5.5.5s.5-.2.5-.5v-1.8l1.6 1.6.7-.7-2.9-2.9-2.9 2.9.7.7 1.8-1.6zM-280 390c-2.2 0-4 1.8-4 4v10.5c0 .3.2.5.5.5s.5-.2.5-.5V398h6v6.5c0 .3.2.5.5.5s.5-.2.5-.5V394c0-2.2-1.8-4-4-4zm-3 7v-3c0-1.7 1.3-3 3-3s3 1.3 3 3v3h-6zM-271 395c-2.2 0-4 1.8-4 4v2c0 2.2 1.8 4 4 4 1.2 0 2.3-.5 3-1.4v.9c0 .3.2.5.5.5s.5-.2.5-.5V399c0-2.2-1.8-4-4-4zm0 9c-1.7 0-3-1.3-3-3v-2c0-1.7 1.3-3 3-3s3 1.3 3 3v2c0 1.7-1.3 3-3 3z"/></symbol><symbol id="text-type" viewBox="-290 382 30 30"><path d="M-275.5 393h9.8l-1.6 1.6.7.7 2.9-2.9-2.9-2.9-.7.7 1.6 1.6h-9.8c-.3 0-.5.2-.5.5s.2.7.5.7zM-271.5 404h-4c-.3 0-.5.2-.5.5s.2.5.5.5h4c.3 0 .5-.2.5-.5s-.2-.5-.5-.5zM-264.5 404h-4c-.3 0-.5.2-.5.5s.2.5.5.5h4c.3 0 .5-.2.5-.5s-.2-.5-.5-.5zM-282 390c-2.2 0-4 1.8-4 4v10.5c0 .3.2.5.5.5s.5-.2.5-.5V398h6v6.5c0 .3.2.5.5.5s.5-.2.5-.5V394c0-2.2-1.8-4-4-4zm-3 7v-3c0-1.7 1.3-3 3-3s3 1.3 3 3v3h-6z"/></symbol><symbol id="text" viewBox="-290 382 30 30"><path d="M-266.5 387h-16c-.3 0-.5.2-.5.5v2c0 .3.2.5.5.5s.5-.2.5-.5V388h7v18h-1.5c-.3 0-.5.2-.5.5s.2.5.5.5h4c.3 0 .5-.2.5-.5s-.2-.5-.5-.5h-1.5v-18h7v1.5c0 .3.2.5.5.5s.5-.2.5-.5v-2c0-.3-.2-.5-.5-.5z"/></symbol><symbol id="visibility" viewBox="-290 382 30 30"><path d="M-264.2 396.7c-.2-.2-4.2-5.3-10.2-5.7h-1.2c-5.9.3-10 5.4-10.2 5.7l-.2.3.2.3c.2.2 4.2 5.3 10.2 5.7h1.2c5.9-.3 10-5.4 10.2-5.7l.2-.3-.2-.3zm-5.8.3c0 2.8-2.2 5-5 5s-5-2.2-5-5 2.2-5 5-5 5 2.2 5 5zm-14.7 0c.7-.8 2.6-2.7 5.2-4-.9 1.1-1.5 2.5-1.5 4s.6 2.9 1.5 4c-2.7-1.3-4.6-3.2-5.2-4zm14.2 4c.9-1.1 1.5-2.4 1.5-4 0-1.5-.6-2.9-1.5-4 2.7 1.2 4.6 3.2 5.2 4-.6.8-2.5 2.7-5.2 4z"/><path d="M-275 399c1.1 0 2-.9 2-2s-.9-2-2-2-2 .9-2 2 .9 2 2 2zm0-3c.6 0 1 .4 1 1s-.4 1-1 1-1-.4-1-1 .4-1 1-1z"/><circle cx="-277.5" cy="394.5" r=".5"/></symbol><symbol id="widget-area" viewBox="-290 382 30 30"><path d="M-268.8 411h-12.5c-2.6 0-4.7-2.1-4.7-4.7v-18.7c0-2.6 2.1-4.7 4.7-4.7h12.5c2.6 0 4.7 2.1 4.7 4.7v18.7c-.1 2.6-2.1 4.7-4.7 4.7zm-12.5-27c-2 0-3.6 1.7-3.6 3.6v18.7c0 2 1.7 3.6 3.6 3.6h12.5c2 0 3.6-1.7 3.6-3.6v-18.7c0-2-1.7-3.6-3.6-3.6h-12.5z"/><path d="M-277.2 393.3c-.2 0-.4-.1-.5-.3l-2.1-5.2c-.1-.3 0-.5.3-.6.3-.1.5 0 .6.3l2.1 5.2c.1.3 0 .5-.3.6h-.1z"/><path d="M-277.2 393.3c-.1 0-.2 0-.2-.1-.2-.1-.3-.4-.2-.7l2.1-4.2c.1-.2.4-.3.7-.2s.3.4.2.7l-2.1 4.2c0 .2-.3.3-.5.3z"/><path d="M-273 393.3c-.2 0-.4-.1-.4-.3l-2.1-4.2c-.1-.2 0-.5.2-.7.2-.2.5 0 .7.2l2.1 4.2c.1.2 0 .5-.2.7-.1.1-.2.1-.3.1z"/><path d="M-273 393.3h-.2c-.3-.1-.4-.4-.3-.6l2.1-5.2c.1-.3.4-.4.6-.3.2.1.4.4.3.6l-2.1 5.2c0 .2-.2.3-.4.3zM-277.2 406.8c-.2 0-.4-.1-.5-.3l-2.1-5.2c-.1-.3 0-.5.3-.6.3-.1.5 0 .6.3l2.1 5.2c.1.3 0 .5-.3.6h-.1z"/><path d="M-277.2 406.8c-.1 0-.2 0-.2-.1-.2-.1-.3-.4-.2-.7l2.1-4.2c.1-.2.4-.3.7-.2s.3.4.2.7l-2.1 4.2c0 .2-.3.3-.5.3z"/><path d="M-273 406.8c-.2 0-.4-.1-.4-.3l-2.1-4.2c-.1-.2 0-.5.2-.7.2-.2.5 0 .7.2l2.1 4.2c.1.2 0 .5-.2.7-.1.1-.2.1-.3.1z"/><path d="M-273 406.8h-.2c-.3-.1-.4-.4-.3-.6l2.1-5.2c.1-.3.4-.4.6-.3.2.1.4.4.3.6l-2.1 5.2c0 .2-.2.3-.4.3zM-264.7 397.5h-20.8c-.3 0-.5-.2-.5-.5s.2-.5.5-.5h20.8c.3 0 .5.2.5.5s-.2.5-.5.5z"/></symbol></svg>