<?xml version="1.0" encoding="UTF-8"?><!DOCTYPE svg PUBLIC "-//W3C//DTD SVG 1.1//EN" "http://www.w3.org/Graphics/SVG/1.1/DTD/svg11.dtd"><svg xmlns="http://www.w3.org/2000/svg"><symbol id="logo-flat-custom" viewBox="-137 283 336 227"><path class="cs-logo-block-light" d="M86.8 444.8C52.6 464.5 65.3 457.2 31 477c-5.9-3.4-49.9-28.8-55.8-32.2 61.8-35.7 25.9-15 55.8-32.2 18.9 10.9 2.8 1.6 55.8 32.2z"/><path class="cs-logo-block-regular" d="M86.8 444.8V477c-34.2 19.7-21.5 12.4-55.8 32.2V477c34.2-19.7 21.5-12.4 55.8-32.2z"/><path class="cs-logo-block-dark" d="M31 477v32.2c-5.9-3.4-49.9-28.8-55.8-32.2v-32.2c5.9 3.4 49.9 28.8 55.8 32.2z"/><path class="cs-logo-arms-dark" d="M-38.7 436.7v32.2c-54.9-31.7-13.2-7.6-97.6-56.4v-32.1c.4.3 69.2 39.9 97.6 56.3z"/><path class="cs-logo-arms-regular" d="M86.8 316v32.2c-74.9 43.3-33.5 19.4-83.7 48.3l-27.9-16.1C73 324 24.8 351.8 86.8 316z"/><path class="cs-logo-arms-light" d="M31 283.8l-167.3 96.6c.5.3 69.2 40 97.6 56.3l55.8-32.2c-17.7-10.2-8.7-5-41.8-24.1C73 324 24.8 351.8 86.8 316L31 283.8zM142.5 348.2c-13.4 7.7-83.9 48.4-97.6 56.3l55.8 32.2c29-16.7 94.9-54.8 97.6-56.4-34.2-19.6-21.5-12.3-55.8-32.1z"/><path class="cs-logo-arms-regular" d="M198.3 380.4v32.2s-97.6 56.3-97.6 56.4v-32.2c29-16.8 94.9-54.8 97.6-56.4zM17 404.5v16.1c-17.8 10.3-8.8 5.1-41.8 24.1v16.4l-13.6 7.9-.3-.2v-32.2L17 404.5z"/><path class="cs-logo-arms-dark" d="M100.7 436.8V469l-13.9-8.1v-16.1C59 428.7 59.4 429 45 420.6v-16.1l55.7 32.3z"/></symbol><symbol id="logo-flat-inspector" viewBox="-137 283 336 227"><path fill="#92C5E9" class="cs-logo-block-light" d="M86.8 444.8C52.6 464.5 65.3 457.2 31 477c-5.9-3.4-49.9-28.8-55.8-32.2 61.8-35.7 25.9-15 55.8-32.2 18.9 10.9 2.8 1.6 55.8 32.2z"/><path fill="#51A4DB" class="cs-logo-block-regular" d="M86.8 444.8V477c-34.2 19.7-21.5 12.4-55.8 32.2V477c34.2-19.7 21.5-12.4 55.8-32.2z"/><path fill="#227FBB" class="cs-logo-block-dark" d="M31 477v32.2c-5.9-3.4-49.9-28.8-55.8-32.2v-32.2c5.9 3.4 49.9 28.8 55.8 32.2z"/><path fill="#B7B7B7" class="cs-logo-arms-dark" d="M-38.7 436.7v32.2c-54.9-31.7-13.2-7.6-97.6-56.4v-32.1c.4.3 69.2 39.9 97.6 56.3z"/><path fill="#D0D0D0" class="cs-logo-arms-regular" d="M86.8 316v32.2c-74.9 43.3-33.5 19.4-83.7 48.3l-27.9-16.1C73 324 24.8 351.8 86.8 316z"/><path fill="#EAEAEA" class="cs-logo-arms-light" d="M31 283.8l-167.3 96.6c.5.3 69.2 40 97.6 56.3l55.8-32.2c-17.7-10.2-8.7-5-41.8-24.1C73 324 24.8 351.8 86.8 316L31 283.8zM142.5 348.2c-13.4 7.7-83.9 48.4-97.6 56.3l55.8 32.2c29-16.7 94.9-54.8 97.6-56.4-34.2-19.6-21.5-12.3-55.8-32.1z"/><path fill="#D0D0D0" class="cs-logo-arms-regular" d="M198.3 380.4v32.2s-97.6 56.3-97.6 56.4v-32.2c29-16.8 94.9-54.8 97.6-56.4zM17 404.5v16.1c-17.8 10.3-8.8 5.1-41.8 24.1v16.4l-13.6 7.9-.3-.2v-32.2L17 404.5z"/><path fill="#B7B7B7" class="cs-logo-arms-dark" d="M100.7 436.8V469l-13.9-8.1v-16.1C59 428.7 59.4 429 45 420.6v-16.1l55.7 32.3z"/></symbol><symbol id="logo-flat-muted" viewBox="-137 283 336 227"><path fill="#919191" class="cs-logo-block-light" d="M86.8 444.8C52.6 464.5 65.3 457.2 31 477c-5.9-3.4-49.9-28.8-55.8-32.2 61.8-35.7 25.9-15 55.8-32.2 18.9 10.9 2.8 1.6 55.8 32.2z"/><path fill="#6A6A6A" class="cs-logo-block-regular" d="M86.8 444.8V477c-34.2 19.7-21.5 12.4-55.8 32.2V477c34.2-19.7 21.5-12.4 55.8-32.2z"/><path fill="#444" class="cs-logo-block-dark" d="M31 477v32.2c-5.9-3.4-49.9-28.8-55.8-32.2v-32.2c5.9 3.4 49.9 28.8 55.8 32.2z"/><path fill="#B7B7B7" class="cs-logo-arms-dark" d="M-38.7 436.7v32.2c-54.9-31.7-13.2-7.6-97.6-56.4v-32.1c.4.3 69.2 39.9 97.6 56.3z"/><path fill="#D0D0D0" class="cs-logo-arms-regular" d="M86.8 316v32.2c-74.9 43.3-33.5 19.4-83.7 48.3l-27.9-16.1C73 324 24.8 351.8 86.8 316z"/><path fill="#EAEAEA" class="cs-logo-arms-light" d="M31 283.8l-167.3 96.6c.5.3 69.2 40 97.6 56.3l55.8-32.2c-17.7-10.2-8.7-5-41.8-24.1C73 324 24.8 351.8 86.8 316L31 283.8zM142.5 348.2c-13.4 7.7-83.9 48.4-97.6 56.3l55.8 32.2c29-16.7 94.9-54.8 97.6-56.4-34.2-19.6-21.5-12.3-55.8-32.1z"/><path fill="#D0D0D0" class="cs-logo-arms-regular" d="M198.3 380.4v32.2s-97.6 56.3-97.6 56.4v-32.2c29-16.8 94.9-54.8 97.6-56.4zM17 404.5v16.1c-17.8 10.3-8.8 5.1-41.8 24.1v16.4l-13.6 7.9-.3-.2v-32.2L17 404.5z"/><path fill="#B7B7B7" class="cs-logo-arms-dark" d="M100.7 436.8V469l-13.9-8.1v-16.1C59 428.7 59.4 429 45 420.6v-16.1l55.7 32.3z"/></symbol><symbol id="logo-flat-original" viewBox="-137 283 336 227"><path fill="#26CABC" d="M86.8 444.8C52.6 464.5 65.3 457.2 31 477c-5.9-3.4-49.9-28.8-55.8-32.2 61.8-35.7 25.9-15 55.8-32.2 18.9 10.9 2.8 1.6 55.8 32.2z"/><path fill="#22B3A6" d="M86.8 444.8V477c-34.2 19.7-21.5 12.4-55.8 32.2V477c34.2-19.7 21.5-12.4 55.8-32.2z"/><path fill="#1D968D" d="M31 477v32.2c-5.9-3.4-49.9-28.8-55.8-32.2v-32.2c5.9 3.4 49.9 28.8 55.8 32.2z"/><path fill="#DF5540" d="M-38.7 436.7v32.2c-54.9-31.7-13.2-7.6-97.6-56.4v-32.1c.4.3 69.2 39.9 97.6 56.3z"/><path fill="#FA5745" d="M86.8 316v32.2c-74.9 43.3-33.5 19.4-83.7 48.3l-27.9-16.1C73 324 24.8 351.8 86.8 316z"/><path fill="#FE7864" d="M31 283.8l-167.3 96.6c.5.3 69.2 40 97.6 56.3l55.8-32.2c-17.7-10.2-8.7-5-41.8-24.1C73 324 24.8 351.8 86.8 316L31 283.8zM142.5 348.2c-13.4 7.7-83.9 48.4-97.6 56.3l55.8 32.2c29-16.7 94.9-54.8 97.6-56.4-34.2-19.6-21.5-12.3-55.8-32.1z"/><path fill="#FA5745" d="M198.3 380.4v32.2s-97.6 56.3-97.6 56.4v-32.2c29-16.8 94.9-54.8 97.6-56.4zM17 404.5v16.1c-17.8 10.3-8.8 5.1-41.8 24.1v16.4l-13.6 7.9-.3-.2v-32.2L17 404.5z"/><path fill="#DF5540" d="M100.7 436.8V469l-13.9-8.1v-16.1C59 428.7 59.4 429 45 420.6v-16.1l55.7 32.3z"/></symbol><symbol id="nav-elements-solid" viewBox="-290 382 30 30"><path d="M-275 395.9l12-6.4-11.5-6c-.3-.2-.6-.2-.9 0l-11.6 6.1 12 6.3zM-274 397.5v12.7l11.4-6.1c.3-.2.5-.5.5-.9v-12.1l-11.9 6.4zM-276 397.5l-11.9-6.3v12.1c0 .4.2.7.5.9l11.4 6v-12.7z"/></symbol><symbol id="nav-inspector-solid" viewBox="-290 382 30 30"><path d="M-262.5 406.7l-4.9-5.1c-.4-.4-1-.4-1.4 0l-.5.4-.5-.5c1.7-1.9 2.7-4.3 2.7-7.1.1-5.7-4.6-10.4-10.4-10.4s-10.5 4.7-10.5 10.5 4.7 10.5 10.5 10.5c2.7 0 5.2-1 7.1-2.7l.5.5-.2.2c-.4.4-.4 1 0 1.4l4.9 5.1c.2.2.4.3.7.3s.5-.1.7-.3l1.4-1.4c.2-.2.3-.4.3-.7-.1-.3-.2-.6-.4-.7zm-15-3.7c-4.7 0-8.5-3.8-8.5-8.5s3.8-8.5 8.5-8.5 8.5 3.8 8.5 8.5-3.8 8.5-8.5 8.5z"/><path d="M-277.5 387.8c-3.7 0-6.7 2.9-6.7 6.7 0 3.6 3 6.7 6.7 6.7s6.7-3 6.7-6.7-3.1-6.7-6.7-6.7z"/></symbol><symbol id="nav-layout-solid" viewBox="-290 382 30 30"><path d="M-264 384h-22c-.6 0-1 .4-1 1v3c0 .6.4 1 1 1h22c.6 0 1-.4 1-1v-3c0-.6-.4-1-1-1zM-264 391h-12c-.6 0-1 .4-1 1v3c0 .6.4 1 1 1h12c.6 0 1-.4 1-1v-3c0-.6-.4-1-1-1zM-286 396h6c.6 0 1-.4 1-1v-3c0-.6-.4-1-1-1h-6c-.6 0-1 .4-1 1v3c0 .6.4 1 1 1zM-286 403h12c.6 0 1-.4 1-1v-3c0-.6-.4-1-1-1h-12c-.6 0-1 .4-1 1v3c0 .6.4 1 1 1zM-264 398h-6c-.6 0-1 .4-1 1v3c0 .6.4 1 1 1h6c.6 0 1-.4 1-1v-3c0-.6-.4-1-1-1zM-264 405h-22c-.6 0-1 .4-1 1v3c0 .6.4 1 1 1h22c.6 0 1-.4 1-1v-3c0-.6-.4-1-1-1z"/></symbol><symbol id="nav-settings-solid" viewBox="-290 382 30 30"><path d="M-262 398.6v-3.1l-2.7-.5-.4-1.4 2.1-1.7-1.6-2.7-2.6 1-1-1 1-2.6-2.7-1.6-1.7 2.1-1.4-.4-.4-2.7h-3.1l-.5 2.7-1.4.4-1.7-2.1-2.7 1.6 1 2.6-1 1-2.6-1-1.6 2.7 2.1 1.7-.4 1.4-2.7.4v3.1l2.7.5.4 1.4-2.1 1.7 1.6 2.7 2.6-1 1 1-1 2.6 2.7 1.6 1.7-2.1 1.4.4.4 2.7h3.1l.4-2.7 1.4-.4 1.7 2.1 2.7-1.6-1-2.6 1-1 2.6 1 1.6-2.7-2.1-1.7.4-1.4 2.8-.4zm-13 4.4c-3.3 0-6-2.7-6-6s2.7-6 6-6 6 2.7 6 6-2.7 6-6 6z"/></symbol></svg>